<svg id="svg" version="1.1" xmlns="http://www.w3.org/2000/svg" xmlns:xlink="http://www.w3.org/1999/xlink" width="400" height="225" viewBox="0, 0, 400,225"><g id="svgg"><path id="path0" d="M79.102 43.758 C 78.511 43.962,77.774 44.132,77.464 44.135 C 77.154 44.138,76.319 44.233,75.608 44.346 C 74.898 44.459,73.701 44.643,72.949 44.754 C 68.721 45.378,65.013 46.791,63.573 48.326 C 63.465 48.441,62.861 49.128,62.231 49.854 C 61.601 50.579,61.009 51.172,60.916 51.172 C 58.903 51.172,53.418 57.554,51.685 61.914 C 51.492 62.397,51.218 63.057,51.074 63.379 C 50.835 63.916,50.250 65.643,49.816 67.090 C 49.719 67.412,49.541 68.203,49.419 68.848 C 49.298 69.492,49.115 70.444,49.014 70.962 C 48.763 72.234,48.777 79.616,49.033 81.227 C 49.535 84.390,49.830 85.555,51.089 89.355 C 52.396 93.301,53.131 95.318,53.758 96.680 C 54.029 97.271,54.534 98.369,54.879 99.121 C 55.669 100.845,57.799 105.112,58.553 106.480 C 59.924 108.969,60.352 109.758,61.134 111.230 C 62.528 113.857,63.331 115.323,63.488 115.527 C 63.704 115.811,64.937 118.043,65.752 119.629 C 66.139 120.381,66.606 121.216,66.790 121.484 C 66.974 121.753,67.547 122.764,68.064 123.730 C 68.581 124.697,69.298 126.039,69.658 126.712 C 70.449 128.191,70.445 128.021,69.727 129.590 C 69.404 130.293,69.141 130.909,69.141 130.957 C 69.141 131.005,68.892 131.596,68.588 132.270 C 68.284 132.945,67.748 134.243,67.397 135.156 C 67.047 136.069,66.688 136.992,66.601 137.207 C 65.998 138.692,63.617 145.697,63.248 147.070 C 63.147 147.446,62.975 148.062,62.867 148.438 C 62.250 150.576,61.625 153.509,61.119 156.641 C 60.813 158.534,60.820 164.234,61.130 165.952 C 61.508 168.049,61.926 169.769,62.225 170.459 C 62.376 170.808,62.632 171.393,62.793 171.758 C 63.993 174.480,67.196 177.203,70.931 178.678 C 72.634 179.350,75.800 178.988,76.086 178.089 C 76.216 177.679,76.909 177.344,77.626 177.344 C 77.874 177.344,78.179 177.221,78.303 177.071 C 78.428 176.921,78.825 176.743,79.186 176.675 C 81.459 176.249,81.728 174.604,79.924 172.168 C 78.707 170.525,78.382 168.877,79.349 169.248 C 79.508 169.309,79.738 169.079,79.938 168.658 C 80.298 167.904,80.492 167.819,80.855 168.256 C 81.065 168.509,81.128 168.509,81.381 168.256 C 81.757 167.880,82.227 167.888,82.227 168.271 C 82.227 168.437,82.455 168.770,82.734 169.010 C 83.327 169.520,83.440 170.745,82.941 171.244 C 82.567 171.618,81.483 171.605,81.100 171.222 C 80.708 170.831,80.962 170.445,81.443 170.702 C 82.195 171.105,82.850 170.330,82.426 169.539 C 82.123 168.973,81.057 169.002,80.503 169.593 C 79.891 170.244,79.974 170.847,80.881 172.353 C 81.892 174.029,82.038 174.921,81.453 175.866 C 81.000 176.600,81.096 176.740,81.727 176.263 C 82.533 175.653,82.728 176.742,82.020 177.903 C 81.452 178.834,81.686 178.881,82.710 178.042 C 83.551 177.353,83.824 176.728,83.398 176.465 C 82.734 176.054,83.200 174.833,84.375 173.910 C 85.662 172.899,85.973 172.037,85.146 171.774 C 84.647 171.616,84.930 171.193,85.657 171.011 C 86.986 170.677,87.258 171.722,86.230 173.216 C 85.133 174.812,85.340 175.086,86.663 173.787 C 87.593 172.875,87.683 172.977,87.116 174.300 C 86.526 175.678,87.417 175.163,88.157 173.699 C 88.777 172.471,89.853 171.943,90.244 172.674 C 90.576 173.295,90.322 174.084,89.869 173.842 C 89.359 173.569,88.789 174.031,88.386 175.044 C 87.460 177.371,86.904 177.857,85.370 177.675 L 84.458 177.567 83.231 178.921 C 81.912 180.376,81.922 181.141,83.244 179.901 C 83.966 179.223,85.341 178.516,85.935 178.516 C 86.410 178.516,86.418 178.587,86.013 179.206 C 85.638 179.779,85.848 179.837,86.413 179.316 C 87.485 178.328,88.307 178.049,90.039 178.086 C 91.961 178.127,92.920 177.730,93.702 176.569 C 94.468 175.434,93.855 174.555,92.829 175.318 C 92.218 175.772,91.966 176.758,92.461 176.758 C 92.648 176.758,92.719 176.869,92.649 177.051 C 92.351 177.828,91.406 177.194,91.406 176.218 C 91.406 174.909,92.425 174.090,93.625 174.434 C 94.059 174.559,94.299 174.527,94.535 174.313 C 94.939 173.948,95.145 174.138,94.995 174.736 C 94.926 175.011,94.966 175.195,95.096 175.195 C 95.432 175.195,95.351 175.814,94.921 176.518 C 94.707 176.870,94.531 177.303,94.531 177.481 C 94.531 177.944,94.081 179.173,93.849 179.343 C 93.564 179.550,93.756 179.520,94.531 179.235 C 99.200 177.516,102.597 173.168,103.538 167.704 C 104.265 163.485,103.811 157.038,102.546 153.613 C 102.083 152.362,101.699 151.214,101.614 150.830 C 101.503 150.329,101.264 150.262,101.035 150.668 C 100.949 150.821,100.617 151.011,100.296 151.091 C 99.717 151.236,99.715 151.235,100.026 150.765 C 100.197 150.505,100.525 150.265,100.755 150.231 C 101.435 150.129,101.178 149.470,98.078 143.359 C 96.961 141.157,95.665 138.589,95.198 137.653 L 94.349 135.951 93.708 136.219 C 92.439 136.749,92.835 137.919,94.795 139.431 C 96.355 140.634,96.875 141.518,96.875 142.965 C 96.875 144.381,96.480 144.571,96.109 143.333 C 95.936 142.755,95.377 142.017,94.148 140.745 C 91.422 137.922,91.016 137.355,91.016 136.371 C 91.016 135.218,92.040 134.852,93.259 135.571 C 93.646 135.799,94.018 135.930,94.086 135.862 C 94.203 135.745,94.044 135.413,92.954 133.496 C 92.710 133.066,92.080 131.901,91.554 130.906 L 90.598 129.097 92.277 125.730 C 94.360 121.552,97.483 115.628,97.862 115.137 C 98.067 114.871,99.352 112.561,99.764 111.719 C 99.947 111.343,100.164 111.006,100.244 110.970 C 100.325 110.934,100.391 110.837,100.391 110.753 C 100.391 110.612,101.266 108.984,102.339 107.129 C 104.305 103.730,107.828 96.477,108.932 93.555 C 109.155 92.964,109.554 91.909,109.818 91.211 C 110.552 89.270,111.520 85.949,111.923 83.984 C 112.044 83.394,112.224 82.592,112.322 82.204 C 112.713 80.654,112.538 69.278,112.098 67.623 C 111.250 64.441,110.515 62.617,108.302 58.203 C 104.772 51.163,101.575 47.669,98.645 47.651 C 98.155 47.647,97.139 47.474,96.387 47.266 C 95.635 47.057,94.868 46.884,94.683 46.881 C 94.498 46.878,93.312 46.431,92.046 45.887 C 89.642 44.855,87.532 44.096,85.781 43.633 C 84.222 43.221,80.452 43.291,79.102 43.758 M86.328 47.834 C 86.328 48.045,84.091 48.828,83.488 48.828 C 82.952 48.828,82.236 48.099,82.639 47.965 C 83.590 47.648,86.328 47.550,86.328 47.834 M98.817 54.143 C 100.197 54.811,103.419 58.256,104.258 59.961 C 104.391 60.229,104.758 60.801,105.074 61.230 C 108.995 66.556,110.156 78.101,107.610 86.426 C 106.783 89.127,105.684 92.180,105.433 92.471 C 105.345 92.573,105.273 92.817,105.273 93.014 C 105.273 93.211,105.142 93.422,104.982 93.484 C 104.821 93.545,104.735 93.669,104.791 93.759 C 104.928 93.981,104.102 94.727,103.723 94.724 C 103.454 94.721,103.453 94.696,103.711 94.513 C 103.971 94.329,103.971 94.315,103.711 94.386 C 103.550 94.430,103.389 94.616,103.354 94.798 C 103.318 94.981,103.079 95.357,102.823 95.634 C 102.566 95.911,102.304 96.303,102.239 96.506 C 102.175 96.709,101.996 96.875,101.842 96.875 C 101.688 96.875,101.563 97.060,101.563 97.286 C 101.563 97.658,101.076 98.404,100.292 99.235 C 100.131 99.405,100.000 99.677,100.000 99.840 C 100.000 100.002,99.826 100.292,99.614 100.484 C 99.402 100.676,99.173 101.008,99.105 101.223 C 99.037 101.437,98.504 102.057,97.921 102.600 C 97.329 103.151,96.904 103.700,96.959 103.844 C 97.109 104.234,96.876 104.676,96.581 104.562 C 96.435 104.506,96.218 104.662,96.090 104.916 C 95.965 105.167,95.628 105.568,95.343 105.810 C 95.058 106.051,94.942 106.248,95.086 106.249 C 95.330 106.250,94.858 106.964,94.042 107.829 C 93.881 107.999,93.750 108.200,93.750 108.277 C 93.750 108.421,93.719 108.461,92.750 109.570 C 92.422 109.946,91.986 110.578,91.782 110.973 C 91.578 111.369,91.233 111.818,91.014 111.971 C 90.776 112.138,90.663 112.372,90.732 112.553 C 90.808 112.749,90.709 112.900,90.452 112.981 C 90.234 113.050,89.833 113.373,89.559 113.697 L 89.063 114.288 89.063 113.483 C 89.063 113.041,89.155 112.573,89.268 112.443 C 90.205 111.367,91.961 108.289,93.057 105.805 C 93.331 105.184,93.555 104.606,93.555 104.520 C 93.555 104.435,93.774 104.159,94.043 103.906 C 94.312 103.654,94.531 103.288,94.531 103.093 C 94.531 102.897,94.707 102.628,94.922 102.494 C 95.137 102.360,95.313 102.145,95.313 102.017 C 95.313 101.676,96.510 99.132,96.707 99.056 C 96.799 99.020,96.875 98.781,96.875 98.525 C 96.875 98.268,97.130 97.551,97.442 96.930 C 97.922 95.975,97.993 95.642,97.906 94.775 C 97.814 93.866,97.843 93.750,98.169 93.750 C 98.506 93.750,98.532 93.591,98.495 91.754 C 98.467 90.310,98.529 89.674,98.719 89.458 C 98.863 89.294,99.044 88.435,99.121 87.549 C 99.197 86.663,99.330 85.938,99.416 85.938 C 99.642 85.938,99.897 83.322,99.793 82.080 C 99.777 81.892,99.823 81.519,99.895 81.250 C 99.968 80.981,100.024 80.194,100.020 79.500 C 100.016 78.720,100.103 78.182,100.248 78.092 C 100.430 77.980,100.426 77.802,100.232 77.304 C 100.094 76.950,99.950 76.089,99.912 75.391 C 99.874 74.692,99.764 73.617,99.667 73.001 C 99.571 72.386,99.561 71.858,99.645 71.829 C 99.825 71.768,98.681 69.367,98.273 68.953 C 98.119 68.796,97.878 68.394,97.738 68.059 C 97.490 67.466,96.875 66.785,96.875 67.103 C 96.875 67.191,96.762 67.107,96.623 66.918 C 96.485 66.729,96.287 66.594,96.184 66.619 C 95.792 66.712,95.280 66.331,94.738 65.544 C 92.288 61.983,85.397 57.919,85.355 60.010 C 85.353 60.090,85.476 60.156,85.629 60.156 C 85.781 60.156,86.286 60.522,86.752 60.969 C 87.597 61.782,87.597 61.783,87.012 61.655 C 83.919 60.983,82.329 60.830,79.215 60.905 C 77.265 60.952,77.699 61.100,80.726 61.419 C 85.240 61.894,86.331 62.257,87.548 63.690 C 87.951 64.163,88.412 64.705,88.574 64.893 C 88.735 65.081,88.867 65.322,88.867 65.430 C 88.867 65.678,88.342 65.686,88.190 65.440 C 87.786 64.787,83.853 62.813,82.364 62.516 C 81.912 62.426,81.389 62.289,81.201 62.210 C 80.996 62.124,80.859 62.154,80.859 62.284 C 80.859 62.403,80.989 62.500,81.146 62.500 C 81.451 62.500,82.569 63.085,83.429 63.695 C 83.714 63.897,84.007 64.063,84.079 64.063 C 85.085 64.063,88.017 67.900,89.004 70.508 C 90.043 73.253,90.342 80.659,89.562 84.375 C 89.371 85.288,89.143 86.387,89.055 86.816 C 88.968 87.246,88.802 87.927,88.687 88.330 C 88.571 88.733,88.399 89.348,88.304 89.697 C 88.210 90.046,88.002 90.728,87.842 91.211 C 87.682 91.694,87.357 92.749,87.118 93.555 C 86.529 95.545,85.959 97.244,85.643 97.949 C 85.498 98.271,85.231 98.974,85.049 99.509 C 84.867 100.045,84.481 101.012,84.191 101.658 C 83.900 102.304,83.542 103.140,83.395 103.516 C 82.675 105.358,79.885 110.352,79.576 110.352 C 79.447 110.352,79.292 110.198,79.231 110.010 C 79.169 109.822,78.905 109.316,78.644 108.887 C 76.009 104.549,75.391 103.491,75.391 103.322 C 75.391 103.214,75.303 103.125,75.195 103.125 C 75.088 103.125,75.000 103.049,75.000 102.957 C 75.000 102.864,74.638 102.139,74.195 101.345 C 73.008 99.219,70.313 93.929,70.313 93.726 C 70.313 93.629,70.128 93.134,69.902 92.625 C 69.677 92.116,69.413 91.501,69.316 91.260 C 69.220 91.018,69.057 90.623,68.954 90.381 C 68.324 88.896,67.039 84.279,66.631 82.031 C 65.492 75.758,65.905 71.808,68.266 66.413 C 69.001 64.733,70.000 63.471,70.938 63.037 C 71.292 62.872,72.074 62.509,72.675 62.228 C 73.276 61.948,73.913 61.719,74.091 61.719 C 74.710 61.719,74.409 61.378,73.682 61.255 C 73.099 61.156,72.721 61.247,71.831 61.701 L 70.712 62.272 71.085 61.556 C 71.290 61.162,71.836 60.400,72.298 59.863 C 76.868 54.558,80.763 53.350,87.401 55.180 C 88.367 55.446,89.357 55.664,89.601 55.664 C 89.845 55.664,90.220 55.773,90.434 55.907 C 90.772 56.119,91.135 55.993,93.214 54.941 C 96.468 53.295,96.929 53.229,98.817 54.143 M61.683 59.157 C 62.259 60.183,62.239 60.259,61.236 60.847 C 60.231 61.436,60.145 61.410,59.591 60.347 C 59.076 59.360,59.050 59.477,59.909 58.894 C 60.894 58.224,61.182 58.267,61.683 59.157 M60.402 63.958 C 65.444 66.064,63.852 73.470,58.360 73.459 C 53.188 73.448,51.681 66.405,56.352 64.075 C 57.303 63.601,59.402 63.540,60.402 63.958 M58.500 65.033 C 58.076 65.718,59.360 66.637,60.150 66.214 C 60.659 65.942,60.584 65.604,59.947 65.304 C 59.115 64.913,58.630 64.822,58.500 65.033 M105.091 65.381 C 104.926 65.662,104.858 65.675,104.713 65.453 C 104.616 65.305,104.441 65.243,104.326 65.314 C 104.097 65.456,104.427 66.406,104.706 66.406 C 104.789 66.406,104.912 66.582,104.980 66.797 C 105.144 67.313,106.129 67.361,105.987 66.846 C 105.936 66.658,105.838 66.174,105.770 65.771 C 105.636 64.976,105.407 64.845,105.091 65.381 M55.687 66.248 C 55.054 66.896,54.932 67.270,55.285 67.488 C 55.627 67.699,56.574 67.195,56.811 66.677 C 57.351 65.491,56.679 65.234,55.687 66.248 M57.471 67.681 C 56.972 68.213,56.924 68.637,57.275 69.391 C 57.798 70.513,59.663 70.324,59.865 69.129 C 60.148 67.458,58.572 66.505,57.471 67.681 M61.265 67.931 C 60.605 68.660,61.039 70.150,61.824 69.848 C 62.059 69.758,62.116 69.495,62.071 68.719 C 62.006 67.609,61.767 67.375,61.265 67.931 M54.984 69.526 C 54.710 69.968,56.016 71.652,56.433 71.394 C 56.779 71.180,56.666 70.142,56.250 69.727 C 55.836 69.313,55.180 69.209,54.984 69.526 M59.082 71.053 C 58.066 71.269,57.817 72.266,58.780 72.266 C 59.563 72.266,60.379 71.868,60.310 71.520 C 60.242 71.176,59.618 70.939,59.082 71.053 M58.685 76.862 L 59.439 77.552 58.783 78.229 C 57.976 79.061,57.733 79.071,57.012 78.300 C 56.314 77.552,56.312 77.598,57.070 76.816 C 57.836 76.025,57.770 76.024,58.685 76.862 M225.391 96.017 C 220.274 96.631,217.179 100.494,217.190 106.250 C 217.203 112.530,221.026 116.406,227.207 116.406 C 233.538 116.406,237.114 112.700,237.100 106.152 C 237.085 98.992,232.642 95.147,225.391 96.017 M307.910 96.015 C 301.677 96.613,298.325 100.235,298.349 106.348 C 298.370 111.691,300.922 114.775,306.445 116.129 C 307.847 116.473,312.080 116.472,313.477 116.127 C 315.343 115.667,315.234 115.818,315.234 113.684 C 315.234 111.412,315.292 111.491,313.905 111.871 C 308.099 113.463,303.802 111.034,303.813 106.165 C 303.823 101.148,307.957 98.595,312.988 100.498 C 315.151 101.316,315.166 101.302,315.211 98.420 L 315.234 96.938 314.502 96.726 C 314.099 96.610,313.418 96.424,312.988 96.313 C 312.092 96.082,309.067 95.904,307.910 96.015 M189.822 96.302 C 189.717 96.367,189.726 96.804,189.844 97.376 C 189.953 97.906,190.090 98.604,190.148 98.926 C 190.206 99.248,190.331 99.819,190.427 100.195 C 190.649 101.070,191.177 103.396,191.602 105.371 C 191.694 105.801,191.864 106.570,191.979 107.080 C 192.093 107.590,192.269 108.381,192.369 108.838 C 192.469 109.294,192.641 110.063,192.750 110.547 C 192.860 111.030,193.050 111.909,193.172 112.500 C 193.295 113.091,193.470 113.882,193.563 114.258 C 193.655 114.634,193.781 115.183,193.842 115.479 L 193.953 116.016 197.456 116.016 L 200.959 116.016 201.071 115.283 C 201.133 114.880,201.265 114.111,201.364 113.574 C 201.463 113.037,201.632 112.070,201.740 111.426 C 201.966 110.068,202.034 109.670,202.561 106.641 C 202.776 105.405,203.021 103.930,203.105 103.362 C 203.188 102.794,203.350 102.236,203.464 102.122 C 203.687 101.899,203.705 101.963,204.105 104.395 C 204.228 105.146,204.403 106.069,204.492 106.445 C 204.582 106.821,204.756 107.744,204.878 108.496 C 205.001 109.248,205.179 110.259,205.273 110.742 C 205.368 111.226,205.546 112.236,205.670 112.988 C 205.793 113.740,205.986 114.729,206.098 115.186 L 206.301 116.016 209.751 116.016 L 213.201 116.016 213.458 114.795 C 213.599 114.124,213.788 113.267,213.877 112.891 C 214.029 112.251,214.161 111.667,214.648 109.473 C 214.756 108.989,214.927 108.220,215.030 107.764 C 215.132 107.307,215.315 106.450,215.438 105.859 C 215.560 105.269,215.735 104.478,215.826 104.102 C 216.115 102.905,216.583 100.817,217.007 98.828 C 217.133 98.237,217.312 97.502,217.405 97.194 C 217.664 96.334,217.536 96.289,214.836 96.289 C 211.955 96.289,212.318 96.010,211.914 98.535 C 211.793 99.287,211.620 100.298,211.528 100.781 C 211.436 101.265,211.259 102.319,211.133 103.125 C 211.007 103.931,210.831 104.985,210.742 105.469 C 210.653 105.952,210.478 107.007,210.352 107.813 C 209.986 110.167,209.965 110.238,209.723 109.997 C 209.604 109.878,209.438 109.316,209.354 108.748 C 209.270 108.180,209.099 107.187,208.975 106.543 C 208.755 105.400,208.675 104.965,208.203 102.344 C 208.077 101.646,207.902 100.679,207.813 100.195 C 207.723 99.712,207.563 98.773,207.455 98.108 C 207.138 96.149,207.358 96.257,203.695 96.257 L 200.490 96.257 200.254 96.810 C 200.124 97.114,200.014 97.604,200.009 97.898 C 200.004 98.191,199.916 98.807,199.813 99.265 C 199.621 100.119,199.403 101.282,199.018 103.516 C 198.897 104.214,198.723 105.181,198.630 105.664 C 198.537 106.147,198.359 107.158,198.235 107.910 C 197.821 110.423,197.861 110.309,197.543 109.875 C 197.390 109.666,197.266 109.255,197.266 108.962 C 197.266 108.668,197.172 107.960,197.058 107.388 C 196.755 105.875,196.603 105.008,195.898 100.781 C 195.596 98.965,195.292 97.211,195.200 96.739 C 195.117 96.318,190.411 95.935,189.822 96.302 M238.767 96.518 C 238.713 96.661,238.691 101.084,238.719 106.348 L 238.770 115.918 241.406 115.918 L 244.043 115.918 244.096 112.037 L 244.149 108.155 245.227 108.245 C 247.257 108.413,247.762 109.161,249.321 114.307 L 249.839 116.016 252.675 116.016 C 254.863 116.016,255.489 115.960,255.417 115.771 C 255.366 115.637,254.958 114.443,254.510 113.117 C 253.502 110.130,252.464 107.946,251.597 106.987 L 250.935 106.254 251.787 105.889 C 255.273 104.395,255.420 98.685,252.015 97.087 C 251.712 96.945,251.289 96.730,251.074 96.608 C 250.461 96.261,238.898 96.176,238.767 96.518 M257.422 106.152 L 257.422 116.016 264.160 116.016 L 270.898 116.016 270.898 114.063 L 270.898 112.109 266.895 112.109 L 262.891 112.109 262.891 104.199 L 262.891 96.289 260.156 96.289 L 257.422 96.289 257.422 106.152 M273.389 96.400 C 273.308 96.482,273.242 100.929,273.242 106.283 L 273.242 116.016 278.076 116.016 C 282.642 116.016,284.337 115.866,285.840 115.331 C 290.064 113.828,291.850 111.142,291.879 106.250 C 291.911 100.779,290.087 98.139,285.319 96.754 C 284.182 96.424,273.670 96.111,273.389 96.400 M316.932 96.414 C 316.667 96.680,316.780 108.800,317.062 110.254 C 317.873 114.439,320.599 116.406,325.586 116.406 C 329.182 116.406,331.502 115.405,332.971 113.217 C 334.040 111.626,334.082 111.263,334.082 103.516 L 334.082 96.387 331.543 96.387 L 329.004 96.387 328.906 103.027 C 328.780 111.580,328.428 112.493,325.350 112.240 C 322.554 112.009,322.387 111.518,322.266 103.125 L 322.168 96.387 319.618 96.332 C 318.216 96.303,317.007 96.339,316.932 96.414 M336.475 96.399 C 336.394 96.482,336.328 100.929,336.328 106.283 L 336.328 116.016 339.063 116.016 L 341.797 116.016 341.797 112.621 L 341.797 109.226 343.896 109.093 C 349.075 108.764,351.563 106.689,351.563 102.696 C 351.563 99.645,350.193 97.889,346.875 96.686 C 346.101 96.406,336.720 96.146,336.475 96.399 M127.195 106.396 L 127.246 116.309 130.371 116.309 L 133.496 116.309 133.594 112.793 L 133.691 109.277 135.771 109.222 L 137.850 109.167 138.280 108.050 C 138.855 106.556,138.975 106.248,139.233 105.606 C 139.354 105.306,139.453 104.976,139.453 104.874 C 139.453 104.764,138.247 104.688,136.516 104.688 L 133.580 104.688 133.636 102.783 L 133.691 100.879 137.278 100.781 L 140.864 100.684 141.155 99.902 C 141.315 99.473,141.656 98.571,141.914 97.898 C 142.172 97.226,142.383 96.633,142.383 96.580 C 142.383 96.527,138.954 96.484,134.764 96.484 L 127.145 96.484 127.195 106.396 M144.188 106.396 L 144.238 116.309 147.314 116.362 L 150.391 116.416 150.391 106.450 L 150.391 96.484 147.264 96.484 L 144.137 96.484 144.188 106.396 M154.622 96.615 C 154.460 96.777,154.448 115.674,154.611 116.097 C 154.733 116.415,159.872 116.578,160.629 116.288 C 160.894 116.186,160.938 115.681,160.938 112.674 L 160.938 109.180 163.053 109.180 C 165.475 109.180,165.149 109.433,166.193 106.738 C 167.051 104.525,167.236 104.688,163.867 104.688 L 160.938 104.688 160.938 102.739 L 160.938 100.790 164.587 100.737 L 168.236 100.684 168.574 99.707 C 168.760 99.170,169.090 98.279,169.308 97.726 C 169.526 97.174,169.651 96.669,169.585 96.603 C 169.422 96.441,154.785 96.452,154.622 96.615 M173.291 96.729 C 173.184 96.863,172.816 97.764,172.472 98.730 C 171.785 100.661,171.306 101.977,170.801 103.320 C 170.620 103.804,170.343 104.595,170.187 105.078 C 170.030 105.562,169.827 106.133,169.735 106.348 C 169.477 106.950,168.917 108.441,168.744 108.984 C 168.659 109.253,168.312 110.220,167.973 111.133 C 167.634 112.046,167.227 113.188,167.067 113.672 C 166.908 114.155,166.694 114.727,166.592 114.941 C 166.490 115.156,166.385 115.552,166.358 115.820 L 166.309 116.309 169.230 116.309 L 172.152 116.309 172.573 115.039 L 172.994 113.770 176.368 113.770 C 180.113 113.770,179.841 113.668,180.295 115.234 C 180.435 115.718,180.642 116.178,180.754 116.257 C 181.148 116.535,186.719 116.433,186.719 116.147 C 186.719 115.886,186.268 114.552,185.155 111.523 C 184.819 110.610,184.414 109.468,184.255 108.984 C 184.095 108.501,183.890 107.930,183.798 107.715 C 183.560 107.155,182.936 105.449,182.228 103.418 C 181.890 102.451,181.537 101.484,181.442 101.270 C 181.347 101.055,181.142 100.483,180.985 100.000 C 180.621 98.874,180.100 97.486,179.832 96.924 C 179.581 96.399,173.693 96.223,173.291 96.729 M229.290 100.484 C 232.952 102.796,232.069 111.541,228.106 112.210 C 224.312 112.851,221.794 108.200,223.255 103.249 C 224.109 100.360,226.997 99.036,229.290 100.484 M247.241 100.284 C 248.641 100.657,249.219 101.215,249.219 102.195 C 249.219 103.819,248.466 104.297,245.908 104.297 L 244.141 104.297 244.141 102.148 L 244.141 100.000 245.166 100.002 C 245.730 100.004,246.664 100.130,247.241 100.284 M344.587 100.288 C 347.717 101.596,345.980 105.841,342.480 105.438 L 341.895 105.371 341.840 102.686 L 341.786 100.000 342.842 100.000 C 343.422 100.000,344.208 100.130,344.587 100.288 M283.497 100.802 C 285.664 101.821,286.423 103.235,286.421 106.250 C 286.417 110.372,284.504 112.109,279.971 112.109 L 278.516 112.109 278.516 106.283 C 278.516 103.078,278.582 100.387,278.662 100.303 C 278.953 99.998,282.585 100.374,283.497 100.802 M177.151 104.297 C 177.286 104.780,177.548 105.659,177.734 106.250 C 178.898 109.946,179.008 109.658,176.416 109.723 C 174.012 109.784,173.934 109.738,174.393 108.554 C 174.557 108.130,174.849 107.184,175.796 104.004 C 176.020 103.252,176.248 102.505,176.302 102.344 C 176.409 102.030,176.717 102.738,177.151 104.297 M146.204 122.295 C 143.131 123.151,139.063 126.500,139.063 128.173 C 139.063 128.318,138.990 128.521,138.901 128.623 C 138.322 129.289,137.877 132.616,138.118 134.473 C 138.485 137.290,139.525 139.283,141.823 141.570 C 143.560 143.299,145.450 144.533,150.098 146.971 C 151.279 147.590,153.037 148.514,154.004 149.022 C 155.573 149.848,159.342 151.807,163.164 153.783 C 165.002 154.733,165.157 154.479,164.582 151.464 C 164.027 148.551,163.393 147.856,159.375 145.750 C 158.140 145.103,156.558 144.254,155.859 143.863 C 155.161 143.473,154.260 143.003,153.857 142.819 C 152.964 142.413,152.957 142.353,153.760 142.016 C 160.337 139.254,163.067 132.995,160.230 127.177 C 158.211 123.035,151.692 120.766,146.204 122.295 M190.918 123.431 C 188.365 124.678,187.518 125.587,187.454 127.148 L 187.402 128.418 185.912 128.475 C 184.191 128.540,184.298 128.380,184.059 131.245 L 183.930 132.796 185.666 132.853 L 187.402 132.910 187.509 137.402 C 187.652 143.404,188.114 144.542,190.978 145.943 L 192.285 146.582 207.227 146.582 L 222.168 146.582 223.094 146.122 C 224.693 145.327,226.954 142.468,227.942 139.993 C 228.478 138.648,228.610 139.152,228.711 142.919 L 228.809 146.582 231.396 146.637 L 233.984 146.691 233.984 137.626 L 233.984 128.561 233.447 128.431 C 229.962 127.585,222.833 128.237,220.260 129.637 C 217.075 131.371,215.069 137.185,216.056 141.819 C 216.104 142.047,214.436 142.098,205.611 142.140 C 191.904 142.206,192.969 142.670,192.969 136.628 L 192.969 132.813 195.875 132.813 C 199.334 132.813,199.065 132.989,199.592 130.371 C 199.679 129.941,199.815 129.350,199.895 129.057 L 200.040 128.525 196.553 128.471 L 193.066 128.418 193.096 125.537 C 193.130 122.161,193.260 122.287,190.918 123.431 M259.375 123.334 C 255.655 123.775,254.719 124.294,253.986 126.319 C 252.960 129.155,252.940 129.104,254.830 128.508 C 257.027 127.817,257.259 127.770,259.082 127.642 C 266.939 127.091,266.928 133.641,259.063 138.819 C 258.100 139.453,256.554 140.418,254.590 141.613 L 252.441 142.920 252.463 144.371 C 252.475 145.169,252.588 146.015,252.714 146.251 L 252.943 146.680 261.535 146.680 L 270.127 146.680 270.342 146.143 C 270.621 145.448,270.886 144.282,271.029 143.118 L 271.143 142.193 264.234 142.141 C 260.243 142.112,257.489 142.020,257.715 141.925 C 257.930 141.834,258.589 141.584,259.180 141.369 C 264.169 139.552,267.749 137.254,269.073 135.018 C 272.213 129.712,269.495 123.938,263.574 123.337 C 262.930 123.271,262.183 123.189,261.914 123.154 C 261.646 123.119,260.503 123.200,259.375 123.334 M283.008 123.282 C 271.021 124.461,269.187 139.196,280.237 145.541 C 284.229 147.833,287.995 147.026,291.929 143.037 C 300.455 134.393,294.908 122.111,283.008 123.282 M303.320 123.355 C 299.276 124.048,298.682 124.529,297.843 127.789 C 297.536 128.981,297.593 129.021,298.960 128.552 C 303.473 127.004,307.648 127.346,308.736 129.353 C 310.435 132.484,307.317 136.963,301.080 140.352 C 300.627 140.598,297.018 142.798,296.884 142.909 C 296.708 143.056,296.910 146.193,297.111 146.436 C 297.273 146.631,299.154 146.673,305.934 146.633 L 314.551 146.582 314.895 145.508 C 315.084 144.917,315.260 143.950,315.286 143.359 L 315.332 142.285 308.496 142.188 C 304.487 142.130,301.822 142.021,302.051 141.924 C 302.266 141.833,303.364 141.402,304.492 140.965 C 311.060 138.422,313.939 135.814,314.571 131.836 C 315.204 127.857,313.432 124.948,309.570 123.627 C 308.893 123.396,304.260 123.194,303.320 123.355 M323.535 123.368 C 320.212 123.737,319.281 124.462,318.349 127.404 C 317.846 128.992,317.905 129.090,319.099 128.634 C 321.765 127.616,326.118 127.283,327.583 127.985 C 330.443 129.356,330.255 133.327,327.197 136.152 C 325.629 137.600,319.546 141.797,319.015 141.797 C 318.962 141.797,318.529 142.065,318.053 142.392 L 317.188 142.988 317.188 144.333 C 317.188 145.072,317.273 145.903,317.378 146.179 L 317.568 146.680 326.143 146.680 C 335.671 146.680,334.948 146.795,335.335 145.215 C 335.467 144.678,335.665 143.872,335.777 143.424 C 336.097 142.138,336.368 142.188,328.992 142.188 C 324.638 142.188,322.266 142.119,322.266 141.992 C 322.266 141.885,322.386 141.797,322.533 141.797 C 322.679 141.797,323.273 141.612,323.851 141.385 C 324.429 141.159,325.078 140.906,325.293 140.823 C 332.704 137.967,336.163 133.570,334.878 128.637 C 333.801 124.502,329.847 122.665,323.535 123.368 M65.343 123.901 C 65.438 124.280,65.333 124.442,64.761 124.795 C 64.077 125.218,63.851 125.586,64.276 125.586 C 64.394 125.586,64.757 125.396,65.083 125.164 C 65.566 124.820,65.743 124.784,66.041 124.970 C 66.556 125.292,66.534 124.752,66.002 124.005 C 65.514 123.319,65.184 123.267,65.343 123.901 M65.674 126.282 C 64.538 126.963,64.517 127.469,65.649 126.879 C 66.225 126.578,66.264 127.089,65.702 127.557 C 65.244 127.936,65.395 128.125,66.162 128.129 L 66.895 128.134 66.429 128.492 C 65.827 128.955,66.152 129.159,66.902 128.789 C 68.531 127.988,68.772 127.245,67.360 127.379 C 66.557 127.456,66.364 127.198,66.895 126.758 C 67.904 125.920,66.918 125.537,65.674 126.282 M151.369 126.488 C 156.444 127.301,156.967 135.552,152.258 140.509 L 151.348 141.467 150.528 141.013 C 145.099 138.006,142.851 134.326,144.042 130.399 C 144.862 127.698,147.508 125.901,150.098 126.290 C 150.420 126.338,150.992 126.427,151.369 126.488 M81.127 128.425 C 81.502 128.915,81.860 129.221,81.929 129.109 C 82.146 128.758,82.339 128.885,82.682 129.604 C 83.008 130.288,83.006 130.310,82.572 130.664 C 82.006 131.127,80.911 130.583,81.018 129.892 C 81.051 129.675,80.866 129.210,80.607 128.860 C 79.975 128.005,79.822 127.539,80.173 127.539 C 80.326 127.539,80.755 127.938,81.127 128.425 M287.242 128.162 C 288.389 128.701,289.257 129.570,289.858 130.782 C 290.411 131.897,290.541 136.475,290.062 137.988 C 288.458 143.058,285.593 145.805,283.258 144.513 C 278.903 142.103,276.867 133.192,279.833 129.527 C 281.318 127.692,284.856 127.040,287.242 128.162 M171.289 128.405 C 166.083 129.642,163.699 132.934,163.679 138.913 C 163.645 149.101,171.011 149.951,175.600 140.289 C 176.535 138.321,176.563 138.393,176.563 142.779 L 176.563 146.691 179.150 146.637 L 181.738 146.582 181.789 137.570 C 181.837 129.125,181.818 128.550,181.496 128.416 C 180.832 128.141,172.440 128.132,171.289 128.405 M249.120 128.388 C 246.946 129.221,245.384 131.058,244.348 134.000 C 243.813 135.521,243.664 135.260,243.505 132.520 C 243.423 131.123,243.288 129.673,243.204 129.297 L 243.052 128.613 240.452 128.559 L 237.852 128.504 237.972 129.535 C 238.038 130.102,238.144 134.192,238.207 138.623 L 238.321 146.680 240.845 146.680 L 243.369 146.680 243.560 146.179 C 243.664 145.903,243.750 145.063,243.750 144.312 C 243.750 143.561,243.843 142.534,243.957 142.030 C 244.071 141.526,244.256 140.718,244.367 140.234 C 245.288 136.231,247.645 133.594,250.302 133.594 L 251.172 133.594 251.157 132.568 C 251.102 128.757,250.639 127.806,249.120 128.388 M85.619 129.319 C 85.932 129.766,85.847 130.273,85.460 130.273 C 85.230 130.273,84.766 129.484,84.766 129.092 C 84.766 128.752,85.325 128.900,85.619 129.319 M88.672 129.898 C 88.672 130.031,88.889 130.061,89.258 129.980 C 89.748 129.873,89.844 129.912,89.844 130.221 C 89.844 130.424,90.002 130.761,90.195 130.969 C 91.265 132.121,90.426 133.468,89.295 132.414 C 88.737 131.895,88.742 131.531,89.301 131.923 C 89.901 132.343,90.234 132.303,90.234 131.810 C 90.234 130.839,88.751 130.304,88.209 131.078 C 87.828 131.622,88.022 132.118,89.262 133.769 C 90.263 135.102,90.407 135.596,89.962 136.182 C 89.589 136.673,89.453 136.606,89.453 135.928 C 89.453 135.341,89.145 134.591,88.314 133.154 C 87.226 131.273,87.092 130.979,87.148 130.591 C 87.187 130.320,87.326 130.196,87.549 130.233 C 87.752 130.267,87.891 130.168,87.891 129.989 C 87.891 129.818,88.059 129.688,88.281 129.688 C 88.496 129.688,88.672 129.782,88.672 129.898 M85.063 130.922 C 85.420 131.279,86.027 131.811,86.412 132.105 C 86.798 132.399,87.279 132.964,87.481 133.361 C 87.683 133.758,88.034 134.249,88.260 134.454 C 88.723 134.872,88.829 136.093,88.438 136.484 C 87.986 136.936,87.098 136.754,86.452 136.077 C 86.115 135.723,85.510 135.192,85.107 134.895 C 84.705 134.598,84.375 134.232,84.375 134.082 C 84.375 133.932,84.045 133.563,83.643 133.262 C 82.721 132.573,82.403 132.175,82.609 131.964 C 82.849 131.720,83.506 132.140,84.013 132.861 C 84.538 133.607,84.887 133.984,85.052 133.984 C 85.117 133.984,84.947 133.656,84.675 133.255 C 83.959 132.202,84.005 131.769,84.814 131.936 L 85.449 132.066 84.717 131.449 C 84.010 130.853,83.755 130.273,84.199 130.273 C 84.317 130.273,84.706 130.565,85.063 130.922 M72.397 132.477 C 73.563 134.656,74.827 137.766,74.874 138.568 C 74.890 138.840,74.968 139.062,75.049 139.062 C 75.129 139.062,75.195 139.156,75.195 139.269 C 75.195 139.383,75.111 139.424,75.008 139.361 C 74.794 139.228,74.401 139.929,73.824 141.470 C 73.220 143.084,72.499 143.475,71.625 142.664 C 70.936 142.026,70.624 142.123,69.032 143.474 C 67.698 144.605,67.475 144.589,67.548 143.369 C 67.587 142.725,67.773 141.959,68.725 138.525 C 69.216 136.752,70.691 132.926,70.914 132.845 C 71.013 132.809,71.094 132.705,71.094 132.614 C 71.094 131.310,71.737 131.243,72.397 132.477 M85.547 132.155 C 85.547 132.282,86.328 133.008,86.465 133.008 C 86.507 133.008,86.384 132.791,86.191 132.526 C 85.857 132.067,85.547 131.888,85.547 132.155 M176.172 132.652 C 176.172 132.886,176.085 133.348,175.979 133.678 C 173.873 140.215,172.769 142.188,171.215 142.188 C 168.899 142.188,168.312 133.767,170.557 132.734 C 171.990 132.075,176.172 132.014,176.172 132.652 M228.516 132.528 C 228.516 134.062,225.703 140.701,224.668 141.610 C 222.669 143.364,221.506 141.518,221.491 136.570 C 221.480 132.675,221.890 132.323,226.514 132.256 C 228.200 132.231,228.516 132.274,228.516 132.528 M283.649 132.856 C 281.307 134.852,281.271 135.044,282.929 136.646 C 284.513 138.176,284.454 138.177,286.129 136.597 C 287.809 135.012,287.810 135.089,286.109 133.514 C 284.490 132.015,284.601 132.045,283.649 132.856 M82.617 133.488 L 83.105 133.760 82.556 133.970 C 81.841 134.243,81.735 134.235,81.452 133.895 C 80.933 133.270,81.726 132.993,82.617 133.488 M84.142 135.515 C 86.006 136.772,87.133 137.370,87.871 137.494 L 88.574 137.612 88.050 137.960 C 87.409 138.387,87.109 138.261,85.511 136.887 C 84.252 135.805,83.439 135.534,82.942 136.031 C 82.147 136.826,83.262 138.571,84.113 137.865 C 84.310 137.701,84.294 137.558,84.032 137.159 C 83.807 136.814,83.783 136.684,83.957 136.742 C 84.463 136.911,84.865 137.829,84.583 138.169 C 84.217 138.609,83.711 138.550,83.043 137.988 C 82.724 137.720,82.360 137.500,82.233 137.500 C 82.105 137.500,82.030 137.297,82.064 137.039 C 82.097 136.785,82.008 136.438,81.866 136.266 C 81.575 135.916,81.716 135.547,82.140 135.547 C 82.295 135.547,82.422 135.371,82.422 135.156 C 82.422 134.576,82.895 134.675,84.142 135.515 M93.018 140.738 C 94.574 142.241,95.313 143.416,95.313 144.390 C 95.313 144.919,95.674 145.896,96.509 147.623 C 97.167 148.984,97.782 150.295,97.876 150.537 C 98.726 152.723,99.161 153.600,99.588 153.985 C 100.025 154.380,100.220 156.836,99.814 156.836 C 99.291 156.836,98.449 155.113,98.464 154.075 C 98.474 153.354,98.315 152.631,97.952 151.758 C 96.152 147.419,95.171 145.535,94.501 145.127 C 93.751 144.671,93.296 143.992,91.842 141.155 C 90.491 138.517,90.657 138.458,93.018 140.738 M90.031 140.188 C 90.523 140.699,91.090 141.468,91.291 141.897 C 92.871 145.281,93.033 145.563,93.572 145.869 C 94.269 146.266,94.286 146.440,93.644 146.602 C 92.295 146.940,91.575 146.231,90.689 143.690 C 89.969 141.626,88.768 140.747,88.243 141.900 C 87.958 142.526,87.653 142.427,87.426 141.635 C 87.088 140.456,87.800 139.272,88.854 139.261 C 89.008 139.259,89.538 139.676,90.031 140.188 M75.652 140.283 C 76.039 141.160,76.683 142.911,76.964 143.848 C 77.093 144.277,77.275 144.831,77.369 145.078 C 77.462 145.324,77.539 145.737,77.539 145.994 C 77.539 146.251,77.627 146.516,77.734 146.582 C 77.842 146.648,77.930 147.088,77.930 147.559 C 77.930 148.029,78.018 148.469,78.125 148.535 C 78.232 148.602,78.320 148.831,78.320 149.045 C 78.320 149.403,78.283 149.394,77.858 148.936 C 77.604 148.662,77.297 148.438,77.175 148.438 C 77.053 148.438,76.944 148.240,76.934 147.998 C 76.915 147.576,76.908 147.578,76.758 148.047 C 76.672 148.315,76.593 148.420,76.582 148.279 C 76.571 148.139,76.475 148.078,76.368 148.144 C 76.120 148.297,75.048 147.673,74.902 147.292 C 74.841 147.133,74.900 146.937,75.032 146.855 C 75.197 146.753,75.102 146.629,74.731 146.460 C 74.110 146.177,74.099 144.243,74.707 142.451 C 74.868 141.976,75.000 141.420,75.000 141.216 C 75.000 141.011,75.095 140.785,75.211 140.713 C 75.327 140.641,75.370 140.372,75.305 140.115 C 75.138 139.449,75.324 139.539,75.652 140.283 M83.010 143.992 C 83.319 144.185,83.478 144.185,83.786 143.992 C 84.932 143.277,86.544 144.026,86.800 145.392 C 87.030 146.618,86.173 147.671,85.440 147.063 C 85.044 146.734,85.086 146.484,85.537 146.484 C 86.068 146.484,86.325 145.948,86.101 145.306 C 85.452 143.444,83.057 144.681,83.491 146.655 C 83.766 147.910,84.309 148.133,87.369 148.253 C 90.794 148.387,91.409 148.648,92.262 150.332 C 92.602 151.004,92.703 153.220,92.402 153.406 C 92.306 153.466,92.227 152.988,92.227 152.345 C 92.227 149.194,90.406 148.297,86.035 149.297 C 83.629 149.847,81.965 149.359,82.628 148.297 C 82.856 147.932,82.816 147.809,82.252 147.167 C 81.531 146.346,81.516 145.801,82.213 145.801 C 82.709 145.801,82.972 145.434,82.627 145.221 C 82.424 145.096,82.328 143.750,82.522 143.750 C 82.577 143.750,82.797 143.859,83.010 143.992 M88.242 145.772 C 88.201 146.311,88.052 146.624,87.738 146.831 C 87.299 147.121,87.296 147.118,87.507 146.563 C 87.705 146.043,87.646 145.170,87.360 144.371 C 87.277 144.140,87.399 144.186,87.771 144.525 C 88.202 144.918,88.289 145.148,88.242 145.772 M98.964 146.449 C 99.751 147.849,99.881 149.181,99.293 149.831 C 98.817 150.357,98.732 150.306,98.188 149.170 C 97.422 147.566,97.208 146.710,97.339 145.760 C 97.561 144.135,97.693 144.190,98.964 146.449 M95.542 148.122 C 95.830 148.349,96.170 148.799,96.298 149.121 C 96.425 149.443,96.652 149.984,96.800 150.322 C 97.244 151.334,97.079 151.563,95.906 151.563 C 95.224 151.563,95.127 151.433,94.366 149.512 C 93.497 147.314,93.908 146.829,95.542 148.122 M90.541 150.595 C 91.701 151.393,91.634 151.563,90.161 151.563 C 88.782 151.563,87.583 151.915,86.475 152.647 C 85.770 153.112,85.742 153.115,85.742 152.737 C 85.742 152.474,85.613 152.344,85.352 152.344 C 84.794 152.344,84.869 152.045,85.547 151.563 C 85.869 151.333,86.133 151.024,86.133 150.876 C 86.133 149.890,89.229 149.693,90.541 150.595 M101.821 152.686 C 101.995 152.982,102.189 154.194,102.039 154.051 C 101.954 153.969,101.686 154.089,101.443 154.318 L 101.001 154.733 100.705 154.024 C 100.542 153.634,100.272 153.263,100.106 153.199 C 99.940 153.135,99.805 153.011,99.805 152.922 C 99.805 152.636,101.663 152.418,101.821 152.686 M96.680 152.920 C 96.680 153.022,96.539 153.185,96.366 153.281 C 95.669 153.671,94.159 155.345,93.724 156.209 C 93.470 156.715,93.235 157.170,93.202 157.221 C 93.170 157.272,93.069 157.193,92.978 157.046 C 92.887 156.899,92.672 156.833,92.500 156.899 C 91.684 157.212,92.425 155.246,93.469 154.327 C 94.768 153.183,96.680 152.346,96.680 152.920 M98.047 155.057 C 98.047 155.913,97.996 156.025,97.559 156.135 C 97.290 156.202,97.070 156.366,97.069 156.498 C 97.068 156.630,96.897 156.997,96.688 157.314 L 96.309 157.890 96.123 157.402 C 95.837 156.649,96.067 155.945,96.914 154.983 C 97.895 153.868,98.047 153.878,98.047 155.057 M102.230 155.927 C 102.817 156.397,102.840 157.031,102.270 157.031 C 101.976 157.031,100.977 155.963,100.977 155.649 C 100.977 155.316,101.655 155.466,102.230 155.927 M98.788 157.351 C 98.863 157.858,98.122 158.789,97.642 158.789 C 97.170 158.789,97.166 158.821,97.776 157.730 C 98.295 156.801,98.685 156.655,98.788 157.351 M101.661 157.365 C 102.161 157.764,102.272 157.956,102.115 158.146 C 101.682 158.668,100.781 158.092,100.781 157.294 C 100.781 156.714,100.852 156.720,101.661 157.365 M100.000 158.409 C 100.000 158.810,99.254 159.420,98.975 159.247 C 98.869 159.182,98.882 159.048,99.006 158.923 C 99.123 158.806,99.222 158.355,99.225 157.920 L 99.232 157.129 99.616 157.590 C 99.827 157.844,100.000 158.212,100.000 158.409 M101.183 159.005 C 101.331 159.281,101.339 159.482,101.207 159.613 C 100.916 159.904,100.586 159.615,100.586 159.071 C 100.586 158.485,100.887 158.452,101.183 159.005 M90.481 164.084 C 90.456 164.555,90.491 165.073,90.560 165.234 C 90.628 165.396,90.698 165.970,90.716 166.512 C 90.758 167.869,90.910 168.058,91.566 167.573 C 92.399 166.957,93.787 167.919,93.425 168.861 C 93.282 169.233,92.969 169.017,92.969 168.547 C 92.969 168.155,92.189 167.824,91.813 168.056 C 91.607 168.184,91.254 168.909,90.810 170.117 C 90.391 171.259,90.286 171.323,89.079 171.178 C 87.450 170.982,87.251 170.726,87.410 169.025 C 87.602 166.984,86.942 166.066,85.977 167.031 C 85.794 167.214,85.742 167.214,85.742 167.031 C 85.742 165.945,87.373 165.783,87.901 166.817 C 88.114 167.236,88.353 167.576,88.432 167.573 C 88.645 167.566,89.258 166.145,89.258 165.659 C 89.258 165.412,89.380 165.234,89.551 165.234 C 89.751 165.234,89.845 165.032,89.846 164.600 C 89.850 163.694,90.053 163.057,90.308 163.148 C 90.435 163.193,90.508 163.586,90.481 164.084 M85.938 168.177 C 85.938 168.300,86.106 168.332,86.346 168.256 C 86.672 168.153,86.741 168.200,86.685 168.487 C 86.579 169.039,85.662 168.973,85.582 168.408 C 85.548 168.167,85.614 167.969,85.729 167.969 C 85.843 167.969,85.938 168.063,85.938 168.177 M92.244 169.532 C 92.313 169.795,92.450 169.884,92.660 169.803 C 92.893 169.714,92.941 169.766,92.848 170.008 C 92.642 170.545,91.905 170.305,91.833 169.678 C 91.762 169.061,92.091 168.945,92.244 169.532 M78.223 172.070 C 78.289 172.178,78.510 172.266,78.714 172.266 C 79.566 172.266,80.265 174.162,79.844 175.328 C 79.525 176.209,79.339 176.144,79.052 175.049 C 78.885 174.413,78.544 173.855,77.966 173.273 C 77.176 172.479,77.145 172.408,77.477 172.156 C 77.906 171.832,78.064 171.813,78.223 172.070 M88.867 179.086 C 87.490 179.358,87.289 179.694,88.574 179.576 C 90.356 179.411,90.758 179.306,90.420 179.091 C 90.104 178.891,89.859 178.890,88.867 179.086 " stroke="none" fill="#ffffff" fill-rule="evenodd"></path><path id="path1" d="M0.000 112.500 L 0.000 225.000 200.000 225.000 L 400.000 225.000 400.000 112.500 L 400.000 0.000 200.000 0.000 L 0.000 0.000 0.000 112.500 M85.781 43.633 C 87.532 44.096,89.642 44.855,92.046 45.887 C 93.312 46.431,94.498 46.878,94.683 46.881 C 94.868 46.884,95.635 47.057,96.387 47.266 C 97.139 47.474,98.155 47.647,98.645 47.651 C 101.575 47.669,104.772 51.163,108.302 58.203 C 110.515 62.617,111.250 64.441,112.098 67.623 C 112.538 69.278,112.713 80.654,112.322 82.204 C 112.224 82.592,112.044 83.394,111.923 83.984 C 111.520 85.949,110.552 89.270,109.818 91.211 C 109.554 91.909,109.155 92.964,108.932 93.555 C 107.828 96.477,104.305 103.730,102.339 107.129 C 101.266 108.984,100.391 110.612,100.391 110.753 C 100.391 110.837,100.325 110.934,100.244 110.970 C 100.164 111.006,99.947 111.343,99.764 111.719 C 99.352 112.561,98.067 114.871,97.862 115.137 C 97.483 115.628,94.360 121.552,92.277 125.730 L 90.598 129.097 91.554 130.906 C 92.080 131.901,92.710 133.066,92.954 133.496 C 94.044 135.413,94.203 135.745,94.086 135.862 C 94.018 135.930,93.646 135.799,93.259 135.571 C 92.040 134.852,91.016 135.218,91.016 136.371 C 91.016 137.355,91.422 137.922,94.148 140.745 C 95.377 142.017,95.936 142.755,96.109 143.333 C 96.480 144.571,96.875 144.381,96.875 142.965 C 96.875 141.518,96.355 140.634,94.795 139.431 C 92.835 137.919,92.439 136.749,93.708 136.219 L 94.349 135.951 95.198 137.653 C 95.665 138.589,96.961 141.157,98.078 143.359 C 101.178 149.470,101.435 150.129,100.755 150.231 C 100.525 150.265,100.197 150.505,100.026 150.765 C 99.715 151.235,99.717 151.236,100.296 151.091 C 100.617 151.011,100.949 150.821,101.035 150.668 C 101.264 150.262,101.503 150.329,101.614 150.830 C 101.699 151.214,102.083 152.362,102.546 153.613 C 103.811 157.038,104.265 163.485,103.538 167.704 C 102.597 173.168,99.200 177.516,94.531 179.235 C 93.756 179.520,93.564 179.550,93.849 179.343 C 94.081 179.173,94.531 177.944,94.531 177.481 C 94.531 177.303,94.707 176.870,94.921 176.518 C 95.351 175.814,95.432 175.195,95.096 175.195 C 94.966 175.195,94.926 175.011,94.995 174.736 C 95.145 174.138,94.939 173.948,94.535 174.313 C 94.299 174.527,94.059 174.559,93.625 174.434 C 92.425 174.090,91.406 174.909,91.406 176.218 C 91.406 177.194,92.351 177.828,92.649 177.051 C 92.719 176.869,92.648 176.758,92.461 176.758 C 91.966 176.758,92.218 175.772,92.829 175.318 C 93.855 174.555,94.468 175.434,93.702 176.569 C 92.920 177.730,91.961 178.127,90.039 178.086 C 88.307 178.049,87.485 178.328,86.413 179.316 C 85.848 179.837,85.638 179.779,86.013 179.206 C 86.418 178.587,86.410 178.516,85.935 178.516 C 85.341 178.516,83.966 179.223,83.244 179.901 C 81.922 181.141,81.912 180.376,83.231 178.921 L 84.458 177.567 85.370 177.675 C 86.904 177.857,87.460 177.371,88.386 175.044 C 88.789 174.031,89.359 173.569,89.869 173.842 C 90.322 174.084,90.576 173.295,90.244 172.674 C 89.853 171.943,88.777 172.471,88.157 173.699 C 87.417 175.163,86.526 175.678,87.116 174.300 C 87.683 172.977,87.593 172.875,86.663 173.787 C 85.340 175.086,85.133 174.812,86.230 173.216 C 87.258 171.722,86.986 170.677,85.657 171.011 C 84.930 171.193,84.647 171.616,85.146 171.774 C 85.973 172.037,85.662 172.899,84.375 173.910 C 83.200 174.833,82.734 176.054,83.398 176.465 C 83.824 176.728,83.551 177.353,82.710 178.042 C 81.686 178.881,81.452 178.834,82.020 177.903 C 82.728 176.742,82.533 175.653,81.727 176.263 C 81.096 176.740,81.000 176.600,81.453 175.866 C 82.038 174.921,81.892 174.029,80.881 172.353 C 79.974 170.847,79.891 170.244,80.503 169.593 C 81.057 169.002,82.123 168.973,82.426 169.539 C 82.850 170.330,82.195 171.105,81.443 170.702 C 80.962 170.445,80.708 170.831,81.100 171.222 C 81.483 171.605,82.567 171.618,82.941 171.244 C 83.440 170.745,83.327 169.520,82.734 169.010 C 82.455 168.770,82.227 168.437,82.227 168.271 C 82.227 167.888,81.757 167.880,81.381 168.256 C 81.128 168.509,81.065 168.509,80.855 168.256 C 80.492 167.819,80.298 167.904,79.938 168.658 C 79.738 169.079,79.508 169.309,79.349 169.248 C 78.382 168.877,78.707 170.525,79.924 172.168 C 81.728 174.604,81.459 176.249,79.186 176.675 C 78.825 176.743,78.428 176.921,78.303 177.071 C 78.179 177.221,77.874 177.344,77.626 177.344 C 76.909 177.344,76.216 177.679,76.086 178.089 C 75.800 178.988,72.634 179.350,70.931 178.678 C 67.196 177.203,63.993 174.480,62.793 171.758 C 62.632 171.393,62.376 170.808,62.225 170.459 C 61.926 169.769,61.508 168.049,61.130 165.952 C 60.820 164.234,60.813 158.534,61.119 156.641 C 61.625 153.509,62.250 150.576,62.867 148.438 C 62.975 148.062,63.147 147.446,63.248 147.070 C 63.617 145.697,65.998 138.692,66.601 137.207 C 66.688 136.992,67.047 136.069,67.397 135.156 C 67.748 134.243,68.284 132.945,68.588 132.270 C 68.892 131.596,69.141 131.005,69.141 130.957 C 69.141 130.909,69.404 130.293,69.727 129.590 C 70.445 128.021,70.449 128.191,69.658 126.712 C 69.298 126.039,68.581 124.697,68.064 123.730 C 67.547 122.764,66.974 121.753,66.790 121.484 C 66.606 121.216,66.139 120.381,65.752 119.629 C 64.937 118.043,63.704 115.811,63.488 115.527 C 63.331 115.323,62.528 113.857,61.134 111.230 C 60.352 109.758,59.924 108.969,58.553 106.480 C 57.799 105.112,55.669 100.845,54.879 99.121 C 54.534 98.369,54.029 97.271,53.758 96.680 C 53.131 95.318,52.396 93.301,51.089 89.355 C 49.830 85.555,49.535 84.390,49.033 81.227 C 48.777 79.616,48.763 72.234,49.014 70.962 C 49.115 70.444,49.298 69.492,49.419 68.848 C 49.541 68.203,49.719 67.412,49.816 67.090 C 50.250 65.643,50.835 63.916,51.074 63.379 C 51.218 63.057,51.492 62.397,51.685 61.914 C 53.418 57.554,58.903 51.172,60.916 51.172 C 61.009 51.172,61.601 50.579,62.231 49.854 C 62.861 49.128,63.465 48.441,63.573 48.326 C 65.013 46.791,68.721 45.378,72.949 44.754 C 73.701 44.643,74.898 44.459,75.608 44.346 C 76.319 44.233,77.154 44.138,77.464 44.135 C 77.774 44.132,78.511 43.962,79.102 43.758 C 80.452 43.291,84.222 43.221,85.781 43.633 M83.301 47.788 C 82.387 47.990,82.349 48.033,82.719 48.442 C 83.213 48.988,86.328 48.464,86.328 47.834 C 86.328 47.657,84.047 47.623,83.301 47.788 M95.898 53.629 C 95.737 53.685,94.529 54.275,93.214 54.941 C 91.135 55.993,90.772 56.119,90.434 55.907 C 90.220 55.773,89.845 55.664,89.601 55.664 C 89.357 55.664,88.367 55.446,87.401 55.180 C 80.763 53.350,76.868 54.558,72.298 59.863 C 71.836 60.400,71.290 61.162,71.085 61.556 L 70.712 62.272 71.831 61.701 C 72.721 61.247,73.099 61.156,73.682 61.255 C 74.409 61.378,74.710 61.719,74.091 61.719 C 73.913 61.719,73.276 61.948,72.675 62.228 C 72.074 62.509,71.292 62.872,70.938 63.037 C 68.507 64.162,66.029 70.801,66.019 76.217 C 66.013 79.530,66.719 83.394,68.187 88.086 C 68.506 89.106,68.851 90.139,68.954 90.381 C 69.057 90.623,69.220 91.018,69.316 91.260 C 69.413 91.501,69.677 92.116,69.902 92.625 C 70.128 93.134,70.313 93.629,70.313 93.726 C 70.313 93.929,73.008 99.219,74.195 101.345 C 74.638 102.139,75.000 102.864,75.000 102.957 C 75.000 103.049,75.088 103.125,75.195 103.125 C 75.303 103.125,75.391 103.214,75.391 103.322 C 75.391 103.491,76.009 104.549,78.644 108.887 C 78.905 109.316,79.169 109.822,79.231 110.010 C 79.292 110.198,79.447 110.352,79.576 110.352 C 79.885 110.352,82.675 105.358,83.395 103.516 C 83.542 103.140,83.900 102.304,84.191 101.658 C 84.481 101.012,84.867 100.045,85.049 99.509 C 85.231 98.974,85.498 98.271,85.643 97.949 C 85.959 97.244,86.529 95.545,87.118 93.555 C 87.357 92.749,87.682 91.694,87.842 91.211 C 88.002 90.728,88.210 90.046,88.304 89.697 C 88.399 89.348,88.571 88.733,88.687 88.330 C 88.802 87.927,88.968 87.246,89.055 86.816 C 89.143 86.387,89.371 85.288,89.562 84.375 C 90.342 80.659,90.043 73.253,89.004 70.508 C 88.017 67.900,85.085 64.063,84.079 64.063 C 84.007 64.063,83.714 63.897,83.429 63.695 C 82.569 63.085,81.451 62.500,81.146 62.500 C 80.989 62.500,80.859 62.403,80.859 62.284 C 80.859 62.154,80.996 62.124,81.201 62.210 C 81.389 62.289,81.912 62.426,82.364 62.516 C 83.853 62.813,87.786 64.787,88.190 65.440 C 88.342 65.686,88.867 65.678,88.867 65.430 C 88.867 65.322,88.735 65.081,88.574 64.893 C 88.412 64.705,87.951 64.163,87.548 63.690 C 86.331 62.257,85.240 61.894,80.726 61.419 C 77.699 61.100,77.265 60.952,79.215 60.905 C 82.329 60.830,83.919 60.983,87.012 61.655 C 87.597 61.783,87.597 61.782,86.752 60.969 C 86.286 60.522,85.781 60.156,85.629 60.156 C 85.321 60.156,85.281 59.983,85.508 59.626 C 85.797 59.172,88.563 60.164,90.527 61.426 C 91.668 62.158,93.933 64.374,94.738 65.544 C 95.280 66.331,95.792 66.712,96.184 66.619 C 96.287 66.594,96.485 66.729,96.623 66.918 C 96.762 67.107,96.875 67.191,96.875 67.103 C 96.875 66.785,97.490 67.466,97.738 68.059 C 97.878 68.394,98.119 68.796,98.273 68.953 C 98.681 69.367,99.825 71.768,99.645 71.829 C 99.561 71.858,99.571 72.386,99.667 73.001 C 99.764 73.617,99.874 74.692,99.912 75.391 C 99.950 76.089,100.094 76.950,100.232 77.304 C 100.426 77.802,100.430 77.980,100.248 78.092 C 100.103 78.182,100.016 78.720,100.020 79.500 C 100.024 80.194,99.968 80.981,99.895 81.250 C 99.823 81.519,99.777 81.892,99.793 82.080 C 99.897 83.322,99.642 85.938,99.416 85.938 C 99.330 85.938,99.197 86.663,99.121 87.549 C 99.044 88.435,98.863 89.294,98.719 89.458 C 98.529 89.674,98.467 90.310,98.495 91.754 C 98.532 93.591,98.506 93.750,98.169 93.750 C 97.843 93.750,97.814 93.866,97.906 94.775 C 97.993 95.642,97.922 95.975,97.442 96.930 C 97.130 97.551,96.875 98.268,96.875 98.525 C 96.875 98.781,96.799 99.020,96.707 99.056 C 96.510 99.132,95.313 101.676,95.313 102.017 C 95.313 102.145,95.137 102.360,94.922 102.494 C 94.707 102.628,94.531 102.897,94.531 103.093 C 94.531 103.288,94.312 103.654,94.043 103.906 C 93.774 104.159,93.555 104.435,93.555 104.520 C 93.555 104.718,92.687 106.690,92.149 107.715 C 91.057 109.796,90.754 110.325,90.138 111.230 C 89.772 111.768,89.381 112.313,89.268 112.443 C 89.155 112.573,89.063 113.041,89.063 113.483 L 89.063 114.288 89.559 113.697 C 89.833 113.373,90.234 113.050,90.452 112.981 C 90.709 112.900,90.808 112.749,90.732 112.553 C 90.663 112.372,90.776 112.138,91.014 111.971 C 91.233 111.818,91.578 111.369,91.782 110.973 C 91.986 110.578,92.422 109.946,92.750 109.570 C 93.719 108.461,93.750 108.421,93.750 108.277 C 93.750 108.200,93.881 107.999,94.042 107.829 C 94.858 106.964,95.330 106.250,95.086 106.249 C 94.942 106.248,95.058 106.051,95.343 105.810 C 95.628 105.568,95.965 105.167,96.090 104.916 C 96.218 104.662,96.435 104.506,96.581 104.562 C 96.876 104.676,97.109 104.234,96.959 103.844 C 96.904 103.700,97.329 103.151,97.921 102.600 C 98.504 102.057,99.037 101.437,99.105 101.223 C 99.173 101.008,99.402 100.676,99.614 100.484 C 99.826 100.292,100.000 100.002,100.000 99.840 C 100.000 99.677,100.131 99.405,100.292 99.235 C 101.076 98.404,101.563 97.658,101.563 97.286 C 101.563 97.060,101.688 96.875,101.842 96.875 C 101.996 96.875,102.175 96.709,102.239 96.506 C 102.304 96.303,102.566 95.911,102.823 95.634 C 103.079 95.357,103.318 94.981,103.354 94.798 C 103.389 94.616,103.550 94.430,103.711 94.386 C 103.971 94.315,103.971 94.329,103.711 94.513 C 103.453 94.696,103.454 94.721,103.723 94.724 C 104.102 94.727,104.928 93.981,104.791 93.759 C 104.735 93.669,104.821 93.545,104.982 93.484 C 105.142 93.422,105.273 93.211,105.273 93.014 C 105.273 92.817,105.345 92.573,105.433 92.471 C 105.684 92.180,106.783 89.127,107.610 86.426 C 110.156 78.101,108.995 66.556,105.074 61.230 C 104.758 60.801,104.391 60.229,104.258 59.961 C 102.516 56.422,97.902 52.927,95.898 53.629 M59.909 58.894 C 59.050 59.477,59.076 59.360,59.591 60.347 C 60.145 61.410,60.231 61.436,61.236 60.847 C 62.239 60.259,62.259 60.183,61.683 59.157 C 61.182 58.267,60.894 58.224,59.909 58.894 M56.352 64.075 C 51.681 66.405,53.188 73.448,58.360 73.459 C 63.852 73.470,65.444 66.064,60.402 63.958 C 59.402 63.540,57.303 63.601,56.352 64.075 M59.947 65.304 C 60.584 65.604,60.659 65.942,60.150 66.214 C 59.360 66.637,58.076 65.718,58.500 65.033 C 58.630 64.822,59.115 64.913,59.947 65.304 M105.770 65.771 C 105.838 66.174,105.936 66.658,105.987 66.846 C 106.129 67.361,105.144 67.313,104.980 66.797 C 104.912 66.582,104.789 66.406,104.706 66.406 C 104.427 66.406,104.097 65.456,104.326 65.314 C 104.441 65.243,104.616 65.305,104.713 65.453 C 104.858 65.675,104.926 65.662,105.091 65.381 C 105.407 64.845,105.636 64.976,105.770 65.771 M57.031 65.909 C 57.031 66.485,56.575 67.167,56.041 67.388 C 54.962 67.835,54.763 67.193,55.687 66.248 C 56.322 65.599,57.031 65.420,57.031 65.909 M59.239 67.432 C 60.417 67.977,60.180 69.815,58.907 70.006 C 57.872 70.162,57.584 70.053,57.275 69.391 C 56.599 67.941,57.784 66.758,59.239 67.432 M62.071 68.719 C 62.116 69.495,62.059 69.758,61.824 69.848 C 61.039 70.150,60.605 68.660,61.265 67.931 C 61.767 67.375,62.006 67.609,62.071 68.719 M56.250 69.727 C 56.666 70.142,56.779 71.180,56.433 71.394 C 56.016 71.652,54.710 69.968,54.984 69.526 C 55.180 69.209,55.836 69.313,56.250 69.727 M60.310 71.520 C 60.379 71.868,59.563 72.266,58.780 72.266 C 57.817 72.266,58.066 71.269,59.082 71.053 C 59.618 70.939,60.242 71.176,60.310 71.520 M57.070 76.816 C 56.312 77.598,56.314 77.552,57.012 78.300 C 57.733 79.071,57.976 79.061,58.783 78.229 L 59.439 77.552 58.685 76.862 C 57.770 76.024,57.836 76.025,57.070 76.816 M230.661 96.320 C 236.502 98.173,238.961 105.221,235.987 111.577 C 232.956 118.055,221.392 118.100,218.388 111.646 C 215.406 105.242,218.035 97.839,223.828 96.328 C 225.574 95.873,229.239 95.868,230.661 96.320 M312.988 96.313 C 313.418 96.424,314.099 96.610,314.502 96.726 L 315.234 96.938 315.211 98.420 C 315.166 101.302,315.151 101.316,312.988 100.498 C 307.957 98.595,303.823 101.148,303.813 106.165 C 303.802 111.034,308.099 113.463,313.905 111.871 C 315.292 111.491,315.234 111.412,315.234 113.684 C 315.234 115.309,315.185 115.603,314.893 115.723 C 311.750 117.007,305.854 116.528,302.804 114.740 C 296.314 110.936,296.779 100.254,303.568 97.184 C 306.250 95.972,310.240 95.603,312.988 96.313 M195.200 96.739 C 195.292 97.211,195.596 98.965,195.898 100.781 C 196.603 105.008,196.755 105.875,197.058 107.388 C 197.172 107.960,197.266 108.668,197.266 108.962 C 197.266 109.255,197.390 109.666,197.543 109.875 C 197.861 110.309,197.821 110.423,198.235 107.910 C 198.359 107.158,198.537 106.147,198.630 105.664 C 198.723 105.181,198.897 104.214,199.018 103.516 C 199.403 101.282,199.621 100.119,199.813 99.265 C 199.916 98.807,200.004 98.191,200.009 97.898 C 200.014 97.604,200.124 97.114,200.254 96.810 L 200.490 96.257 203.695 96.257 C 207.358 96.257,207.138 96.149,207.455 98.108 C 207.563 98.773,207.723 99.712,207.813 100.195 C 207.902 100.679,208.077 101.646,208.203 102.344 C 208.675 104.965,208.755 105.400,208.975 106.543 C 209.099 107.187,209.270 108.180,209.354 108.748 C 209.438 109.316,209.604 109.878,209.723 109.997 C 209.965 110.238,209.986 110.167,210.352 107.813 C 210.478 107.007,210.653 105.952,210.742 105.469 C 210.831 104.985,211.007 103.931,211.133 103.125 C 211.259 102.319,211.436 101.265,211.528 100.781 C 211.620 100.298,211.793 99.287,211.914 98.535 C 212.318 96.010,211.955 96.289,214.836 96.289 C 217.536 96.289,217.664 96.334,217.405 97.194 C 217.312 97.502,217.133 98.237,217.007 98.828 C 216.583 100.817,216.115 102.905,215.826 104.102 C 215.735 104.478,215.560 105.269,215.438 105.859 C 215.315 106.450,215.132 107.307,215.030 107.764 C 214.927 108.220,214.756 108.989,214.648 109.473 C 214.161 111.667,214.029 112.251,213.877 112.891 C 213.788 113.267,213.599 114.124,213.458 114.795 L 213.201 116.016 209.751 116.016 L 206.301 116.016 206.098 115.186 C 205.986 114.729,205.793 113.740,205.670 112.988 C 205.546 112.236,205.368 111.226,205.273 110.742 C 205.179 110.259,205.001 109.248,204.878 108.496 C 204.756 107.744,204.582 106.821,204.492 106.445 C 204.403 106.069,204.228 105.146,204.105 104.395 C 203.705 101.963,203.687 101.899,203.464 102.122 C 203.350 102.236,203.188 102.794,203.105 103.362 C 203.021 103.930,202.776 105.405,202.561 106.641 C 202.034 109.670,201.966 110.068,201.740 111.426 C 201.632 112.070,201.463 113.037,201.364 113.574 C 201.265 114.111,201.133 114.880,201.071 115.283 L 200.959 116.016 197.456 116.016 L 193.953 116.016 193.842 115.479 C 193.781 115.183,193.655 114.634,193.563 114.258 C 193.470 113.882,193.295 113.091,193.172 112.500 C 193.050 111.909,192.860 111.030,192.750 110.547 C 192.641 110.063,192.469 109.294,192.369 108.838 C 192.269 108.381,192.093 107.590,191.979 107.080 C 191.864 106.570,191.694 105.801,191.602 105.371 C 191.177 103.396,190.649 101.070,190.427 100.195 C 190.331 99.819,190.206 99.248,190.148 98.926 C 190.090 98.604,189.953 97.906,189.844 97.376 C 189.591 96.149,189.515 96.180,192.557 96.251 C 195.012 96.308,195.119 96.328,195.200 96.739 M251.074 96.608 C 251.289 96.730,251.712 96.945,252.015 97.087 C 253.626 97.843,254.384 99.177,254.390 101.270 C 254.397 103.760,253.647 105.091,251.787 105.889 L 250.935 106.254 251.597 106.987 C 252.464 107.946,253.502 110.130,254.510 113.117 C 254.958 114.443,255.366 115.637,255.417 115.771 C 255.489 115.960,254.863 116.016,252.675 116.016 L 249.839 116.016 249.321 114.307 C 247.762 109.161,247.257 108.413,245.227 108.245 L 244.149 108.155 244.096 112.037 L 244.043 115.918 241.406 115.918 L 238.770 115.918 238.719 106.348 C 238.691 101.084,238.713 96.661,238.767 96.518 C 238.898 96.176,250.461 96.261,251.074 96.608 M262.891 104.199 L 262.891 112.109 266.895 112.109 L 270.898 112.109 270.898 114.063 L 270.898 116.016 264.160 116.016 L 257.422 116.016 257.422 106.152 L 257.422 96.289 260.156 96.289 L 262.891 96.289 262.891 104.199 M285.319 96.754 C 290.087 98.139,291.911 100.779,291.879 106.250 C 291.850 111.142,290.064 113.828,285.840 115.331 C 284.337 115.866,282.642 116.016,278.076 116.016 L 273.242 116.016 273.242 106.283 C 273.242 100.929,273.308 96.482,273.389 96.400 C 273.670 96.111,284.182 96.424,285.319 96.754 M322.266 103.125 C 322.387 111.518,322.554 112.009,325.350 112.240 C 328.428 112.493,328.780 111.580,328.906 103.027 L 329.004 96.387 331.543 96.387 L 334.082 96.387 334.082 103.516 C 334.082 111.263,334.040 111.626,332.971 113.217 C 331.502 115.405,329.182 116.406,325.586 116.406 C 320.599 116.406,317.873 114.439,317.062 110.254 C 316.780 108.800,316.667 96.680,316.932 96.414 C 317.007 96.339,318.216 96.303,319.618 96.332 L 322.168 96.387 322.266 103.125 M346.875 96.686 C 350.193 97.889,351.563 99.645,351.563 102.696 C 351.563 106.689,349.075 108.764,343.896 109.093 L 341.797 109.226 341.797 112.621 L 341.797 116.016 339.063 116.016 L 336.328 116.016 336.328 106.283 C 336.328 100.929,336.394 96.482,336.475 96.399 C 336.720 96.146,346.101 96.406,346.875 96.686 M142.383 96.580 C 142.383 96.633,142.172 97.226,141.914 97.898 C 141.656 98.571,141.315 99.473,141.155 99.902 L 140.864 100.684 137.278 100.781 L 133.691 100.879 133.636 102.783 L 133.580 104.688 136.516 104.688 C 138.247 104.688,139.453 104.764,139.453 104.874 C 139.453 104.976,139.354 105.306,139.233 105.606 C 138.975 106.248,138.855 106.556,138.280 108.050 L 137.850 109.167 135.771 109.222 L 133.691 109.277 133.594 112.793 L 133.496 116.309 130.371 116.309 L 127.246 116.309 127.195 106.396 L 127.145 96.484 134.764 96.484 C 138.954 96.484,142.383 96.527,142.383 96.580 M150.391 106.450 L 150.391 116.416 147.314 116.362 L 144.238 116.309 144.188 106.396 L 144.137 96.484 147.264 96.484 L 150.391 96.484 150.391 106.450 M169.585 96.603 C 169.651 96.669,169.526 97.174,169.308 97.726 C 169.090 98.279,168.760 99.170,168.574 99.707 L 168.236 100.684 164.587 100.737 L 160.938 100.790 160.938 102.739 L 160.938 104.688 163.867 104.688 C 167.236 104.688,167.051 104.525,166.193 106.738 C 165.149 109.433,165.475 109.180,163.053 109.180 L 160.938 109.180 160.938 112.674 C 160.938 115.681,160.894 116.186,160.629 116.288 C 159.872 116.578,154.733 116.415,154.611 116.097 C 154.448 115.674,154.460 96.777,154.622 96.615 C 154.785 96.452,169.422 96.441,169.585 96.603 M179.832 96.924 C 180.100 97.486,180.621 98.874,180.985 100.000 C 181.142 100.483,181.347 101.055,181.442 101.270 C 181.537 101.484,181.890 102.451,182.228 103.418 C 182.936 105.449,183.560 107.155,183.798 107.715 C 183.890 107.930,184.095 108.501,184.255 108.984 C 184.414 109.468,184.819 110.610,185.155 111.523 C 186.268 114.552,186.719 115.886,186.719 116.147 C 186.719 116.433,181.148 116.535,180.754 116.257 C 180.642 116.178,180.435 115.718,180.295 115.234 C 179.841 113.668,180.113 113.770,176.368 113.770 L 172.994 113.770 172.573 115.039 L 172.152 116.309 169.230 116.309 L 166.309 116.309 166.358 115.820 C 166.385 115.552,166.490 115.156,166.592 114.941 C 166.694 114.727,166.908 114.155,167.067 113.672 C 167.227 113.188,167.634 112.046,167.973 111.133 C 168.312 110.220,168.659 109.253,168.744 108.984 C 168.917 108.441,169.477 106.950,169.735 106.348 C 169.827 106.133,170.030 105.562,170.187 105.078 C 170.343 104.595,170.620 103.804,170.801 103.320 C 171.306 101.977,171.785 100.661,172.472 98.730 C 173.334 96.307,173.012 96.484,176.553 96.484 C 179.543 96.484,179.627 96.496,179.832 96.924 M225.183 100.442 C 222.258 102.414,222.140 109.705,225.004 111.600 C 228.899 114.178,232.713 109.528,231.358 103.855 C 230.568 100.551,227.521 98.867,225.183 100.442 M244.141 102.148 L 244.141 104.297 245.908 104.297 C 248.466 104.297,249.219 103.819,249.219 102.195 C 249.219 100.865,247.635 100.008,245.166 100.002 L 244.141 100.000 244.141 102.148 M341.840 102.686 L 341.895 105.371 342.480 105.438 C 344.605 105.683,346.094 104.573,346.094 102.746 C 346.094 100.902,345.025 100.000,342.842 100.000 L 341.786 100.000 341.840 102.686 M278.662 100.303 C 278.582 100.387,278.516 103.078,278.516 106.283 L 278.516 112.109 279.971 112.109 C 284.504 112.109,286.417 110.372,286.421 106.250 C 286.423 103.235,285.664 101.821,283.497 100.802 C 282.585 100.374,278.953 99.998,278.662 100.303 M176.302 102.344 C 176.248 102.505,176.020 103.252,175.796 104.004 C 174.849 107.184,174.557 108.130,174.393 108.554 C 173.934 109.738,174.012 109.784,176.416 109.723 C 179.008 109.658,178.898 109.946,177.734 106.250 C 177.548 105.659,177.286 104.780,177.151 104.297 C 176.717 102.738,176.409 102.030,176.302 102.344 M153.125 122.154 C 158.483 123.475,161.297 126.876,161.321 132.061 C 161.341 136.222,158.429 140.056,153.760 142.016 C 152.957 142.353,152.964 142.413,153.857 142.819 C 154.260 143.003,155.161 143.473,155.859 143.863 C 156.558 144.254,158.140 145.103,159.375 145.750 C 163.393 147.856,164.027 148.551,164.582 151.464 C 165.157 154.479,165.002 154.733,163.164 153.783 C 159.342 151.807,155.573 149.848,154.004 149.022 C 153.037 148.514,151.279 147.590,150.098 146.971 C 145.450 144.533,143.560 143.299,141.823 141.570 C 139.525 139.283,138.485 137.290,138.118 134.473 C 137.877 132.616,138.322 129.289,138.901 128.623 C 138.990 128.521,139.063 128.318,139.063 128.173 C 139.063 127.174,141.813 124.290,143.751 123.258 C 146.150 121.979,150.390 121.479,153.125 122.154 M193.096 125.537 L 193.066 128.418 196.553 128.471 L 200.040 128.525 199.895 129.057 C 199.815 129.350,199.679 129.941,199.592 130.371 C 199.065 132.989,199.334 132.813,195.875 132.813 L 192.969 132.813 192.969 136.628 C 192.969 142.670,191.904 142.206,205.611 142.140 C 214.436 142.098,216.104 142.047,216.056 141.819 C 215.895 141.065,216.025 136.266,216.229 135.432 C 217.225 131.354,219.585 129.239,224.164 128.318 C 225.405 128.069,232.301 128.152,233.447 128.431 L 233.984 128.561 233.984 137.626 L 233.984 146.691 231.396 146.637 L 228.809 146.582 228.711 142.919 C 228.610 139.152,228.478 138.648,227.942 139.993 C 226.954 142.468,224.693 145.327,223.094 146.122 L 222.168 146.582 207.227 146.582 L 192.285 146.582 190.978 145.943 C 188.114 144.542,187.652 143.404,187.509 137.402 L 187.402 132.910 185.666 132.853 L 183.930 132.796 184.059 131.245 C 184.298 128.380,184.191 128.540,185.912 128.475 L 187.402 128.418 187.454 127.148 C 187.518 125.587,188.365 124.678,190.918 123.431 C 193.260 122.287,193.130 122.161,193.096 125.537 M263.574 123.337 C 269.495 123.938,272.213 129.712,269.073 135.018 C 267.749 137.254,264.169 139.552,259.180 141.369 C 258.589 141.584,257.930 141.834,257.715 141.925 C 257.489 142.020,260.243 142.112,264.234 142.141 L 271.143 142.193 271.029 143.118 C 270.886 144.282,270.621 145.448,270.342 146.143 L 270.127 146.680 261.535 146.680 L 252.943 146.680 252.714 146.251 C 252.588 146.015,252.475 145.169,252.463 144.371 L 252.441 142.920 254.590 141.613 C 256.554 140.418,258.100 139.453,259.063 138.819 C 266.928 133.641,266.939 127.091,259.082 127.642 C 257.259 127.770,257.027 127.817,254.830 128.508 C 252.940 129.104,252.960 129.155,253.986 126.319 C 254.550 124.760,254.813 124.478,256.152 123.998 C 257.333 123.574,261.009 123.036,261.914 123.154 C 262.183 123.189,262.930 123.271,263.574 123.337 M289.063 123.920 C 298.808 127.647,298.155 140.724,287.963 145.961 C 280.640 149.723,270.902 139.646,273.275 130.762 C 274.862 124.820,282.623 121.456,289.063 123.920 M309.570 123.627 C 313.432 124.948,315.204 127.857,314.571 131.836 C 313.939 135.814,311.060 138.422,304.492 140.965 C 303.364 141.402,302.266 141.833,302.051 141.924 C 301.822 142.021,304.487 142.130,308.496 142.188 L 315.332 142.285 315.286 143.359 C 315.260 143.950,315.084 144.917,314.895 145.508 L 314.551 146.582 305.934 146.633 C 299.154 146.673,297.273 146.631,297.111 146.436 C 296.910 146.193,296.708 143.056,296.884 142.909 C 297.018 142.798,300.627 140.598,301.080 140.352 C 307.317 136.963,310.435 132.484,308.736 129.353 C 307.648 127.346,303.473 127.004,298.960 128.552 C 297.593 129.021,297.536 128.981,297.843 127.789 C 298.682 124.529,299.276 124.048,303.320 123.355 C 304.260 123.194,308.893 123.396,309.570 123.627 M330.397 123.793 C 334.696 125.404,336.289 129.676,334.255 134.142 C 333.156 136.556,329.721 139.117,325.293 140.823 C 325.078 140.906,324.429 141.159,323.851 141.385 C 323.273 141.612,322.679 141.797,322.533 141.797 C 322.386 141.797,322.266 141.885,322.266 141.992 C 322.266 142.119,324.638 142.188,328.992 142.188 C 336.368 142.188,336.097 142.138,335.777 143.424 C 335.665 143.872,335.467 144.678,335.335 145.215 C 334.948 146.795,335.671 146.680,326.143 146.680 L 317.568 146.680 317.378 146.179 C 317.273 145.903,317.188 145.072,317.188 144.333 L 317.188 142.988 318.053 142.392 C 318.529 142.065,318.962 141.797,319.015 141.797 C 319.546 141.797,325.629 137.600,327.197 136.152 C 330.255 133.327,330.443 129.356,327.583 127.985 C 326.118 127.283,321.765 127.616,319.099 128.634 C 317.905 129.090,317.846 128.992,318.349 127.404 C 319.207 124.695,319.401 124.470,321.387 123.868 C 323.815 123.133,328.531 123.094,330.397 123.793 M66.002 124.005 C 66.534 124.752,66.556 125.292,66.041 124.970 C 65.743 124.784,65.566 124.820,65.083 125.164 C 64.757 125.396,64.394 125.586,64.276 125.586 C 63.851 125.586,64.077 125.218,64.761 124.795 C 65.333 124.442,65.438 124.280,65.343 123.901 C 65.184 123.267,65.514 123.319,66.002 124.005 M67.188 126.148 C 67.188 126.350,67.056 126.624,66.895 126.758 C 66.364 127.198,66.557 127.456,67.360 127.379 C 68.772 127.245,68.531 127.988,66.902 128.789 C 66.152 129.159,65.827 128.955,66.429 128.492 L 66.895 128.134 66.162 128.129 C 65.395 128.125,65.244 127.936,65.702 127.557 C 66.264 127.089,66.225 126.578,65.649 126.879 C 64.517 127.469,64.538 126.963,65.674 126.282 C 66.668 125.686,67.188 125.640,67.188 126.148 M148.535 126.390 C 145.507 126.971,143.758 129.192,143.752 132.463 C 143.746 135.644,146.024 138.518,150.528 141.013 L 151.348 141.467 152.258 140.509 C 156.967 135.552,156.444 127.301,151.369 126.488 C 150.992 126.427,150.420 126.338,150.098 126.290 C 149.775 126.241,149.072 126.286,148.535 126.390 M80.015 127.881 C 80.082 128.069,80.348 128.509,80.607 128.860 C 80.866 129.210,81.051 129.675,81.018 129.892 C 80.911 130.583,82.006 131.127,82.572 130.664 C 83.006 130.310,83.008 130.288,82.682 129.604 C 82.339 128.885,82.146 128.758,81.929 129.109 C 81.860 129.221,81.502 128.915,81.127 128.425 C 80.450 127.538,79.779 127.209,80.015 127.881 M282.987 127.710 C 280.006 128.342,278.516 130.530,278.516 134.275 C 278.516 138.972,280.333 142.894,283.258 144.513 C 285.593 145.805,288.458 143.058,290.062 137.988 C 290.541 136.475,290.411 131.897,289.858 130.782 C 288.664 128.375,285.828 127.108,282.987 127.710 M181.496 128.416 C 181.818 128.550,181.837 129.125,181.789 137.570 L 181.738 146.582 179.150 146.637 L 176.563 146.691 176.563 142.779 C 176.563 138.393,176.535 138.321,175.600 140.289 C 171.011 149.951,163.645 149.101,163.679 138.913 C 163.705 130.949,167.216 128.077,176.758 128.212 C 179.175 128.246,181.307 128.338,181.496 128.416 M250.913 129.883 C 251.039 130.796,251.149 132.004,251.157 132.568 L 251.172 133.594 250.302 133.594 C 247.645 133.594,245.288 136.231,244.367 140.234 C 244.256 140.718,244.071 141.526,243.957 142.030 C 243.843 142.534,243.750 143.561,243.750 144.312 C 243.750 145.063,243.664 145.903,243.560 146.179 L 243.369 146.680 240.845 146.680 L 238.321 146.680 238.207 138.623 C 238.144 134.192,238.038 130.102,237.972 129.535 L 237.852 128.504 240.452 128.559 L 243.052 128.613 243.204 129.297 C 243.288 129.673,243.423 131.123,243.505 132.520 C 243.664 135.260,243.813 135.521,244.348 134.000 C 245.384 131.058,246.946 129.221,249.120 128.388 C 250.458 127.876,250.659 128.043,250.913 129.883 M84.766 129.092 C 84.766 129.484,85.230 130.273,85.460 130.273 C 85.847 130.273,85.932 129.766,85.619 129.319 C 85.325 128.900,84.766 128.752,84.766 129.092 M87.891 129.989 C 87.891 130.168,87.752 130.267,87.549 130.233 C 87.326 130.196,87.187 130.320,87.148 130.591 C 87.092 130.979,87.226 131.273,88.314 133.154 C 89.145 134.591,89.453 135.341,89.453 135.928 C 89.453 136.606,89.589 136.673,89.962 136.182 C 90.407 135.596,90.263 135.102,89.262 133.769 C 88.022 132.118,87.828 131.622,88.209 131.078 C 88.751 130.304,90.234 130.839,90.234 131.810 C 90.234 132.303,89.901 132.343,89.301 131.923 C 88.742 131.531,88.737 131.895,89.295 132.414 C 90.426 133.468,91.265 132.121,90.195 130.969 C 90.002 130.761,89.844 130.424,89.844 130.221 C 89.844 129.912,89.748 129.873,89.258 129.980 C 88.889 130.061,88.672 130.031,88.672 129.898 C 88.672 129.782,88.496 129.688,88.281 129.688 C 88.059 129.688,87.891 129.818,87.891 129.989 M83.984 130.552 C 83.984 130.705,84.314 131.109,84.717 131.449 L 85.449 132.066 84.814 131.936 C 84.005 131.769,83.959 132.202,84.675 133.255 C 84.947 133.656,85.117 133.984,85.052 133.984 C 84.887 133.984,84.538 133.607,84.013 132.861 C 83.506 132.140,82.849 131.720,82.609 131.964 C 82.403 132.175,82.721 132.573,83.643 133.262 C 84.045 133.563,84.375 133.932,84.375 134.082 C 84.375 134.232,84.705 134.598,85.107 134.895 C 85.510 135.192,86.115 135.723,86.452 136.077 C 87.098 136.754,87.986 136.936,88.438 136.484 C 88.829 136.093,88.723 134.872,88.260 134.454 C 88.034 134.249,87.683 133.758,87.481 133.361 C 87.279 132.964,86.798 132.399,86.412 132.105 C 86.027 131.811,85.420 131.279,85.063 130.922 C 84.371 130.231,83.984 130.098,83.984 130.552 M71.284 131.946 C 71.179 132.222,71.094 132.522,71.094 132.614 C 71.094 132.705,71.013 132.809,70.914 132.845 C 70.691 132.926,69.216 136.752,68.725 138.525 C 67.773 141.959,67.587 142.725,67.548 143.369 C 67.475 144.589,67.698 144.605,69.032 143.474 C 70.624 142.123,70.936 142.026,71.625 142.664 C 72.499 143.475,73.220 143.084,73.824 141.470 C 74.401 139.929,74.794 139.228,75.008 139.361 C 75.111 139.424,75.195 139.383,75.195 139.269 C 75.195 139.156,75.129 139.062,75.049 139.062 C 74.968 139.062,74.890 138.840,74.874 138.568 C 74.805 137.376,72.129 131.445,71.660 131.445 C 71.558 131.445,71.389 131.671,71.284 131.946 M86.191 132.526 C 86.384 132.791,86.507 133.008,86.465 133.008 C 86.328 133.008,85.547 132.282,85.547 132.155 C 85.547 131.888,85.857 132.067,86.191 132.526 M171.777 132.364 C 169.500 132.669,168.917 134.035,169.327 138.110 C 169.967 144.469,172.753 143.527,175.177 136.133 C 176.579 131.856,176.665 132.219,174.268 132.256 C 173.220 132.272,172.100 132.320,171.777 132.364 M223.926 132.360 C 221.936 132.616,221.482 133.401,221.491 136.570 C 221.506 141.518,222.669 143.364,224.668 141.610 C 225.703 140.701,228.516 134.062,228.516 132.528 C 228.516 132.232,225.719 132.130,223.926 132.360 M286.109 133.514 C 287.810 135.089,287.809 135.012,286.129 136.597 C 284.454 138.177,284.513 138.176,282.929 136.646 C 281.271 135.044,281.307 134.852,283.649 132.856 C 284.601 132.045,284.490 132.015,286.109 133.514 M81.342 133.407 C 81.010 133.945,81.737 134.282,82.556 133.970 L 83.105 133.760 82.617 133.488 C 82.030 133.162,81.514 133.129,81.342 133.407 M82.422 135.156 C 82.422 135.371,82.295 135.547,82.140 135.547 C 81.716 135.547,81.575 135.916,81.866 136.266 C 82.008 136.438,82.097 136.785,82.064 137.039 C 82.030 137.297,82.105 137.500,82.233 137.500 C 82.360 137.500,82.724 137.720,83.043 137.988 C 83.711 138.550,84.217 138.609,84.583 138.169 C 84.865 137.829,84.463 136.911,83.957 136.742 C 83.783 136.684,83.807 136.814,84.032 137.159 C 84.294 137.558,84.310 137.701,84.113 137.865 C 83.262 138.571,82.147 136.826,82.942 136.031 C 83.439 135.534,84.252 135.805,85.511 136.887 C 87.109 138.261,87.409 138.387,88.050 137.960 L 88.574 137.612 87.871 137.494 C 87.133 137.370,86.006 136.772,84.142 135.515 C 82.895 134.675,82.422 134.576,82.422 135.156 M91.842 141.155 C 93.296 143.992,93.751 144.671,94.501 145.127 C 95.171 145.535,96.152 147.419,97.952 151.758 C 98.315 152.631,98.474 153.354,98.464 154.075 C 98.449 155.113,99.291 156.836,99.814 156.836 C 100.220 156.836,100.025 154.380,99.588 153.985 C 99.161 153.600,98.726 152.723,97.876 150.537 C 97.782 150.295,97.167 148.984,96.509 147.623 C 95.674 145.896,95.313 144.919,95.313 144.390 C 95.313 143.416,94.574 142.241,93.018 140.738 C 90.657 138.458,90.491 138.517,91.842 141.155 M88.093 139.507 C 87.492 139.811,87.184 140.793,87.426 141.635 C 87.653 142.427,87.958 142.526,88.243 141.900 C 88.768 140.747,89.969 141.626,90.689 143.690 C 91.575 146.231,92.295 146.940,93.644 146.602 C 94.286 146.440,94.269 146.266,93.572 145.869 C 93.033 145.563,92.871 145.281,91.291 141.897 C 90.868 140.992,89.264 139.256,88.854 139.261 C 88.700 139.262,88.357 139.373,88.093 139.507 M75.305 140.115 C 75.370 140.372,75.327 140.641,75.211 140.713 C 75.095 140.785,75.000 141.011,75.000 141.216 C 75.000 141.420,74.868 141.976,74.707 142.451 C 74.099 144.243,74.110 146.177,74.731 146.460 C 75.102 146.629,75.197 146.753,75.032 146.855 C 74.900 146.937,74.841 147.133,74.902 147.292 C 75.048 147.673,76.120 148.297,76.368 148.144 C 76.475 148.078,76.571 148.139,76.582 148.279 C 76.593 148.420,76.672 148.315,76.758 148.047 C 76.908 147.578,76.915 147.576,76.934 147.998 C 76.944 148.240,77.053 148.438,77.175 148.438 C 77.297 148.438,77.604 148.662,77.858 148.936 C 78.283 149.394,78.320 149.403,78.320 149.045 C 78.320 148.831,78.232 148.602,78.125 148.535 C 78.018 148.469,77.930 148.029,77.930 147.559 C 77.930 147.088,77.842 146.648,77.734 146.582 C 77.627 146.516,77.539 146.251,77.539 145.994 C 77.539 145.737,77.462 145.324,77.369 145.078 C 77.275 144.831,77.093 144.277,76.964 143.848 C 76.255 141.482,74.861 138.347,75.305 140.115 M82.422 144.422 C 82.422 144.792,82.514 145.151,82.627 145.221 C 82.972 145.434,82.709 145.801,82.213 145.801 C 81.516 145.801,81.531 146.346,82.252 147.167 C 82.816 147.809,82.856 147.932,82.628 148.297 C 81.965 149.359,83.629 149.847,86.035 149.297 C 90.406 148.297,92.227 149.194,92.227 152.345 C 92.227 152.988,92.306 153.466,92.402 153.406 C 92.703 153.220,92.602 151.004,92.262 150.332 C 91.409 148.648,90.794 148.387,87.369 148.253 C 84.309 148.133,83.766 147.910,83.491 146.655 C 83.057 144.681,85.452 143.444,86.101 145.306 C 86.325 145.948,86.068 146.484,85.537 146.484 C 85.086 146.484,85.044 146.734,85.440 147.063 C 86.173 147.671,87.030 146.618,86.800 145.392 C 86.544 144.026,84.932 143.277,83.786 143.992 C 83.478 144.185,83.319 144.185,83.010 143.992 C 82.458 143.647,82.422 143.673,82.422 144.422 M87.360 144.371 C 87.646 145.170,87.705 146.043,87.507 146.563 C 87.296 147.118,87.299 147.121,87.738 146.831 C 88.436 146.370,88.453 145.147,87.771 144.525 C 87.399 144.186,87.277 144.140,87.360 144.371 M97.587 144.681 C 97.303 145.141,97.230 146.666,97.459 147.388 C 97.786 148.421,98.647 150.195,98.821 150.195 C 99.217 150.195,99.624 149.390,99.640 148.575 C 99.663 147.431,97.925 144.134,97.587 144.681 M93.749 147.690 C 93.748 148.009,94.914 150.982,95.173 151.318 C 95.493 151.735,97.070 151.580,97.070 151.132 C 97.070 151.025,96.949 150.661,96.800 150.322 C 96.652 149.984,96.425 149.443,96.298 149.121 C 95.897 148.112,93.752 146.907,93.749 147.690 M86.670 150.324 C 86.375 150.480,86.133 150.728,86.133 150.876 C 86.133 151.024,85.869 151.333,85.547 151.563 C 84.869 152.045,84.794 152.344,85.352 152.344 C 85.613 152.344,85.742 152.474,85.742 152.737 C 85.742 153.115,85.770 153.112,86.475 152.647 C 87.583 151.915,88.782 151.563,90.161 151.563 C 91.634 151.563,91.701 151.393,90.541 150.595 C 89.555 149.917,87.691 149.787,86.670 150.324 M100.244 152.677 C 99.736 152.775,99.669 153.031,100.106 153.199 C 100.272 153.263,100.542 153.634,100.705 154.024 L 101.001 154.733 101.443 154.318 C 101.686 154.089,101.954 153.969,102.039 154.051 C 102.189 154.194,101.995 152.982,101.821 152.686 C 101.732 152.534,101.008 152.530,100.244 152.677 M95.172 153.154 C 93.894 153.773,92.619 154.996,92.390 155.822 C 92.112 156.823,92.134 157.039,92.500 156.899 C 92.672 156.833,92.887 156.899,92.978 157.046 C 93.069 157.193,93.170 157.272,93.202 157.221 C 93.235 157.170,93.470 156.715,93.724 156.209 C 94.159 155.345,95.669 153.671,96.366 153.281 C 97.398 152.704,96.334 152.590,95.172 153.154 M96.914 154.983 C 96.067 155.945,95.837 156.649,96.123 157.402 L 96.309 157.890 96.688 157.314 C 96.897 156.997,97.068 156.630,97.069 156.498 C 97.070 156.366,97.290 156.202,97.559 156.135 C 97.996 156.025,98.047 155.913,98.047 155.057 C 98.047 153.878,97.895 153.868,96.914 154.983 M100.977 155.649 C 100.977 155.963,101.976 157.031,102.270 157.031 C 102.840 157.031,102.817 156.397,102.230 155.927 C 101.655 155.466,100.977 155.316,100.977 155.649 M97.776 157.730 C 97.166 158.821,97.170 158.789,97.642 158.789 C 98.122 158.789,98.863 157.858,98.788 157.351 C 98.685 156.655,98.295 156.801,97.776 157.730 M100.781 157.294 C 100.781 158.092,101.682 158.668,102.115 158.146 C 102.272 157.956,102.161 157.764,101.661 157.365 C 100.852 156.720,100.781 156.714,100.781 157.294 M99.225 157.920 C 99.222 158.355,99.123 158.806,99.006 158.923 C 98.657 159.273,99.117 159.386,99.578 159.063 C 100.103 158.695,100.116 158.190,99.616 157.590 L 99.232 157.129 99.225 157.920 M100.586 159.071 C 100.586 159.615,100.916 159.904,101.207 159.613 C 101.339 159.482,101.331 159.281,101.183 159.005 C 100.887 158.452,100.586 158.485,100.586 159.071 M89.969 163.517 C 89.903 163.763,89.848 164.250,89.846 164.600 C 89.845 165.032,89.751 165.234,89.551 165.234 C 89.380 165.234,89.258 165.412,89.258 165.659 C 89.258 166.145,88.645 167.566,88.432 167.573 C 88.353 167.576,88.114 167.236,87.901 166.817 C 87.373 165.783,85.742 165.945,85.742 167.031 C 85.742 167.214,85.794 167.214,85.977 167.031 C 86.942 166.066,87.602 166.984,87.410 169.025 C 87.251 170.726,87.450 170.982,89.079 171.178 C 90.286 171.323,90.391 171.259,90.810 170.117 C 91.254 168.909,91.607 168.184,91.813 168.056 C 92.189 167.824,92.969 168.155,92.969 168.547 C 92.969 169.017,93.282 169.233,93.425 168.861 C 93.787 167.919,92.399 166.957,91.566 167.573 C 90.910 168.058,90.758 167.869,90.716 166.512 C 90.698 165.970,90.628 165.396,90.560 165.234 C 90.491 165.073,90.456 164.555,90.481 164.084 C 90.531 163.160,90.171 162.763,89.969 163.517 M85.582 168.408 C 85.662 168.973,86.579 169.039,86.685 168.487 C 86.741 168.200,86.672 168.153,86.346 168.256 C 86.106 168.332,85.938 168.300,85.938 168.177 C 85.938 168.063,85.843 167.969,85.729 167.969 C 85.614 167.969,85.548 168.167,85.582 168.408 M91.833 169.678 C 91.905 170.305,92.642 170.545,92.848 170.008 C 92.941 169.766,92.893 169.714,92.660 169.803 C 92.450 169.884,92.313 169.795,92.244 169.532 C 92.091 168.945,91.762 169.061,91.833 169.678 M77.477 172.156 C 77.145 172.408,77.176 172.479,77.966 173.273 C 78.544 173.855,78.885 174.413,79.052 175.049 C 79.339 176.144,79.525 176.209,79.844 175.328 C 80.265 174.162,79.566 172.266,78.714 172.266 C 78.510 172.266,78.289 172.178,78.223 172.070 C 78.064 171.813,77.906 171.832,77.477 172.156 M90.420 179.091 C 90.758 179.306,90.356 179.411,88.574 179.576 C 87.289 179.694,87.490 179.358,88.867 179.086 C 89.859 178.890,90.104 178.891,90.420 179.091 " stroke="none" fill="#99232b" fill-rule="evenodd"></path></g></svg>