<svg id="svg" version="1.1" xmlns="http://www.w3.org/2000/svg" xmlns:xlink="http://www.w3.org/1999/xlink" width="400" height="225" viewBox="0, 0, 400,225"><g id="svgg"><path id="path0" d="M79.556 43.630 C 79.107 43.751,78.675 43.916,78.596 43.996 C 78.516 44.075,78.143 44.141,77.767 44.141 C 77.127 44.141,76.425 44.233,73.242 44.734 C 70.438 45.175,67.314 45.957,66.904 46.320 C 66.802 46.410,66.600 46.484,66.454 46.484 C 65.911 46.484,63.860 48.085,62.583 49.506 C 61.798 50.380,60.820 51.225,60.172 51.590 C 56.500 53.656,53.333 57.736,51.170 63.184 C 50.056 65.989,49.632 67.536,49.030 70.980 C 48.766 72.491,48.770 79.283,49.036 81.100 C 49.493 84.220,50.203 87.110,50.968 88.965 C 51.057 89.180,51.264 89.795,51.429 90.332 C 52.006 92.211,52.966 94.837,53.609 96.289 C 55.440 100.430,57.662 104.905,59.474 108.105 C 59.718 108.535,60.378 109.766,60.942 110.840 C 61.506 111.914,62.296 113.364,62.696 114.063 C 63.096 114.761,63.712 115.859,64.065 116.504 C 64.417 117.148,65.339 118.818,66.113 120.215 C 70.827 128.720,70.490 127.925,69.922 129.201 C 69.707 129.684,69.355 130.473,69.141 130.955 C 68.926 131.437,68.750 131.874,68.750 131.927 C 68.750 131.979,68.486 132.597,68.164 133.301 C 67.842 134.004,67.578 134.667,67.578 134.773 C 67.578 134.879,67.500 135.119,67.406 135.305 C 67.174 135.761,66.644 137.061,66.113 138.477 C 65.680 139.631,63.477 146.220,63.272 146.973 C 62.017 151.591,61.805 152.549,61.131 156.618 C 60.647 159.547,60.853 165.102,61.561 168.164 C 62.716 173.167,66.177 177.026,70.996 178.686 C 72.860 179.328,75.802 178.983,76.086 178.089 C 76.217 177.674,76.911 177.344,77.649 177.344 C 77.911 177.344,78.125 177.259,78.125 177.156 C 78.125 177.053,78.491 176.870,78.937 176.749 C 81.500 176.059,81.795 174.693,79.924 172.168 C 78.649 170.446,78.358 168.867,79.389 169.263 C 79.566 169.331,79.689 169.270,79.692 169.113 C 79.704 168.394,80.415 167.860,80.844 168.248 C 81.067 168.450,81.250 168.528,81.250 168.421 C 81.250 168.314,81.470 168.127,81.738 168.004 C 82.172 167.807,82.227 167.826,82.227 168.178 C 82.227 168.395,82.454 168.769,82.733 169.009 C 83.820 169.944,83.147 171.899,81.848 171.581 C 81.218 171.427,80.772 171.002,80.946 170.721 C 81.037 170.574,81.192 170.568,81.443 170.702 C 81.904 170.948,82.373 170.775,82.523 170.302 C 82.879 169.179,81.261 168.666,80.483 169.655 C 79.843 170.469,79.922 170.788,81.355 173.145 C 81.948 174.120,81.963 175.041,81.401 175.954 L 80.966 176.660 81.492 176.318 C 82.506 175.659,82.818 176.595,82.020 177.903 C 81.452 178.834,81.686 178.881,82.710 178.042 C 83.551 177.353,83.824 176.728,83.398 176.465 C 82.728 176.050,83.200 174.807,84.375 173.894 C 85.685 172.877,85.976 172.042,85.107 171.797 L 84.668 171.673 85.129 171.286 C 86.797 169.885,87.471 171.627,86.006 173.554 C 85.065 174.793,85.486 174.943,86.663 173.787 C 87.496 172.969,87.783 173.076,87.305 174.026 C 87.197 174.239,87.021 174.590,86.912 174.805 C 86.804 175.020,86.788 175.195,86.877 175.195 C 87.098 175.195,87.807 174.361,88.155 173.692 C 89.034 172.001,90.771 171.857,90.356 173.509 C 90.243 173.959,90.171 174.003,89.838 173.825 C 89.302 173.538,88.660 174.209,88.173 175.564 C 87.573 177.230,86.869 177.794,85.533 177.677 L 84.444 177.582 83.225 178.928 C 81.875 180.417,82.026 180.727,83.568 179.628 C 85.479 178.266,86.750 178.069,85.986 179.255 L 85.645 179.785 86.133 179.445 C 88.031 178.122,88.305 178.025,90.001 178.075 C 91.748 178.125,92.700 177.814,93.418 176.955 C 94.557 175.594,93.990 174.391,92.691 175.413 C 92.159 175.832,92.044 176.711,92.534 176.611 C 92.812 176.555,92.837 176.745,92.601 177.119 C 92.346 177.520,91.733 177.305,91.450 176.716 C 90.866 175.496,92.272 174.008,93.649 174.388 C 94.159 174.529,94.372 174.508,94.545 174.300 C 94.819 173.969,95.186 174.148,95.036 174.539 C 94.977 174.694,95.036 174.993,95.168 175.204 C 95.367 175.523,95.336 175.729,94.984 176.417 C 93.838 178.656,94.242 179.450,96.061 178.532 C 102.628 175.217,105.539 165.891,103.137 155.859 C 103.021 155.376,102.872 154.693,102.804 154.341 C 102.737 153.989,102.606 153.654,102.513 153.597 C 102.420 153.540,102.344 153.283,102.344 153.027 C 102.344 152.771,102.273 152.519,102.187 152.465 C 102.101 152.412,101.909 151.923,101.761 151.380 C 101.524 150.507,101.172 150.037,101.172 150.591 C 101.172 150.811,100.242 151.220,99.956 151.125 C 99.858 151.092,99.962 150.829,100.188 150.541 C 100.432 150.232,100.717 150.063,100.886 150.127 C 101.043 150.188,101.172 150.134,101.172 150.009 C 101.172 149.547,97.308 141.560,97.026 141.439 C 96.943 141.403,96.875 141.223,96.875 141.038 C 96.875 140.854,96.795 140.620,96.698 140.518 C 96.600 140.416,95.907 139.146,95.156 137.695 C 93.714 134.907,92.887 133.349,92.252 132.227 C 92.039 131.851,91.576 130.998,91.223 130.333 L 90.582 129.123 92.260 125.743 C 94.467 121.298,96.329 117.798,98.628 113.770 C 99.242 112.695,99.877 111.553,100.041 111.230 C 100.345 110.633,101.522 108.536,102.343 107.129 C 103.016 105.976,107.449 97.147,107.982 95.898 C 108.234 95.308,108.571 94.473,108.730 94.043 C 108.890 93.613,109.092 93.086,109.180 92.871 C 109.766 91.431,110.627 88.882,111.126 87.109 C 111.262 86.626,111.442 86.011,111.525 85.742 C 111.609 85.474,111.780 84.727,111.907 84.082 C 112.033 83.438,112.219 82.592,112.318 82.204 C 112.418 81.815,112.500 78.722,112.500 75.329 C 112.500 69.011,112.512 69.144,111.688 66.211 C 111.583 65.835,111.448 65.328,111.389 65.085 C 111.330 64.842,111.204 64.595,111.109 64.536 C 111.015 64.478,110.938 64.302,110.938 64.147 C 110.938 63.991,110.751 63.446,110.524 62.937 C 110.297 62.428,109.977 61.704,109.813 61.328 C 105.994 52.572,102.218 48.029,98.438 47.642 C 96.942 47.489,93.370 46.617,92.871 46.283 C 92.084 45.757,87.992 44.229,85.781 43.637 C 84.555 43.308,80.765 43.304,79.556 43.630 M86.717 47.803 C 86.714 48.005,84.182 48.830,83.588 48.822 C 82.506 48.808,82.140 48.028,83.105 47.796 C 83.754 47.640,86.719 47.645,86.717 47.803 M81.250 49.512 C 81.250 49.723,81.033 49.805,80.469 49.805 C 79.522 49.805,79.473 49.682,80.322 49.437 C 81.212 49.180,81.250 49.183,81.250 49.512 M82.324 49.414 C 82.391 49.521,82.352 49.609,82.238 49.609 C 82.124 49.609,82.031 49.708,82.031 49.827 C 82.031 49.949,82.203 50.001,82.422 49.943 C 82.676 49.877,82.813 49.937,82.813 50.116 C 82.813 50.443,80.764 50.515,80.566 50.195 C 80.495 50.081,80.705 50.000,81.076 50.000 C 81.422 50.000,81.652 49.947,81.587 49.882 C 81.461 49.756,81.841 49.239,82.069 49.226 C 82.143 49.222,82.258 49.307,82.324 49.414 M97.927 53.744 C 100.571 54.494,104.894 59.779,107.085 64.941 C 109.594 70.855,109.619 79.903,107.149 88.122 C 106.495 90.297,104.975 94.106,104.592 94.529 C 104.430 94.708,104.295 94.980,104.293 95.133 C 104.286 95.519,103.707 96.195,103.126 96.494 C 102.857 96.632,102.742 96.780,102.869 96.822 C 102.997 96.865,102.759 97.207,102.331 97.593 C 101.908 97.975,101.560 98.387,101.557 98.509 C 101.549 98.798,100.454 100.000,100.198 100.000 C 100.089 100.000,100.000 100.189,100.000 100.421 C 100.000 100.653,99.780 101.130,99.512 101.482 C 99.243 101.834,99.023 102.177,99.023 102.244 C 99.023 102.423,97.794 103.516,97.592 103.516 C 97.497 103.516,97.468 103.642,97.527 103.796 C 97.634 104.076,97.018 105.035,96.540 105.332 C 96.402 105.418,95.969 105.989,95.579 106.602 C 95.189 107.214,94.610 107.965,94.292 108.271 C 93.974 108.576,93.595 109.113,93.449 109.463 C 93.302 109.813,92.959 110.246,92.685 110.425 C 92.411 110.604,92.188 110.925,92.188 111.137 C 92.188 111.350,92.102 111.523,91.997 111.523 C 91.893 111.523,91.664 111.809,91.489 112.158 C 91.314 112.507,90.965 113.013,90.713 113.281 C 89.025 115.078,88.478 115.770,88.471 116.113 C 88.464 116.487,88.448 116.485,88.097 116.064 C 87.895 115.823,87.637 115.625,87.524 115.625 C 87.281 115.625,87.465 115.054,87.826 114.688 C 87.963 114.549,88.166 114.098,88.277 113.686 C 88.389 113.273,88.611 112.827,88.771 112.694 C 88.931 112.561,89.063 112.331,89.063 112.182 C 89.063 112.034,89.444 111.363,89.911 110.692 C 90.378 110.022,91.001 109.033,91.296 108.496 C 91.591 107.959,91.913 107.436,92.010 107.334 C 92.108 107.232,92.188 107.034,92.188 106.894 C 92.188 106.753,92.407 106.183,92.676 105.627 C 92.944 105.070,93.164 104.496,93.164 104.352 C 93.164 104.207,93.296 104.039,93.457 103.977 C 93.618 103.915,93.750 103.707,93.750 103.516 C 93.750 103.324,93.872 103.120,94.021 103.063 C 94.171 103.005,94.446 102.557,94.634 102.065 C 94.821 101.574,95.051 101.172,95.144 101.172 C 95.237 101.172,95.313 101.008,95.313 100.809 C 95.313 100.609,95.576 99.952,95.898 99.348 C 96.230 98.725,96.484 97.952,96.484 97.562 C 96.484 97.184,96.572 96.875,96.680 96.875 C 96.787 96.875,96.875 96.739,96.875 96.572 C 96.875 96.406,97.011 96.007,97.176 95.687 C 97.352 95.347,97.512 94.396,97.561 93.402 C 97.683 90.940,97.963 88.852,98.257 88.218 C 98.465 87.770,98.466 87.638,98.262 87.512 C 98.081 87.400,98.066 87.254,98.207 86.989 C 98.783 85.911,99.226 83.223,99.240 80.713 C 99.249 79.290,99.331 78.125,99.424 78.125 C 99.920 78.125,99.407 73.025,98.688 70.801 C 98.139 69.106,96.820 67.312,96.255 67.491 C 96.059 67.554,95.898 67.516,95.898 67.408 C 95.898 66.530,91.400 61.791,89.817 61.000 C 86.107 59.147,84.765 59.035,86.719 60.742 C 87.998 61.860,88.013 62.182,86.768 61.814 C 85.108 61.322,81.223 60.835,79.785 60.938 C 78.041 61.062,78.726 61.298,81.207 61.427 C 84.803 61.615,86.358 62.114,87.545 63.463 C 88.808 64.897,89.063 65.242,89.063 65.517 C 89.063 66.003,88.665 66.067,88.295 65.641 C 87.247 64.432,83.028 62.366,81.983 62.550 C 81.557 62.625,81.555 62.633,81.934 62.808 C 85.976 64.674,88.614 68.072,89.654 72.754 C 90.411 76.161,90.000 83.913,88.856 87.793 C 88.761 88.115,88.505 88.994,88.286 89.746 C 87.425 92.710,86.052 97.046,85.750 97.754 C 85.659 97.969,85.297 98.892,84.946 99.805 C 84.595 100.718,84.112 101.904,83.873 102.441 C 83.634 102.979,83.293 103.770,83.115 104.199 C 82.484 105.724,79.832 110.352,79.589 110.352 C 79.453 110.352,79.292 110.198,79.231 110.010 C 79.169 109.822,78.905 109.316,78.644 108.887 C 76.245 104.937,75.262 103.295,74.872 102.588 C 74.620 102.131,74.180 101.340,73.893 100.830 C 72.928 99.110,70.313 93.932,70.313 93.740 C 70.313 93.636,70.126 93.134,69.899 92.625 C 69.672 92.116,69.372 91.436,69.232 91.113 C 68.863 90.261,68.159 88.291,67.940 87.500 C 67.836 87.124,67.663 86.509,67.554 86.133 C 65.455 78.859,65.573 72.488,67.905 67.188 C 69.166 64.321,69.807 63.505,71.337 62.812 C 74.624 61.326,74.377 61.478,73.773 61.312 C 73.112 61.131,72.272 61.353,71.474 61.922 C 70.607 62.539,70.570 62.279,71.355 61.097 C 72.638 59.167,76.632 55.469,77.433 55.469 C 77.494 55.469,77.916 55.301,78.371 55.095 C 80.497 54.137,83.966 54.125,87.066 55.065 C 87.740 55.269,88.663 55.493,89.117 55.561 C 89.570 55.630,90.144 55.786,90.391 55.909 C 90.780 56.102,91.083 56.004,92.637 55.182 C 95.814 53.502,96.457 53.327,97.927 53.744 M61.613 59.050 C 62.138 59.946,62.251 60.547,61.895 60.547 C 61.778 60.547,61.423 60.731,61.107 60.956 C 60.386 61.469,60.081 61.353,59.581 60.372 C 59.083 59.396,59.645 58.584,61.076 58.214 C 61.098 58.208,61.340 58.584,61.613 59.050 M60.402 63.958 C 65.370 66.034,63.872 73.481,58.486 73.481 C 53.170 73.481,51.576 66.457,56.352 64.075 C 57.303 63.601,59.402 63.540,60.402 63.958 M58.484 65.059 C 58.087 65.701,59.220 66.530,60.058 66.211 C 60.896 65.892,60.619 65.468,59.326 65.093 C 58.891 64.967,58.549 64.953,58.484 65.059 M55.684 66.315 C 55.351 66.695,55.078 67.085,55.078 67.183 C 55.078 67.887,56.500 67.413,56.838 66.597 C 57.306 65.467,56.584 65.291,55.684 66.315 M57.471 67.766 C 56.916 68.470,56.918 68.899,57.479 69.600 C 58.461 70.827,60.236 69.687,59.866 68.066 C 59.655 67.143,58.115 66.950,57.471 67.766 M61.349 67.898 C 60.816 68.272,60.836 69.466,61.383 69.804 C 61.852 70.095,62.102 69.683,62.106 68.615 C 62.110 67.649,61.938 67.486,61.349 67.898 M55.078 69.762 C 55.078 70.349,56.094 71.604,56.411 71.408 C 57.048 71.014,56.491 69.648,55.603 69.425 C 55.143 69.310,55.078 69.351,55.078 69.762 M58.446 71.319 C 57.984 71.782,58.154 72.266,58.780 72.266 C 59.586 72.266,60.379 71.868,60.309 71.498 C 60.235 71.109,58.795 70.971,58.446 71.319 M58.734 76.858 L 59.462 77.544 58.674 78.332 L 57.885 79.121 57.059 78.396 L 56.232 77.672 56.964 76.922 C 57.856 76.009,57.835 76.010,58.734 76.858 M225.391 96.017 C 219.500 96.700,216.097 102.213,217.488 108.823 C 218.533 113.794,221.891 116.406,227.233 116.406 C 233.522 116.406,237.109 112.684,237.109 106.159 C 237.109 99.023,232.662 95.174,225.391 96.017 M308.008 96.018 C 301.780 96.517,298.318 100.222,298.354 106.348 C 298.397 113.665,304.906 117.932,313.281 116.134 C 315.358 115.688,315.234 115.843,315.234 113.684 C 315.234 111.423,315.269 111.473,313.997 111.867 C 312.226 112.415,308.362 112.321,307.031 111.698 C 302.516 109.584,302.583 102.553,307.139 100.405 C 308.563 99.733,311.097 99.772,312.988 100.493 C 315.122 101.307,315.197 101.231,315.223 98.225 L 315.234 96.938 314.502 96.726 C 312.808 96.238,312.121 96.118,310.547 96.035 C 309.634 95.987,308.491 95.980,308.008 96.018 M189.782 96.416 C 189.656 96.542,189.687 96.766,190.064 98.438 C 190.173 98.921,190.343 99.690,190.443 100.146 C 190.543 100.603,190.707 101.350,190.807 101.807 C 190.907 102.263,191.088 103.076,191.211 103.613 C 191.333 104.150,191.509 104.941,191.602 105.371 C 191.694 105.801,191.864 106.570,191.979 107.080 C 192.093 107.590,192.275 108.403,192.383 108.887 C 192.490 109.370,192.666 110.161,192.773 110.645 C 192.881 111.128,193.057 111.919,193.164 112.402 C 193.663 114.648,193.735 114.975,193.840 115.479 L 193.953 116.016 197.456 116.016 L 200.959 116.016 201.073 115.283 C 201.237 114.227,201.553 112.361,201.758 111.230 C 201.855 110.693,202.027 109.705,202.139 109.033 C 202.606 106.245,202.770 105.329,202.943 104.552 C 203.043 104.102,203.125 103.481,203.125 103.173 C 203.125 102.866,203.250 102.443,203.402 102.235 C 203.723 101.795,203.715 101.772,204.100 104.199 C 204.220 104.951,204.393 105.918,204.485 106.348 C 204.577 106.777,204.754 107.744,204.877 108.496 C 205.001 109.248,205.178 110.259,205.270 110.742 C 205.363 111.226,205.540 112.192,205.664 112.891 C 205.788 113.589,205.979 114.578,206.089 115.088 L 206.289 116.016 209.744 116.016 L 213.198 116.016 213.553 114.404 C 213.747 113.518,213.975 112.485,214.059 112.109 C 214.142 111.733,214.356 110.723,214.534 109.863 C 214.712 109.004,215.040 107.510,215.263 106.543 C 216.465 101.324,216.714 100.215,216.996 98.828 C 217.117 98.237,217.294 97.499,217.390 97.188 C 217.656 96.331,217.543 96.289,214.954 96.289 C 212.129 96.289,212.260 96.196,211.935 98.438 C 211.803 99.351,211.618 100.493,211.523 100.977 C 211.429 101.460,211.256 102.471,211.139 103.223 C 211.021 103.975,210.841 105.029,210.738 105.566 C 210.635 106.104,210.419 107.370,210.256 108.382 C 209.854 110.891,209.651 110.783,209.185 107.813 C 209.058 107.007,208.879 105.996,208.787 105.566 C 208.695 105.137,208.522 104.214,208.403 103.516 C 208.034 101.363,207.804 100.133,207.609 99.265 C 207.506 98.807,207.421 98.279,207.421 98.093 C 207.420 97.906,207.328 97.424,207.216 97.021 L 207.013 96.289 203.710 96.289 L 200.406 96.289 200.219 97.021 C 200.115 97.424,199.931 98.369,199.808 99.121 C 199.686 99.873,199.510 100.884,199.417 101.367 C 199.324 101.851,199.154 102.795,199.038 103.467 C 198.509 106.540,198.140 108.623,197.929 109.717 C 197.798 110.396,197.491 110.237,197.365 109.424 C 197.201 108.368,196.885 106.501,196.680 105.371 C 196.461 104.166,196.177 102.481,195.890 100.684 C 195.771 99.932,195.591 98.999,195.492 98.610 C 195.393 98.222,195.313 97.680,195.313 97.405 C 195.313 96.300,195.285 96.289,192.492 96.289 C 191.071 96.289,189.852 96.346,189.782 96.416 M238.766 96.520 C 238.712 96.662,238.691 101.084,238.719 106.348 L 238.770 115.918 241.406 115.918 L 244.043 115.918 244.096 112.037 L 244.149 108.155 245.227 108.245 C 247.264 108.414,247.757 109.145,249.321 114.307 L 249.839 116.016 252.675 116.016 C 254.861 116.016,255.490 115.960,255.420 115.771 C 255.370 115.637,255.003 114.561,254.604 113.379 C 253.468 110.019,252.611 108.195,251.629 107.048 L 250.942 106.245 251.635 105.955 C 255.525 104.330,255.488 98.729,251.576 96.900 C 250.280 96.294,238.981 95.959,238.766 96.520 M257.422 106.152 L 257.422 116.016 264.160 116.016 L 270.898 116.016 270.898 114.063 L 270.898 112.109 266.895 112.109 L 262.891 112.109 262.891 104.199 L 262.891 96.289 260.156 96.289 L 257.422 96.289 257.422 106.152 M273.389 96.400 C 273.308 96.482,273.242 100.929,273.242 106.283 L 273.242 116.016 278.136 116.016 C 283.815 116.016,285.237 115.797,287.493 114.575 C 290.659 112.859,291.863 110.546,291.876 106.152 C 291.892 100.746,290.066 98.138,285.292 96.747 C 284.180 96.423,273.666 96.116,273.389 96.400 M316.932 96.414 C 316.667 96.680,316.780 108.800,317.062 110.254 C 317.871 114.429,320.566 116.380,325.548 116.399 C 329.170 116.413,331.493 115.417,332.971 113.217 C 334.040 111.626,334.082 111.263,334.082 103.516 L 334.082 96.387 331.543 96.387 L 329.004 96.387 328.896 103.027 C 328.837 106.680,328.714 109.888,328.622 110.156 C 327.718 112.814,324.067 113.111,322.767 110.633 C 322.388 109.910,322.357 109.455,322.266 103.125 L 322.168 96.387 319.618 96.332 C 318.216 96.303,317.007 96.339,316.932 96.414 M336.475 96.399 C 336.394 96.482,336.328 100.929,336.328 106.283 L 336.328 116.016 339.063 116.016 L 341.797 116.016 341.797 112.616 L 341.797 109.217 343.896 109.086 C 349.078 108.762,351.563 106.691,351.563 102.696 C 351.563 99.645,350.193 97.889,346.875 96.686 C 346.101 96.406,336.720 96.146,336.475 96.399 M127.195 106.396 L 127.246 116.309 130.197 116.362 C 133.853 116.429,133.570 116.739,133.638 112.584 L 133.691 109.277 135.777 109.222 L 137.863 109.167 138.202 108.245 C 138.388 107.739,138.746 106.804,138.997 106.167 C 139.248 105.531,139.453 104.938,139.453 104.849 C 139.453 104.760,138.135 104.688,136.523 104.688 L 133.594 104.688 133.594 102.734 L 133.594 100.781 137.213 100.781 C 140.488 100.781,140.843 100.749,140.944 100.439 C 141.005 100.251,141.353 99.328,141.719 98.387 C 142.084 97.447,142.383 96.634,142.383 96.581 C 142.383 96.528,138.954 96.484,134.764 96.484 L 127.145 96.484 127.195 106.396 M144.188 106.396 L 144.238 116.309 147.266 116.309 L 150.293 116.309 150.344 106.396 L 150.394 96.484 147.266 96.484 L 144.137 96.484 144.188 106.396 M154.622 96.615 C 154.460 96.777,154.448 115.674,154.611 116.097 C 154.733 116.415,159.872 116.578,160.629 116.288 C 160.894 116.186,160.938 115.681,160.938 112.674 L 160.938 109.180 163.064 109.180 L 165.191 109.180 165.995 107.178 C 167.086 104.460,167.281 104.688,163.867 104.688 L 160.938 104.688 160.938 102.734 L 160.938 100.781 164.557 100.781 C 167.831 100.781,168.187 100.749,168.287 100.439 C 168.348 100.251,168.688 99.351,169.043 98.438 C 169.398 97.524,169.647 96.711,169.598 96.631 C 169.487 96.450,154.803 96.434,154.622 96.615 M173.287 96.729 C 173.178 96.863,172.953 97.368,172.786 97.852 C 172.454 98.813,172.025 99.999,171.092 102.539 C 170.757 103.452,170.348 104.595,170.185 105.078 C 169.923 105.856,169.166 107.955,167.933 111.328 C 167.717 111.919,167.464 112.578,167.372 112.793 C 166.888 113.917,166.260 116.133,166.388 116.265 C 166.469 116.349,167.799 116.393,169.344 116.363 L 172.153 116.309 172.573 115.039 L 172.994 113.770 176.368 113.770 C 180.113 113.770,179.841 113.668,180.295 115.234 C 180.639 116.420,180.580 116.400,183.746 116.403 C 186.973 116.407,186.934 116.432,186.322 114.728 C 185.639 112.826,185.128 111.449,184.952 111.035 C 184.860 110.820,184.655 110.249,184.495 109.766 C 184.336 109.282,183.928 108.140,183.589 107.227 C 183.250 106.313,182.904 105.347,182.820 105.078 C 182.735 104.810,182.357 103.755,181.979 102.734 C 181.600 101.714,181.012 100.088,180.671 99.121 C 179.638 96.189,180.099 96.484,176.553 96.484 C 174.335 96.484,173.431 96.552,173.287 96.729 M229.280 100.477 C 230.434 101.206,230.875 101.933,231.362 103.906 C 232.742 109.505,228.879 114.167,224.970 111.618 C 222.469 109.987,222.197 103.134,224.547 100.954 C 225.771 99.818,227.896 99.604,229.280 100.477 M247.136 100.222 C 248.567 100.510,249.219 101.125,249.219 102.188 C 249.219 103.774,248.532 104.229,245.993 104.327 L 244.238 104.395 244.183 102.197 L 244.128 100.000 245.078 100.000 C 245.601 100.000,246.527 100.100,247.136 100.222 M344.587 100.288 C 347.717 101.596,345.980 105.841,342.480 105.438 L 341.895 105.371 341.840 102.686 L 341.786 100.000 342.842 100.000 C 343.422 100.000,344.208 100.130,344.587 100.288 M283.498 100.803 C 285.805 101.887,286.949 104.409,286.486 107.386 C 285.995 110.538,284.283 111.856,280.420 112.056 L 278.516 112.155 278.516 106.305 C 278.516 103.088,278.582 100.387,278.662 100.303 C 278.954 99.998,282.585 100.374,283.498 100.803 M177.151 104.297 C 177.286 104.780,177.549 105.659,177.735 106.250 C 178.945 110.081,179.069 109.766,176.356 109.766 C 174.025 109.766,173.941 109.714,174.394 108.554 C 174.490 108.307,174.678 107.710,174.811 107.227 C 174.944 106.743,175.205 105.864,175.391 105.273 C 175.577 104.683,175.844 103.804,175.985 103.320 C 176.126 102.837,176.283 102.362,176.334 102.266 C 176.433 102.077,176.756 102.879,177.151 104.297 M85.746 110.935 C 85.593 111.030,85.391 111.060,85.298 111.002 C 85.204 110.944,85.241 111.079,85.380 111.302 C 85.598 111.650,85.579 111.761,85.248 112.094 C 84.621 112.725,84.375 113.057,84.375 113.273 C 84.375 113.385,84.287 113.477,84.180 113.477 C 84.072 113.477,83.984 113.169,83.984 112.793 C 83.984 112.364,84.079 112.109,84.237 112.109 C 84.376 112.109,84.574 111.826,84.676 111.481 C 84.804 111.052,85.019 110.813,85.352 110.731 C 85.931 110.588,86.136 110.694,85.746 110.935 M146.973 122.091 C 146.650 122.194,146.079 122.369,145.703 122.481 C 142.441 123.451,139.826 125.982,138.560 129.395 C 136.724 134.341,139.083 140.009,144.530 143.738 C 146.597 145.153,146.404 145.046,154.785 149.416 C 160.126 152.200,162.077 153.216,163.261 153.831 C 164.692 154.573,164.848 154.546,164.833 153.553 C 164.779 149.762,163.557 147.887,159.936 146.038 C 158.929 145.524,157.139 144.573,155.957 143.926 C 154.775 143.278,153.655 142.700,153.467 142.640 C 152.931 142.471,153.056 142.320,154.154 141.809 C 164.311 137.076,163.666 124.753,153.125 122.154 C 151.900 121.852,147.859 121.811,146.973 122.091 M191.092 123.362 C 190.328 123.745,189.212 124.444,188.611 124.915 L 187.518 125.773 187.460 127.095 L 187.402 128.418 185.902 128.475 L 184.401 128.532 184.269 129.587 C 184.197 130.167,184.125 131.109,184.110 131.679 L 184.082 132.715 185.742 132.813 L 187.402 132.910 187.509 137.402 C 187.652 143.404,188.114 144.542,190.978 145.943 L 192.285 146.582 207.227 146.582 C 221.181 146.582,222.217 146.559,222.914 146.232 C 224.560 145.460,226.343 143.318,227.673 140.516 C 228.640 138.480,228.696 138.599,228.756 142.822 L 228.809 146.582 231.348 146.582 L 233.887 146.582 233.937 137.572 L 233.988 128.562 233.449 128.434 C 232.284 128.159,225.412 128.067,224.172 128.311 C 218.299 129.466,215.960 132.602,216.027 139.233 L 216.056 142.090 205.614 142.140 C 191.911 142.207,192.969 142.667,192.969 136.640 L 192.969 132.813 195.875 132.813 C 199.174 132.813,199.036 132.878,199.402 131.152 C 199.539 130.508,199.729 129.729,199.823 129.421 C 200.093 128.544,199.984 128.516,196.347 128.516 L 192.912 128.516 193.016 125.586 C 193.137 122.169,193.239 122.287,191.092 123.362 M258.496 123.432 C 255.022 124.006,254.426 124.504,253.585 127.530 C 253.174 129.009,253.194 129.025,254.816 128.514 C 257.068 127.804,257.268 127.763,259.082 127.636 C 266.210 127.141,267.047 133.054,260.516 137.775 C 258.649 139.125,258.606 139.153,254.883 141.428 L 252.441 142.920 252.476 144.396 C 252.536 146.917,251.595 146.680,261.519 146.680 C 266.235 146.680,270.139 146.608,270.193 146.520 C 270.410 146.168,271.094 143.329,271.094 142.777 L 271.094 142.188 264.219 142.188 C 260.438 142.188,257.427 142.116,257.529 142.029 C 257.631 141.942,258.506 141.580,259.473 141.225 C 267.115 138.422,270.299 135.262,270.312 130.469 C 270.322 127.063,268.882 125.088,265.332 123.638 C 264.623 123.349,259.866 123.205,258.496 123.432 M282.031 123.357 C 275.268 124.595,271.614 130.241,273.328 136.805 C 274.951 143.019,281.900 148.173,286.498 146.572 C 295.154 143.558,298.905 132.495,293.273 126.591 C 290.888 124.091,285.887 122.652,282.031 123.357 M303.418 123.357 C 299.670 123.869,298.931 124.389,298.056 127.132 C 297.436 129.076,297.438 129.081,298.828 128.591 C 302.089 127.441,305.903 127.260,307.470 128.181 C 308.750 128.934,309.076 129.616,309.079 131.551 C 309.085 134.684,306.835 136.934,299.023 141.608 C 297.896 142.283,296.932 142.869,296.883 142.910 C 296.721 143.046,296.900 145.970,297.092 146.329 C 297.293 146.705,313.826 146.886,314.404 146.519 C 314.750 146.299,315.238 144.532,315.289 143.317 L 315.332 142.285 308.496 142.188 C 304.279 142.127,301.810 142.024,302.051 141.917 C 302.266 141.822,303.447 141.357,304.676 140.884 C 309.369 139.076,312.579 136.815,313.693 134.531 C 313.866 134.177,314.130 133.632,314.279 133.320 C 314.765 132.306,314.641 128.423,314.087 127.297 C 312.563 124.203,308.421 122.673,303.418 123.357 M323.535 123.368 C 320.212 123.737,319.281 124.462,318.349 127.404 C 317.846 128.992,317.905 129.090,319.099 128.634 C 325.504 126.188,330.607 128.084,329.496 132.498 C 328.798 135.275,326.428 137.391,319.043 141.833 L 317.285 142.891 317.285 144.443 C 317.285 146.933,316.293 146.680,326.031 146.680 C 335.498 146.680,334.963 146.764,335.338 145.215 C 335.468 144.678,335.665 143.872,335.777 143.424 C 336.097 142.138,336.368 142.188,328.992 142.188 C 324.638 142.188,322.266 142.119,322.266 141.992 C 322.266 141.885,322.386 141.797,322.533 141.797 C 322.679 141.797,323.273 141.612,323.851 141.385 C 324.429 141.159,325.078 140.906,325.293 140.823 C 332.696 137.971,336.077 133.695,334.882 128.698 C 333.889 124.546,329.878 122.662,323.535 123.368 M65.497 123.787 C 65.573 124.142,65.434 124.340,64.828 124.741 C 64.123 125.207,63.847 125.586,64.212 125.586 C 64.295 125.586,64.685 125.366,65.080 125.098 C 65.505 124.810,65.847 124.690,65.918 124.805 C 65.985 124.912,66.121 125.000,66.222 125.000 C 66.555 125.000,66.413 124.522,65.903 123.926 C 65.445 123.391,65.410 123.379,65.497 123.787 M65.670 126.284 C 64.748 126.837,64.714 127.326,65.631 126.852 C 66.256 126.529,66.285 126.861,65.693 127.555 C 65.355 127.950,65.536 128.123,66.292 128.131 C 66.835 128.137,66.861 128.163,66.553 128.397 C 66.104 128.738,66.105 129.132,66.554 128.949 C 68.233 128.263,68.770 127.245,67.383 127.377 C 66.543 127.457,66.370 127.213,66.895 126.688 C 67.777 125.806,66.933 125.527,65.670 126.284 M151.010 126.402 C 156.492 127.611,157.168 135.349,152.248 140.558 L 151.374 141.482 150.541 141.020 C 145.079 137.990,142.846 134.341,144.042 130.399 C 144.725 128.147,146.101 126.895,148.438 126.400 C 149.658 126.141,149.832 126.141,151.010 126.402 M82.046 129.009 C 82.650 128.777,83.130 130.277,82.583 130.690 C 82.002 131.128,80.922 130.569,81.006 129.872 C 81.033 129.649,80.848 129.186,80.595 128.844 C 79.545 127.423,79.838 126.921,80.962 128.217 C 81.476 128.810,81.851 129.084,82.046 129.009 M287.242 128.162 C 287.737 128.395,288.422 128.864,288.763 129.206 C 292.189 132.631,290.002 142.714,285.418 144.629 C 281.477 146.276,276.838 136.721,278.902 131.208 C 280.080 128.062,283.990 126.633,287.242 128.162 M171.289 128.405 C 166.147 129.627,163.700 132.960,163.679 138.770 C 163.660 144.022,165.324 146.873,168.410 146.874 C 171.265 146.876,173.411 144.911,175.601 140.289 C 176.534 138.320,176.563 138.393,176.563 142.779 L 176.563 146.691 179.150 146.637 L 181.738 146.582 181.789 137.572 L 181.840 128.562 181.398 128.428 C 180.504 128.155,172.417 128.137,171.289 128.405 M248.496 128.718 C 246.632 129.629,245.282 131.348,244.348 134.000 C 243.801 135.553,243.666 135.258,243.443 132.020 C 243.180 128.198,243.457 128.516,240.391 128.516 L 237.836 128.516 237.986 129.639 C 238.068 130.256,238.191 134.321,238.257 138.672 L 238.379 146.582 240.804 146.637 C 243.658 146.702,243.524 146.788,243.660 144.815 C 244.142 137.835,246.655 133.594,250.309 133.594 L 251.172 133.594 251.157 132.568 C 251.096 128.331,250.640 127.670,248.496 128.718 M85.619 129.269 C 85.967 129.653,85.868 130.273,85.460 130.273 C 85.230 130.273,84.766 129.484,84.766 129.092 C 84.766 128.780,85.271 128.885,85.619 129.269 M88.672 129.898 C 88.672 130.031,88.889 130.061,89.258 129.980 C 89.753 129.872,89.844 129.911,89.844 130.234 C 89.844 130.444,89.985 130.733,90.157 130.876 C 90.636 131.274,90.851 132.000,90.618 132.435 C 90.357 132.923,89.833 132.915,89.295 132.414 C 88.716 131.875,88.752 131.556,89.347 131.946 C 90.204 132.507,90.606 131.716,89.814 131.029 C 88.068 129.514,87.569 131.476,89.156 133.616 C 90.258 135.100,90.411 135.590,89.962 136.182 C 89.589 136.673,89.453 136.606,89.453 135.928 C 89.453 135.207,89.110 134.476,87.512 131.795 C 87.010 130.953,87.029 130.146,87.549 130.233 C 87.752 130.267,87.891 130.168,87.891 129.989 C 87.891 129.818,88.059 129.688,88.281 129.688 C 88.496 129.688,88.672 129.782,88.672 129.898 M85.306 131.152 C 85.803 131.636,86.307 132.031,86.425 132.031 C 86.543 132.031,86.973 132.554,87.380 133.194 C 87.788 133.833,88.245 134.459,88.396 134.585 C 88.733 134.864,88.761 136.161,88.438 136.484 C 88.011 136.911,86.979 136.765,86.547 136.216 C 86.329 135.940,85.792 135.453,85.354 135.135 C 84.915 134.817,84.477 134.351,84.381 134.098 C 84.285 133.846,83.915 133.435,83.558 133.184 C 82.805 132.655,82.418 132.196,82.548 131.985 C 82.713 131.718,82.983 131.826,83.684 132.441 L 84.373 133.046 84.246 132.412 C 84.124 131.804,84.140 131.784,84.638 131.909 C 85.310 132.077,85.293 131.925,84.570 131.318 C 83.991 130.830,83.790 130.273,84.193 130.273 C 84.308 130.273,84.809 130.669,85.306 131.152 M73.022 133.660 C 73.558 134.754,74.281 136.497,74.628 137.534 L 75.260 139.418 74.767 140.003 C 74.496 140.325,74.219 140.935,74.151 141.359 C 74.080 141.804,73.781 142.410,73.443 142.793 C 73.121 143.158,72.856 143.523,72.855 143.604 C 72.847 143.949,71.997 143.709,71.645 143.262 C 70.971 142.405,69.730 142.842,68.337 144.429 C 67.618 145.248,67.188 145.318,67.188 144.615 C 67.188 143.700,68.957 137.128,69.735 135.156 C 69.968 134.565,70.154 133.926,70.150 133.736 C 70.145 133.546,70.223 133.441,70.324 133.503 C 70.495 133.609,70.604 133.159,70.515 132.715 C 70.493 132.607,70.543 132.587,70.626 132.670 C 70.708 132.753,70.941 132.461,71.142 132.021 C 71.619 130.980,71.778 131.119,73.022 133.660 M85.547 132.143 C 85.547 132.289,86.072 132.813,86.218 132.813 C 86.280 132.813,86.222 132.637,86.087 132.422 C 85.858 132.055,85.547 131.894,85.547 132.143 M176.172 132.694 C 176.172 134.388,173.440 140.892,172.392 141.690 C 170.625 143.038,169.748 142.052,169.320 138.238 C 168.753 133.182,169.455 132.316,174.170 132.253 C 176.158 132.227,176.172 132.230,176.172 132.694 M228.516 132.537 C 228.516 132.878,227.404 136.419,227.127 136.960 C 227.031 137.147,226.953 137.397,226.953 137.517 C 226.953 138.093,225.324 141.034,224.701 141.581 C 222.666 143.367,221.506 141.553,221.491 136.563 C 221.480 132.670,221.891 132.310,226.416 132.253 C 228.215 132.230,228.516 132.271,228.516 132.537 M283.649 132.861 C 281.314 134.867,281.285 135.020,282.926 136.630 C 284.506 138.179,284.452 138.179,286.129 136.597 C 287.809 135.012,287.810 135.089,286.109 133.514 C 284.489 132.015,284.601 132.044,283.649 132.861 M82.601 133.479 L 83.073 133.740 82.632 133.977 C 82.116 134.253,81.250 134.092,81.250 133.720 C 81.250 133.149,81.822 133.047,82.601 133.479 M84.375 133.315 C 84.375 133.461,84.900 133.984,85.046 133.984 C 85.109 133.984,85.050 133.809,84.916 133.594 C 84.687 133.227,84.375 133.066,84.375 133.315 M83.917 135.352 C 84.395 135.674,84.869 135.938,84.971 135.938 C 85.073 135.938,85.156 136.005,85.156 136.088 C 85.156 136.354,87.435 137.500,87.964 137.500 C 88.615 137.500,88.622 137.762,87.979 138.055 C 87.357 138.338,86.787 138.072,85.458 136.878 C 84.394 135.922,83.884 135.676,83.280 135.828 C 82.469 136.031,82.558 137.441,83.410 137.897 C 84.017 138.222,84.321 137.868,84.014 137.195 C 83.701 136.506,84.158 136.637,84.561 137.351 C 85.143 138.383,83.870 138.906,83.008 137.988 C 82.756 137.720,82.433 137.500,82.290 137.500 C 82.137 137.500,82.031 137.277,82.031 136.953 C 82.031 136.652,81.933 136.308,81.814 136.189 C 81.553 135.928,81.747 135.547,82.140 135.547 C 82.295 135.547,82.422 135.371,82.422 135.156 C 82.422 134.604,82.902 134.666,83.917 135.352 M93.447 135.642 C 94.046 136.010,94.144 136.139,93.886 136.222 C 93.704 136.280,93.423 136.369,93.262 136.420 C 92.454 136.672,93.183 138.184,94.646 139.288 C 96.235 140.488,96.903 141.548,96.903 142.874 C 96.903 144.589,96.563 144.752,96.088 143.267 C 95.914 142.724,95.244 141.880,93.867 140.469 C 91.681 138.229,91.018 137.292,91.017 136.441 C 91.014 135.174,92.102 134.816,93.447 135.642 M92.941 140.629 C 94.680 142.304,95.313 143.337,95.313 144.501 C 95.313 145.037,95.383 145.505,95.469 145.540 C 95.699 145.635,97.312 149.031,98.246 151.384 C 98.690 152.503,99.266 153.643,99.527 153.917 C 100.023 154.440,100.252 156.836,99.806 156.836 C 99.246 156.836,98.444 155.219,98.462 154.126 C 98.474 153.346,98.327 152.659,97.952 151.758 C 96.186 147.503,95.156 145.526,94.498 145.126 C 93.745 144.667,93.181 143.825,91.805 141.097 C 90.523 138.556,90.708 138.479,92.941 140.629 M90.026 140.188 C 90.902 141.101,91.316 141.801,92.251 143.945 C 92.719 145.020,93.433 145.940,93.959 146.148 C 94.349 146.303,93.821 146.673,93.203 146.677 C 91.971 146.685,91.481 146.125,90.711 143.830 C 89.976 141.640,88.787 140.707,88.246 141.895 C 87.813 142.844,87.178 141.913,87.381 140.625 C 87.625 139.068,88.771 138.879,90.026 140.188 M75.586 139.905 C 75.586 140.046,75.762 140.525,75.977 140.970 C 76.191 141.414,76.367 141.909,76.367 142.069 C 76.367 142.229,76.455 142.414,76.563 142.480 C 76.670 142.547,76.758 142.811,76.758 143.066 C 76.758 143.322,76.846 143.586,76.953 143.652 C 77.061 143.719,77.148 144.026,77.148 144.336 C 77.148 144.646,77.227 144.947,77.322 145.006 C 77.486 145.108,77.601 145.602,77.860 147.316 C 77.921 147.719,78.050 148.098,78.146 148.157 C 78.242 148.217,78.320 148.750,78.320 149.342 C 78.320 150.457,78.179 150.489,77.612 149.503 C 77.388 149.115,76.857 149.052,76.034 149.316 C 75.680 149.430,75.581 149.365,75.476 148.946 C 75.406 148.666,75.270 148.438,75.174 148.438 C 75.078 148.438,75.000 148.316,75.000 148.167 C 75.000 148.019,74.846 147.857,74.658 147.807 C 73.995 147.632,73.778 146.204,74.130 144.336 C 74.301 143.423,74.461 142.385,74.484 142.029 C 74.508 141.674,74.625 141.322,74.745 141.248 C 74.866 141.173,75.026 140.783,75.101 140.380 C 75.230 139.693,75.586 139.344,75.586 139.905 M86.213 144.239 C 87.351 145.294,86.784 147.895,85.581 147.136 C 85.112 146.841,85.079 146.484,85.521 146.484 C 86.432 146.484,86.314 145.047,85.362 144.537 C 84.430 144.038,83.265 145.199,83.465 146.429 C 83.703 147.894,84.207 148.130,87.358 148.253 C 90.728 148.384,91.398 148.665,92.334 150.339 C 92.624 150.859,92.662 153.245,92.383 153.418 C 92.261 153.493,92.188 153.087,92.188 152.333 C 92.188 149.280,90.269 148.309,86.133 149.269 C 83.636 149.849,81.951 149.382,82.628 148.297 C 82.856 147.932,82.816 147.810,82.262 147.179 C 81.463 146.268,81.427 145.666,82.178 145.745 C 82.577 145.786,82.694 145.726,82.633 145.508 C 82.471 144.930,82.383 143.750,82.502 143.750 C 82.568 143.750,82.792 143.856,82.998 143.985 C 83.282 144.162,83.486 144.165,83.826 143.999 C 84.844 143.502,85.487 143.567,86.213 144.239 M88.323 145.671 C 88.340 146.249,87.841 147.070,87.475 147.070 C 87.386 147.070,87.406 146.830,87.518 146.535 C 87.705 146.043,87.644 145.183,87.364 144.371 C 87.289 144.152,87.426 144.210,87.778 144.548 C 88.120 144.875,88.312 145.270,88.323 145.671 M99.136 146.802 C 99.894 148.288,99.929 149.101,99.264 149.854 C 98.910 150.255,98.438 150.305,98.438 149.941 C 98.438 149.801,98.202 149.213,97.913 148.634 C 97.320 147.443,97.123 145.886,97.457 145.022 L 97.682 144.438 98.054 144.924 C 98.258 145.191,98.745 146.036,99.136 146.802 M95.540 148.073 C 96.254 148.577,97.272 151.120,96.863 151.379 C 95.619 152.166,94.476 150.860,93.801 147.879 C 93.674 147.321,94.627 147.427,95.540 148.073 M90.541 150.595 C 91.681 151.380,91.633 151.562,90.283 151.565 C 88.939 151.567,87.481 151.980,86.482 152.641 C 85.598 153.226,85.556 153.231,85.686 152.734 C 85.764 152.435,85.692 152.344,85.374 152.344 C 84.795 152.344,84.860 152.052,85.547 151.563 C 85.869 151.333,86.133 151.024,86.133 150.876 C 86.133 149.890,89.229 149.693,90.541 150.595 M101.681 152.493 C 102.008 152.711,102.222 154.102,101.929 154.102 C 101.798 154.102,101.538 154.240,101.350 154.410 C 101.034 154.696,100.985 154.666,100.669 154.001 C 100.482 153.607,100.211 153.239,100.067 153.184 C 99.606 153.007,99.784 152.779,100.537 152.579 C 101.496 152.324,101.433 152.329,101.681 152.493 M96.680 152.839 C 96.680 152.896,96.117 153.470,95.428 154.114 C 94.688 154.806,93.990 155.680,93.719 156.252 C 93.286 157.169,92.969 157.489,92.969 157.008 C 92.969 156.887,92.797 156.835,92.580 156.892 C 91.747 157.110,92.168 155.684,93.262 154.582 C 94.436 153.400,96.680 152.255,96.680 152.839 M98.047 155.057 C 98.047 155.913,97.996 156.025,97.559 156.135 C 97.290 156.202,97.070 156.366,97.069 156.498 C 97.066 157.144,96.338 157.879,96.115 157.462 C 95.782 156.839,96.073 155.938,96.916 154.980 C 97.895 153.868,98.047 153.878,98.047 155.057 M102.158 155.767 C 103.021 156.213,102.880 157.228,101.994 156.946 C 101.688 156.849,100.977 155.897,100.977 155.585 C 100.977 155.373,101.574 155.465,102.158 155.767 M98.828 157.217 C 98.828 157.881,98.387 158.599,97.907 158.720 C 97.225 158.891,97.205 158.751,97.768 157.745 C 98.290 156.810,98.828 156.543,98.828 157.217 M101.768 157.431 C 102.316 157.921,102.383 158.059,102.145 158.209 C 101.548 158.587,100.781 158.072,100.781 157.294 C 100.781 156.690,100.967 156.716,101.768 157.431 M100.000 158.356 C 100.000 158.753,99.432 159.375,99.070 159.375 C 98.873 159.375,98.832 159.271,98.936 159.033 C 99.019 158.845,99.127 158.344,99.177 157.919 L 99.267 157.146 99.634 157.599 C 99.835 157.848,100.000 158.188,100.000 158.356 M101.309 159.453 C 101.140 159.958,100.681 159.640,100.631 158.984 L 100.579 158.301 100.980 158.770 C 101.200 159.028,101.348 159.335,101.309 159.453 M90.473 164.230 C 90.437 164.884,90.496 165.234,90.641 165.234 C 90.791 165.234,90.821 165.463,90.733 165.930 C 90.661 166.316,90.704 166.932,90.829 167.312 L 91.056 167.999 91.507 167.575 C 91.847 167.256,92.072 167.189,92.415 167.305 C 92.666 167.391,92.937 167.443,93.018 167.422 C 93.098 167.400,93.164 167.541,93.164 167.734 C 93.164 167.928,93.255 168.177,93.366 168.288 C 93.601 168.523,93.402 169.190,93.144 169.030 C 93.047 168.971,92.969 168.758,92.969 168.556 C 92.969 167.389,91.552 168.066,91.120 169.440 C 90.578 171.162,90.378 171.334,89.092 171.180 C 87.429 170.980,87.257 170.747,87.417 168.907 C 87.587 166.967,86.850 166.038,86.014 167.139 C 85.767 167.464,85.754 167.464,85.748 167.139 C 85.726 165.919,87.316 165.670,87.894 166.804 C 88.269 167.538,88.672 167.693,88.672 167.102 C 88.672 166.961,88.804 166.735,88.965 166.602 C 89.126 166.468,89.258 166.106,89.258 165.796 C 89.258 165.427,89.358 165.234,89.551 165.234 C 89.751 165.234,89.845 165.032,89.846 164.600 C 89.850 163.694,90.053 163.057,90.308 163.148 C 90.442 163.195,90.506 163.617,90.473 164.230 M86.421 168.237 C 86.678 168.138,86.741 168.195,86.687 168.477 C 86.559 169.142,85.655 168.964,85.591 168.262 C 85.543 167.729,85.563 167.707,85.811 168.021 C 85.981 168.237,86.210 168.318,86.421 168.237 M92.586 169.727 C 92.841 169.727,92.920 169.821,92.840 170.030 C 92.684 170.437,91.917 170.309,91.831 169.862 C 91.794 169.667,91.831 169.360,91.912 169.178 C 92.039 168.896,92.072 168.912,92.138 169.287 C 92.186 169.562,92.354 169.727,92.586 169.727 M78.372 172.101 C 78.612 172.225,78.938 172.386,79.095 172.460 C 79.893 172.831,80.250 174.203,79.844 175.328 C 79.525 176.210,79.385 176.148,78.992 174.951 C 78.770 174.277,78.390 173.679,77.882 173.206 C 76.892 172.282,77.233 171.512,78.372 172.101 M89.074 179.050 C 88.704 179.095,88.233 179.250,88.028 179.394 C 87.696 179.626,87.750 179.646,88.504 179.564 C 90.369 179.363,90.755 179.263,90.332 179.092 C 90.117 179.005,89.897 178.942,89.844 178.951 C 89.790 178.961,89.444 179.005,89.074 179.050 " stroke="none" fill="#e1dcdd" fill-rule="evenodd"></path><path id="path1" d="M0.000 112.500 L 0.000 225.000 200.000 225.000 L 400.000 225.000 400.000 112.500 L 400.000 0.000 200.000 0.000 L 0.000 0.000 0.000 112.500 M85.781 43.637 C 87.992 44.229,92.084 45.757,92.871 46.283 C 93.370 46.617,96.942 47.489,98.438 47.642 C 102.218 48.029,105.994 52.572,109.813 61.328 C 109.977 61.704,110.297 62.428,110.524 62.937 C 110.751 63.446,110.938 63.991,110.938 64.147 C 110.938 64.302,111.015 64.478,111.109 64.536 C 111.204 64.595,111.330 64.842,111.389 65.085 C 111.448 65.328,111.583 65.835,111.688 66.211 C 112.512 69.144,112.500 69.011,112.500 75.329 C 112.500 78.722,112.418 81.815,112.318 82.204 C 112.219 82.592,112.033 83.438,111.907 84.082 C 111.780 84.727,111.609 85.474,111.525 85.742 C 111.442 86.011,111.262 86.626,111.126 87.109 C 110.627 88.882,109.766 91.431,109.180 92.871 C 109.092 93.086,108.890 93.613,108.730 94.043 C 108.571 94.473,108.234 95.308,107.982 95.898 C 107.449 97.147,103.016 105.976,102.343 107.129 C 101.522 108.536,100.345 110.633,100.041 111.230 C 99.877 111.553,99.242 112.695,98.628 113.770 C 96.329 117.798,94.467 121.298,92.260 125.743 L 90.582 129.123 91.223 130.333 C 91.576 130.998,92.039 131.851,92.252 132.227 C 92.887 133.349,93.714 134.907,95.156 137.695 C 95.907 139.146,96.600 140.416,96.698 140.518 C 96.795 140.620,96.875 140.854,96.875 141.038 C 96.875 141.223,96.943 141.403,97.026 141.439 C 97.308 141.560,101.172 149.547,101.172 150.009 C 101.172 150.134,101.043 150.188,100.886 150.127 C 100.717 150.063,100.432 150.232,100.188 150.541 C 99.962 150.829,99.858 151.092,99.956 151.125 C 100.242 151.220,101.172 150.811,101.172 150.591 C 101.172 150.037,101.524 150.507,101.761 151.380 C 101.909 151.923,102.101 152.412,102.187 152.465 C 102.273 152.519,102.344 152.771,102.344 153.027 C 102.344 153.283,102.420 153.540,102.513 153.597 C 102.606 153.654,102.737 153.989,102.804 154.341 C 102.872 154.693,103.021 155.376,103.137 155.859 C 105.539 165.891,102.628 175.217,96.061 178.532 C 94.242 179.450,93.838 178.656,94.984 176.417 C 95.336 175.729,95.367 175.523,95.168 175.204 C 95.036 174.993,94.977 174.694,95.036 174.539 C 95.186 174.148,94.819 173.969,94.545 174.300 C 94.372 174.508,94.159 174.529,93.649 174.388 C 92.272 174.008,90.866 175.496,91.450 176.716 C 91.733 177.305,92.346 177.520,92.601 177.119 C 92.837 176.745,92.812 176.555,92.534 176.611 C 92.044 176.711,92.159 175.832,92.691 175.413 C 93.990 174.391,94.557 175.594,93.418 176.955 C 92.700 177.814,91.748 178.125,90.001 178.075 C 88.305 178.025,88.031 178.122,86.133 179.445 L 85.645 179.785 85.986 179.255 C 86.750 178.069,85.479 178.266,83.568 179.628 C 82.026 180.727,81.875 180.417,83.225 178.928 L 84.444 177.582 85.533 177.677 C 86.869 177.794,87.573 177.230,88.173 175.564 C 88.660 174.209,89.302 173.538,89.838 173.825 C 90.171 174.003,90.243 173.959,90.356 173.509 C 90.771 171.857,89.034 172.001,88.155 173.692 C 87.807 174.361,87.098 175.195,86.877 175.195 C 86.788 175.195,86.804 175.020,86.912 174.805 C 87.021 174.590,87.197 174.239,87.305 174.026 C 87.783 173.076,87.496 172.969,86.663 173.787 C 85.486 174.943,85.065 174.793,86.006 173.554 C 87.471 171.627,86.797 169.885,85.129 171.286 L 84.668 171.673 85.107 171.797 C 85.976 172.042,85.685 172.877,84.375 173.894 C 83.200 174.807,82.728 176.050,83.398 176.465 C 83.824 176.728,83.551 177.353,82.710 178.042 C 81.686 178.881,81.452 178.834,82.020 177.903 C 82.818 176.595,82.506 175.659,81.492 176.318 L 80.966 176.660 81.401 175.954 C 81.963 175.041,81.948 174.120,81.355 173.145 C 79.922 170.788,79.843 170.469,80.483 169.655 C 81.261 168.666,82.879 169.179,82.523 170.302 C 82.373 170.775,81.904 170.948,81.443 170.702 C 81.192 170.568,81.037 170.574,80.946 170.721 C 80.772 171.002,81.218 171.427,81.848 171.581 C 83.147 171.899,83.820 169.944,82.733 169.009 C 82.454 168.769,82.227 168.395,82.227 168.178 C 82.227 167.826,82.172 167.807,81.738 168.004 C 81.470 168.127,81.250 168.314,81.250 168.421 C 81.250 168.528,81.067 168.450,80.844 168.248 C 80.415 167.860,79.704 168.394,79.692 169.113 C 79.689 169.270,79.566 169.331,79.389 169.263 C 78.358 168.867,78.649 170.446,79.924 172.168 C 81.795 174.693,81.500 176.059,78.937 176.749 C 78.491 176.870,78.125 177.053,78.125 177.156 C 78.125 177.259,77.911 177.344,77.649 177.344 C 76.911 177.344,76.217 177.674,76.086 178.089 C 75.802 178.983,72.860 179.328,70.996 178.686 C 66.177 177.026,62.716 173.167,61.561 168.164 C 60.853 165.102,60.647 159.547,61.131 156.618 C 61.805 152.549,62.017 151.591,63.272 146.973 C 63.477 146.220,65.680 139.631,66.113 138.477 C 66.644 137.061,67.174 135.761,67.406 135.305 C 67.500 135.119,67.578 134.879,67.578 134.773 C 67.578 134.667,67.842 134.004,68.164 133.301 C 68.486 132.597,68.750 131.979,68.750 131.927 C 68.750 131.874,68.926 131.437,69.141 130.955 C 69.355 130.473,69.707 129.684,69.922 129.201 C 70.490 127.925,70.827 128.720,66.113 120.215 C 65.339 118.818,64.417 117.148,64.065 116.504 C 63.712 115.859,63.096 114.761,62.696 114.063 C 62.296 113.364,61.506 111.914,60.942 110.840 C 60.378 109.766,59.718 108.535,59.474 108.105 C 57.662 104.905,55.440 100.430,53.609 96.289 C 52.966 94.837,52.006 92.211,51.429 90.332 C 51.264 89.795,51.057 89.180,50.968 88.965 C 50.203 87.110,49.493 84.220,49.036 81.100 C 48.770 79.283,48.766 72.491,49.030 70.980 C 50.636 61.786,54.737 54.649,60.172 51.590 C 60.820 51.225,61.798 50.380,62.583 49.506 C 63.860 48.085,65.911 46.484,66.454 46.484 C 66.600 46.484,66.802 46.410,66.904 46.320 C 67.314 45.957,70.438 45.175,73.242 44.734 C 76.425 44.233,77.127 44.141,77.767 44.141 C 78.143 44.141,78.516 44.075,78.596 43.996 C 79.200 43.391,83.976 43.153,85.781 43.637 M83.105 47.796 C 82.140 48.028,82.506 48.808,83.588 48.822 C 84.182 48.830,86.714 48.005,86.717 47.803 C 86.719 47.645,83.754 47.640,83.105 47.796 M80.322 49.437 C 79.473 49.682,79.522 49.805,80.469 49.805 C 81.033 49.805,81.250 49.723,81.250 49.512 C 81.250 49.183,81.212 49.180,80.322 49.437 M81.701 49.498 C 81.573 49.644,81.522 49.816,81.587 49.882 C 81.652 49.947,81.422 50.000,81.076 50.000 C 80.705 50.000,80.495 50.081,80.566 50.195 C 80.764 50.515,82.813 50.443,82.813 50.116 C 82.813 49.937,82.676 49.877,82.422 49.943 C 82.203 50.001,82.031 49.949,82.031 49.827 C 82.031 49.708,82.124 49.609,82.238 49.609 C 82.352 49.609,82.391 49.521,82.324 49.414 C 82.163 49.154,81.982 49.178,81.701 49.498 M95.313 53.883 C 94.829 54.075,93.625 54.659,92.637 55.182 C 91.083 56.004,90.780 56.102,90.391 55.909 C 90.144 55.786,89.570 55.630,89.117 55.561 C 88.663 55.493,87.740 55.269,87.066 55.065 C 83.966 54.125,80.497 54.137,78.371 55.095 C 77.916 55.301,77.494 55.469,77.433 55.469 C 76.632 55.469,72.638 59.167,71.355 61.097 C 70.570 62.279,70.607 62.539,71.474 61.922 C 72.272 61.353,73.112 61.131,73.773 61.312 C 74.377 61.478,74.624 61.326,71.337 62.812 C 69.807 63.505,69.166 64.321,67.905 67.188 C 65.573 72.488,65.455 78.859,67.554 86.133 C 67.663 86.509,67.836 87.124,67.940 87.500 C 68.159 88.291,68.863 90.261,69.232 91.113 C 69.372 91.436,69.672 92.116,69.899 92.625 C 70.126 93.134,70.313 93.636,70.313 93.740 C 70.313 93.932,72.928 99.110,73.893 100.830 C 74.180 101.340,74.620 102.131,74.872 102.588 C 75.262 103.295,76.245 104.937,78.644 108.887 C 78.905 109.316,79.169 109.822,79.231 110.010 C 79.292 110.198,79.453 110.352,79.589 110.352 C 79.832 110.352,82.484 105.724,83.115 104.199 C 83.293 103.770,83.634 102.979,83.873 102.441 C 84.112 101.904,84.595 100.718,84.946 99.805 C 85.297 98.892,85.659 97.969,85.750 97.754 C 86.052 97.046,87.425 92.710,88.286 89.746 C 88.505 88.994,88.761 88.115,88.856 87.793 C 90.000 83.913,90.411 76.161,89.654 72.754 C 88.614 68.072,85.976 64.674,81.934 62.808 C 81.555 62.633,81.557 62.625,81.983 62.550 C 83.028 62.366,87.247 64.432,88.295 65.641 C 88.665 66.067,89.063 66.003,89.063 65.517 C 89.063 65.363,88.865 65.001,88.623 64.713 C 86.373 62.026,85.530 61.653,81.207 61.427 C 78.726 61.298,78.041 61.062,79.785 60.938 C 81.223 60.835,85.108 61.322,86.768 61.814 C 88.013 62.182,87.998 61.860,86.719 60.742 C 84.765 59.035,86.107 59.147,89.817 61.000 C 91.400 61.791,95.898 66.530,95.898 67.408 C 95.898 67.516,96.059 67.554,96.255 67.491 C 96.820 67.312,98.139 69.106,98.688 70.801 C 99.407 73.025,99.920 78.125,99.424 78.125 C 99.331 78.125,99.249 79.290,99.240 80.713 C 99.226 83.223,98.783 85.911,98.207 86.989 C 98.066 87.254,98.081 87.400,98.262 87.512 C 98.466 87.638,98.465 87.770,98.257 88.218 C 97.963 88.852,97.683 90.940,97.561 93.402 C 97.512 94.396,97.352 95.347,97.176 95.687 C 97.011 96.007,96.875 96.406,96.875 96.572 C 96.875 96.739,96.787 96.875,96.680 96.875 C 96.572 96.875,96.484 97.184,96.484 97.562 C 96.484 97.952,96.230 98.725,95.898 99.348 C 95.576 99.952,95.313 100.609,95.313 100.809 C 95.313 101.008,95.237 101.172,95.144 101.172 C 95.051 101.172,94.821 101.574,94.634 102.065 C 94.446 102.557,94.171 103.005,94.021 103.063 C 93.872 103.120,93.750 103.324,93.750 103.516 C 93.750 103.707,93.618 103.915,93.457 103.977 C 93.296 104.039,93.164 104.207,93.164 104.352 C 93.164 104.496,92.944 105.070,92.676 105.627 C 92.407 106.183,92.188 106.753,92.188 106.894 C 92.188 107.034,92.108 107.232,92.010 107.334 C 91.913 107.436,91.591 107.959,91.296 108.496 C 91.001 109.033,90.378 110.022,89.911 110.692 C 89.444 111.363,89.063 112.034,89.063 112.182 C 89.063 112.331,88.931 112.561,88.771 112.694 C 88.611 112.827,88.389 113.273,88.277 113.686 C 88.166 114.098,87.963 114.549,87.826 114.688 C 87.465 115.054,87.281 115.625,87.524 115.625 C 87.637 115.625,87.895 115.823,88.097 116.064 C 88.448 116.485,88.464 116.487,88.471 116.113 C 88.478 115.770,89.025 115.078,90.713 113.281 C 90.965 113.013,91.314 112.507,91.489 112.158 C 91.664 111.809,91.893 111.523,91.997 111.523 C 92.102 111.523,92.188 111.350,92.188 111.137 C 92.188 110.925,92.411 110.604,92.685 110.425 C 92.959 110.246,93.302 109.813,93.449 109.463 C 93.595 109.113,93.974 108.576,94.292 108.271 C 94.610 107.965,95.189 107.214,95.579 106.602 C 95.969 105.989,96.402 105.418,96.540 105.332 C 97.018 105.035,97.634 104.076,97.527 103.796 C 97.468 103.642,97.497 103.516,97.592 103.516 C 97.794 103.516,99.023 102.423,99.023 102.244 C 99.023 102.177,99.243 101.834,99.512 101.482 C 99.780 101.130,100.000 100.653,100.000 100.421 C 100.000 100.189,100.089 100.000,100.198 100.000 C 100.454 100.000,101.549 98.798,101.557 98.509 C 101.560 98.387,101.908 97.975,102.331 97.593 C 102.759 97.207,102.997 96.865,102.869 96.822 C 102.742 96.780,102.857 96.632,103.126 96.494 C 103.707 96.195,104.286 95.519,104.293 95.133 C 104.295 94.980,104.430 94.708,104.592 94.529 C 104.975 94.106,106.495 90.297,107.149 88.122 C 109.991 78.666,109.513 68.737,105.914 62.500 C 101.895 55.532,98.371 52.668,95.313 53.883 M60.213 58.653 C 59.171 59.197,59.092 59.413,59.581 60.372 C 60.081 61.353,60.386 61.469,61.107 60.956 C 61.423 60.731,61.778 60.547,61.895 60.547 C 62.251 60.547,62.138 59.946,61.613 59.050 C 61.340 58.584,61.098 58.208,61.076 58.214 C 61.053 58.219,60.665 58.417,60.213 58.653 M56.352 64.075 C 51.576 66.457,53.170 73.481,58.486 73.481 C 63.872 73.481,65.370 66.034,60.402 63.958 C 59.402 63.540,57.303 63.601,56.352 64.075 M60.303 65.489 C 60.676 65.770,60.596 66.007,60.058 66.211 C 59.220 66.530,58.087 65.701,58.484 65.059 C 58.602 64.868,59.879 65.170,60.303 65.489 M56.941 65.832 C 57.168 66.199,56.624 67.147,56.050 67.385 C 54.974 67.831,54.800 67.322,55.684 66.315 C 56.299 65.615,56.709 65.457,56.941 65.832 M59.244 67.432 C 59.861 67.715,60.016 68.184,59.804 69.136 C 59.578 70.155,58.151 70.440,57.479 69.600 C 56.422 68.280,57.692 66.720,59.244 67.432 M62.106 68.615 C 62.102 69.683,61.852 70.095,61.383 69.804 C 60.836 69.466,60.816 68.272,61.349 67.898 C 61.938 67.486,62.110 67.649,62.106 68.615 M56.378 69.886 C 56.694 70.301,56.714 71.221,56.411 71.408 C 56.094 71.604,55.078 70.349,55.078 69.762 C 55.078 69.211,55.927 69.293,56.378 69.886 M60.309 71.498 C 60.379 71.868,59.586 72.266,58.780 72.266 C 58.154 72.266,57.984 71.782,58.446 71.319 C 58.795 70.971,60.235 71.109,60.309 71.498 M56.964 76.922 L 56.232 77.672 57.059 78.396 L 57.885 79.121 58.674 78.332 L 59.462 77.544 58.734 76.858 C 57.835 76.010,57.856 76.009,56.964 76.922 M231.330 96.583 C 239.595 99.580,239.138 113.256,230.681 116.000 C 222.615 118.616,215.633 112.023,217.460 103.516 C 218.787 97.338,224.937 94.264,231.330 96.583 M312.988 96.319 C 313.418 96.427,314.099 96.610,314.502 96.726 L 315.234 96.938 315.223 98.225 C 315.197 101.231,315.122 101.307,312.988 100.493 C 311.097 99.772,308.563 99.733,307.139 100.405 C 302.583 102.553,302.516 109.584,307.031 111.698 C 308.362 112.321,312.226 112.415,313.997 111.867 C 315.269 111.473,315.234 111.423,315.234 113.684 C 315.234 115.843,315.358 115.688,313.281 116.134 C 304.906 117.932,298.397 113.665,298.354 106.348 C 298.309 98.764,304.858 94.276,312.988 96.319 M195.194 96.598 C 195.259 96.768,195.313 97.131,195.313 97.405 C 195.313 97.680,195.393 98.222,195.492 98.610 C 195.591 98.999,195.771 99.932,195.890 100.684 C 196.177 102.481,196.461 104.166,196.680 105.371 C 196.885 106.501,197.201 108.368,197.365 109.424 C 197.491 110.237,197.798 110.396,197.929 109.717 C 198.140 108.623,198.509 106.540,199.038 103.467 C 199.154 102.795,199.324 101.851,199.417 101.367 C 199.510 100.884,199.686 99.873,199.808 99.121 C 199.931 98.369,200.115 97.424,200.219 97.021 L 200.406 96.289 203.710 96.289 L 207.013 96.289 207.216 97.021 C 207.328 97.424,207.420 97.906,207.421 98.093 C 207.421 98.279,207.506 98.807,207.609 99.265 C 207.804 100.133,208.034 101.363,208.403 103.516 C 208.522 104.214,208.695 105.137,208.787 105.566 C 208.879 105.996,209.058 107.007,209.185 107.813 C 209.651 110.783,209.854 110.891,210.256 108.382 C 210.419 107.370,210.635 106.104,210.738 105.566 C 210.841 105.029,211.021 103.975,211.139 103.223 C 211.256 102.471,211.429 101.460,211.523 100.977 C 211.618 100.493,211.803 99.351,211.935 98.438 C 212.260 96.196,212.129 96.289,214.954 96.289 C 217.543 96.289,217.656 96.331,217.390 97.188 C 217.294 97.499,217.117 98.237,216.996 98.828 C 216.714 100.215,216.465 101.324,215.263 106.543 C 215.040 107.510,214.712 109.004,214.534 109.863 C 214.356 110.723,214.142 111.733,214.059 112.109 C 213.975 112.485,213.747 113.518,213.553 114.404 L 213.198 116.016 209.744 116.016 L 206.289 116.016 206.089 115.088 C 205.979 114.578,205.788 113.589,205.664 112.891 C 205.540 112.192,205.363 111.226,205.270 110.742 C 205.178 110.259,205.001 109.248,204.877 108.496 C 204.754 107.744,204.577 106.777,204.485 106.348 C 204.393 105.918,204.220 104.951,204.100 104.199 C 203.715 101.772,203.723 101.795,203.402 102.235 C 203.250 102.443,203.125 102.866,203.125 103.173 C 203.125 103.481,203.043 104.102,202.943 104.552 C 202.770 105.329,202.606 106.245,202.139 109.033 C 202.027 109.705,201.855 110.693,201.758 111.230 C 201.553 112.361,201.237 114.227,201.073 115.283 L 200.959 116.016 197.456 116.016 L 193.953 116.016 193.840 115.479 C 193.735 114.975,193.663 114.648,193.164 112.402 C 193.057 111.919,192.881 111.128,192.773 110.645 C 192.666 110.161,192.490 109.370,192.383 108.887 C 192.275 108.403,192.093 107.590,191.979 107.080 C 191.864 106.570,191.694 105.801,191.602 105.371 C 191.509 104.941,191.333 104.150,191.211 103.613 C 191.088 103.076,190.907 102.263,190.807 101.807 C 190.707 101.350,190.543 100.603,190.443 100.146 C 190.343 99.690,190.173 98.921,190.064 98.438 C 189.687 96.766,189.656 96.542,189.782 96.416 C 190.086 96.111,195.072 96.279,195.194 96.598 M251.576 96.900 C 255.488 98.729,255.525 104.330,251.635 105.955 L 250.942 106.245 251.629 107.048 C 252.611 108.195,253.468 110.019,254.604 113.379 C 255.003 114.561,255.370 115.637,255.420 115.771 C 255.490 115.960,254.861 116.016,252.675 116.016 L 249.839 116.016 249.321 114.307 C 247.757 109.145,247.264 108.414,245.227 108.245 L 244.149 108.155 244.096 112.037 L 244.043 115.918 241.406 115.918 L 238.770 115.918 238.719 106.348 C 238.691 101.084,238.712 96.662,238.766 96.520 C 238.981 95.959,250.280 96.294,251.576 96.900 M262.891 104.199 L 262.891 112.109 266.895 112.109 L 270.898 112.109 270.898 114.063 L 270.898 116.016 264.160 116.016 L 257.422 116.016 257.422 106.152 L 257.422 96.289 260.156 96.289 L 262.891 96.289 262.891 104.199 M285.292 96.747 C 290.066 98.138,291.892 100.746,291.876 106.152 C 291.863 110.546,290.659 112.859,287.493 114.575 C 285.237 115.797,283.815 116.016,278.136 116.016 L 273.242 116.016 273.242 106.283 C 273.242 100.929,273.308 96.482,273.389 96.400 C 273.666 96.116,284.180 96.423,285.292 96.747 M322.266 103.125 C 322.357 109.455,322.388 109.910,322.767 110.633 C 324.067 113.111,327.718 112.814,328.622 110.156 C 328.714 109.888,328.837 106.680,328.896 103.027 L 329.004 96.387 331.543 96.387 L 334.082 96.387 334.082 103.516 C 334.082 111.263,334.040 111.626,332.971 113.217 C 331.493 115.417,329.170 116.413,325.548 116.399 C 320.566 116.380,317.871 114.429,317.062 110.254 C 316.780 108.800,316.667 96.680,316.932 96.414 C 317.007 96.339,318.216 96.303,319.618 96.332 L 322.168 96.387 322.266 103.125 M346.875 96.686 C 350.193 97.889,351.563 99.645,351.563 102.696 C 351.563 106.691,349.078 108.762,343.896 109.086 L 341.797 109.217 341.797 112.616 L 341.797 116.016 339.063 116.016 L 336.328 116.016 336.328 106.283 C 336.328 100.929,336.394 96.482,336.475 96.399 C 336.720 96.146,346.101 96.406,346.875 96.686 M142.383 96.581 C 142.383 96.634,142.084 97.447,141.719 98.387 C 141.353 99.328,141.005 100.251,140.944 100.439 C 140.843 100.749,140.488 100.781,137.213 100.781 L 133.594 100.781 133.594 102.734 L 133.594 104.688 136.523 104.688 C 138.135 104.688,139.453 104.760,139.453 104.849 C 139.453 104.938,139.248 105.531,138.997 106.167 C 138.746 106.804,138.388 107.739,138.202 108.245 L 137.863 109.167 135.777 109.222 L 133.691 109.277 133.638 112.584 C 133.570 116.739,133.853 116.429,130.197 116.362 L 127.246 116.309 127.195 106.396 L 127.145 96.484 134.764 96.484 C 138.954 96.484,142.383 96.528,142.383 96.581 M150.344 106.396 L 150.293 116.309 147.266 116.309 L 144.238 116.309 144.188 106.396 L 144.137 96.484 147.266 96.484 L 150.394 96.484 150.344 106.396 M169.598 96.631 C 169.647 96.711,169.398 97.524,169.043 98.438 C 168.688 99.351,168.348 100.251,168.287 100.439 C 168.187 100.749,167.831 100.781,164.557 100.781 L 160.938 100.781 160.938 102.734 L 160.938 104.688 163.867 104.688 C 167.281 104.688,167.086 104.460,165.995 107.178 L 165.191 109.180 163.064 109.180 L 160.938 109.180 160.938 112.674 C 160.938 115.681,160.894 116.186,160.629 116.288 C 159.872 116.578,154.733 116.415,154.611 116.097 C 154.448 115.674,154.460 96.777,154.622 96.615 C 154.803 96.434,169.487 96.450,169.598 96.631 M179.837 96.924 C 179.955 97.166,180.331 98.154,180.671 99.121 C 181.012 100.088,181.600 101.714,181.979 102.734 C 182.357 103.755,182.735 104.810,182.820 105.078 C 182.904 105.347,183.250 106.313,183.589 107.227 C 183.928 108.140,184.336 109.282,184.495 109.766 C 184.655 110.249,184.860 110.820,184.952 111.035 C 185.128 111.449,185.639 112.826,186.322 114.728 C 186.934 116.432,186.973 116.407,183.746 116.403 C 180.580 116.400,180.639 116.420,180.295 115.234 C 179.841 113.668,180.113 113.770,176.368 113.770 L 172.994 113.770 172.573 115.039 L 172.153 116.309 169.344 116.363 C 167.799 116.393,166.469 116.349,166.388 116.265 C 166.260 116.133,166.888 113.917,167.372 112.793 C 167.464 112.578,167.717 111.919,167.933 111.328 C 169.166 107.955,169.923 105.856,170.185 105.078 C 170.348 104.595,170.757 103.452,171.092 102.539 C 172.025 99.999,172.454 98.813,172.786 97.852 C 173.272 96.443,173.159 96.484,176.553 96.484 C 179.541 96.484,179.627 96.496,179.837 96.924 M225.488 100.227 C 221.532 102.410,222.233 111.459,226.417 112.216 C 230.485 112.952,232.949 107.636,230.946 102.441 C 230.187 100.471,227.225 99.269,225.488 100.227 M244.183 102.197 L 244.238 104.395 245.993 104.327 C 248.532 104.229,249.219 103.774,249.219 102.188 C 249.219 100.770,247.761 100.000,245.078 100.000 L 244.128 100.000 244.183 102.197 M341.840 102.686 L 341.895 105.371 342.480 105.438 C 344.605 105.683,346.094 104.573,346.094 102.746 C 346.094 100.902,345.025 100.000,342.842 100.000 L 341.786 100.000 341.840 102.686 M278.662 100.303 C 278.582 100.387,278.516 103.088,278.516 106.305 L 278.516 112.155 280.420 112.056 C 284.283 111.856,285.995 110.538,286.486 107.386 C 286.949 104.409,285.805 101.887,283.498 100.803 C 282.585 100.374,278.954 99.998,278.662 100.303 M176.334 102.266 C 176.283 102.362,176.126 102.837,175.985 103.320 C 175.844 103.804,175.577 104.683,175.391 105.273 C 175.205 105.864,174.944 106.743,174.811 107.227 C 174.678 107.710,174.490 108.307,174.394 108.554 C 173.941 109.714,174.025 109.766,176.356 109.766 C 179.069 109.766,178.945 110.081,177.735 106.250 C 177.549 105.659,177.286 104.780,177.151 104.297 C 176.756 102.879,176.433 102.077,176.334 102.266 M85.352 110.731 C 85.019 110.813,84.804 111.052,84.676 111.481 C 84.574 111.826,84.376 112.109,84.237 112.109 C 84.079 112.109,83.984 112.364,83.984 112.793 C 83.984 113.169,84.072 113.477,84.180 113.477 C 84.287 113.477,84.375 113.385,84.375 113.273 C 84.375 113.057,84.621 112.725,85.248 112.094 C 85.579 111.761,85.598 111.650,85.380 111.302 C 85.241 111.079,85.204 110.944,85.298 111.002 C 85.480 111.115,86.085 110.815,85.932 110.687 C 85.881 110.645,85.620 110.665,85.352 110.731 M153.125 122.154 C 163.666 124.753,164.311 137.076,154.154 141.809 C 153.056 142.320,152.931 142.471,153.467 142.640 C 153.655 142.700,154.775 143.278,155.957 143.926 C 157.139 144.573,158.929 145.524,159.936 146.038 C 163.557 147.887,164.779 149.762,164.833 153.553 C 164.848 154.546,164.692 154.573,163.261 153.831 C 162.077 153.216,160.126 152.200,154.785 149.416 C 146.404 145.046,146.597 145.153,144.530 143.738 C 139.083 140.009,136.724 134.341,138.560 129.395 C 139.826 125.982,142.441 123.451,145.703 122.481 C 146.079 122.369,146.650 122.194,146.973 122.091 C 147.859 121.811,151.900 121.852,153.125 122.154 M193.016 125.586 L 192.912 128.516 196.347 128.516 C 199.984 128.516,200.093 128.544,199.823 129.421 C 199.729 129.729,199.539 130.508,199.402 131.152 C 199.036 132.878,199.174 132.813,195.875 132.813 L 192.969 132.813 192.969 136.640 C 192.969 142.667,191.911 142.207,205.614 142.140 L 216.056 142.090 216.027 139.233 C 215.960 132.602,218.299 129.466,224.172 128.311 C 225.412 128.067,232.284 128.159,233.449 128.434 L 233.988 128.562 233.937 137.572 L 233.887 146.582 231.348 146.582 L 228.809 146.582 228.756 142.822 C 228.696 138.599,228.640 138.480,227.673 140.516 C 226.343 143.318,224.560 145.460,222.914 146.232 C 222.217 146.559,221.181 146.582,207.227 146.582 L 192.285 146.582 190.978 145.943 C 188.114 144.542,187.652 143.404,187.509 137.402 L 187.402 132.910 185.742 132.813 L 184.082 132.715 184.110 131.679 C 184.125 131.109,184.197 130.167,184.269 129.587 L 184.401 128.532 185.902 128.475 L 187.402 128.418 187.460 127.095 L 187.518 125.773 188.611 124.915 C 189.760 124.013,192.257 122.670,192.800 122.661 C 193.087 122.657,193.109 122.960,193.016 125.586 M265.332 123.638 C 268.882 125.088,270.322 127.063,270.312 130.469 C 270.299 135.262,267.115 138.422,259.473 141.225 C 258.506 141.580,257.631 141.942,257.529 142.029 C 257.427 142.116,260.438 142.188,264.219 142.188 L 271.094 142.188 271.094 142.777 C 271.094 143.329,270.410 146.168,270.193 146.520 C 270.139 146.608,266.235 146.680,261.519 146.680 C 251.595 146.680,252.536 146.917,252.476 144.396 L 252.441 142.920 254.883 141.428 C 258.606 139.153,258.649 139.125,260.516 137.775 C 267.047 133.054,266.210 127.141,259.082 127.636 C 257.268 127.763,257.068 127.804,254.816 128.514 C 253.194 129.025,253.174 129.009,253.585 127.530 C 254.329 124.854,254.767 124.349,256.836 123.781 C 258.857 123.226,264.107 123.138,265.332 123.638 M288.926 123.909 C 298.772 127.551,298.197 140.702,287.963 145.961 C 280.608 149.740,270.645 139.271,273.335 130.589 C 274.562 126.626,277.494 124.187,282.031 123.357 C 283.475 123.093,287.617 123.425,288.926 123.909 M310.059 123.831 C 312.046 124.583,313.268 125.634,314.087 127.297 C 314.641 128.423,314.765 132.306,314.279 133.320 C 314.130 133.632,313.866 134.177,313.693 134.531 C 312.579 136.815,309.369 139.076,304.676 140.884 C 303.447 141.357,302.266 141.822,302.051 141.917 C 301.810 142.024,304.279 142.127,308.496 142.188 L 315.332 142.285 315.289 143.317 C 315.238 144.532,314.750 146.299,314.404 146.519 C 313.826 146.886,297.293 146.705,297.092 146.329 C 296.900 145.970,296.721 143.046,296.883 142.910 C 296.932 142.869,297.896 142.283,299.023 141.608 C 306.835 136.934,309.085 134.684,309.079 131.551 C 309.072 127.558,305.051 126.397,298.828 128.591 C 297.438 129.081,297.436 129.076,298.056 127.132 C 298.854 124.629,299.331 124.183,301.758 123.666 C 304.432 123.096,308.320 123.173,310.059 123.831 M330.397 123.793 C 332.884 124.725,334.303 126.276,334.882 128.698 C 336.077 133.695,332.696 137.971,325.293 140.823 C 325.078 140.906,324.429 141.159,323.851 141.385 C 323.273 141.612,322.679 141.797,322.533 141.797 C 322.386 141.797,322.266 141.885,322.266 141.992 C 322.266 142.119,324.638 142.188,328.992 142.188 C 336.368 142.188,336.097 142.138,335.777 143.424 C 335.665 143.872,335.468 144.678,335.338 145.215 C 334.963 146.764,335.498 146.680,326.031 146.680 C 316.293 146.680,317.285 146.933,317.285 144.443 L 317.285 142.891 319.043 141.833 C 326.428 137.391,328.798 135.275,329.496 132.498 C 330.607 128.084,325.504 126.188,319.099 128.634 C 317.905 129.090,317.846 128.992,318.349 127.404 C 319.207 124.695,319.401 124.470,321.387 123.868 C 323.815 123.133,328.531 123.094,330.397 123.793 M66.405 124.756 C 66.406 125.048,66.088 125.080,65.918 124.805 C 65.847 124.690,65.505 124.810,65.080 125.098 C 64.685 125.366,64.295 125.586,64.212 125.586 C 63.847 125.586,64.123 125.207,64.828 124.741 C 65.434 124.340,65.573 124.142,65.497 123.787 C 65.410 123.379,65.445 123.391,65.903 123.926 C 66.179 124.248,66.405 124.622,66.405 124.756 M67.188 126.088 C 67.188 126.257,67.056 126.527,66.895 126.688 C 66.370 127.213,66.543 127.457,67.383 127.377 C 68.770 127.245,68.233 128.263,66.554 128.949 C 66.105 129.132,66.104 128.738,66.553 128.397 C 66.861 128.163,66.835 128.137,66.292 128.131 C 65.536 128.123,65.355 127.950,65.693 127.555 C 66.285 126.861,66.256 126.529,65.631 126.852 C 64.714 127.326,64.748 126.837,65.670 126.284 C 66.621 125.715,67.188 125.641,67.188 126.088 M148.438 126.400 C 146.101 126.895,144.725 128.147,144.042 130.399 C 142.846 134.341,145.079 137.990,150.541 141.020 L 151.374 141.482 152.248 140.558 C 158.145 134.314,155.606 124.881,148.438 126.400 M80.043 127.444 C 79.860 127.627,80.049 128.105,80.595 128.844 C 80.848 129.186,81.033 129.649,81.006 129.872 C 80.922 130.569,82.002 131.128,82.583 130.690 C 83.130 130.277,82.650 128.777,82.046 129.009 C 81.851 129.084,81.476 128.810,80.962 128.217 C 80.529 127.719,80.116 127.371,80.043 127.444 M283.105 127.661 C 279.452 128.201,277.665 132.272,278.788 137.500 C 279.813 142.269,282.962 145.656,285.418 144.629 C 290.002 142.714,292.189 132.631,288.763 129.206 C 287.555 127.998,285.192 127.353,283.105 127.661 M181.398 128.428 L 181.840 128.562 181.789 137.572 L 181.738 146.582 179.150 146.637 L 176.563 146.691 176.563 142.779 C 176.563 138.393,176.534 138.320,175.601 140.289 C 173.019 145.738,169.337 148.244,166.478 146.500 C 163.811 144.874,162.851 139.095,164.414 134.071 C 165.288 131.260,167.724 129.252,171.289 128.405 C 172.417 128.137,180.504 128.155,181.398 128.428 M250.913 129.883 C 251.039 130.796,251.149 132.004,251.157 132.568 L 251.172 133.594 250.309 133.594 C 246.655 133.594,244.142 137.835,243.660 144.815 C 243.524 146.788,243.658 146.702,240.804 146.637 L 238.379 146.582 238.257 138.672 C 238.191 134.321,238.068 130.256,237.986 129.639 L 237.836 128.516 240.391 128.516 C 243.457 128.516,243.180 128.198,243.443 132.020 C 243.666 135.258,243.801 135.553,244.348 134.000 C 245.282 131.348,246.632 129.629,248.496 128.718 C 250.417 127.779,250.637 127.884,250.913 129.883 M84.766 129.092 C 84.766 129.484,85.230 130.273,85.460 130.273 C 85.868 130.273,85.967 129.653,85.619 129.269 C 85.271 128.885,84.766 128.780,84.766 129.092 M87.891 129.989 C 87.891 130.168,87.752 130.267,87.549 130.233 C 87.029 130.146,87.010 130.953,87.512 131.795 C 89.110 134.476,89.453 135.207,89.453 135.928 C 89.453 136.606,89.589 136.673,89.962 136.182 C 90.411 135.590,90.258 135.100,89.156 133.616 C 87.569 131.476,88.068 129.514,89.814 131.029 C 90.606 131.716,90.204 132.507,89.347 131.946 C 88.752 131.556,88.716 131.875,89.295 132.414 C 89.833 132.915,90.357 132.923,90.618 132.435 C 90.851 132.000,90.636 131.274,90.157 130.876 C 89.985 130.733,89.844 130.444,89.844 130.234 C 89.844 129.911,89.753 129.872,89.258 129.980 C 88.889 130.061,88.672 130.031,88.672 129.898 C 88.672 129.782,88.496 129.688,88.281 129.688 C 88.059 129.688,87.891 129.818,87.891 129.989 M83.984 130.549 C 83.984 130.701,84.248 131.047,84.570 131.318 C 85.293 131.925,85.310 132.077,84.638 131.909 C 84.140 131.784,84.124 131.804,84.246 132.412 L 84.373 133.046 83.684 132.441 C 82.983 131.826,82.713 131.718,82.548 131.985 C 82.418 132.196,82.805 132.655,83.558 133.184 C 83.915 133.435,84.285 133.846,84.381 134.098 C 84.477 134.351,84.915 134.817,85.354 135.135 C 85.792 135.453,86.329 135.940,86.547 136.216 C 86.979 136.765,88.011 136.911,88.438 136.484 C 88.761 136.161,88.733 134.864,88.396 134.585 C 88.245 134.459,87.788 133.833,87.380 133.194 C 86.973 132.554,86.543 132.031,86.425 132.031 C 86.307 132.031,85.803 131.636,85.306 131.152 C 84.375 130.247,83.984 130.069,83.984 130.549 M71.142 132.021 C 70.941 132.461,70.708 132.753,70.626 132.670 C 70.543 132.587,70.493 132.607,70.515 132.715 C 70.604 133.159,70.495 133.609,70.324 133.503 C 70.223 133.441,70.145 133.546,70.150 133.736 C 70.154 133.926,69.968 134.565,69.735 135.156 C 68.957 137.128,67.188 143.700,67.188 144.615 C 67.188 145.318,67.618 145.248,68.337 144.429 C 69.730 142.842,70.971 142.405,71.645 143.262 C 71.997 143.709,72.847 143.949,72.855 143.604 C 72.856 143.523,73.121 143.158,73.443 142.793 C 73.781 142.410,74.080 141.804,74.151 141.359 C 74.219 140.935,74.496 140.325,74.767 140.003 L 75.260 139.418 74.628 137.534 C 73.948 135.506,72.219 131.812,71.778 131.446 C 71.562 131.266,71.436 131.379,71.142 132.021 M86.087 132.422 C 86.222 132.637,86.280 132.813,86.218 132.813 C 86.072 132.813,85.547 132.289,85.547 132.143 C 85.547 131.894,85.858 132.055,86.087 132.422 M171.680 132.362 C 169.456 132.737,168.867 134.203,169.320 138.238 C 169.748 142.052,170.625 143.038,172.392 141.690 C 173.440 140.892,176.172 134.388,176.172 132.694 C 176.172 132.229,173.597 132.039,171.680 132.362 M223.828 132.362 C 221.873 132.692,221.482 133.394,221.491 136.563 C 221.506 141.553,222.666 143.367,224.701 141.581 C 225.324 141.034,226.953 138.093,226.953 137.517 C 226.953 137.397,227.031 137.147,227.127 136.960 C 227.404 136.419,228.516 132.878,228.516 132.537 C 228.516 132.232,225.308 132.112,223.828 132.362 M286.109 133.514 C 287.810 135.089,287.809 135.012,286.129 136.597 C 284.452 138.179,284.506 138.179,282.926 136.630 C 281.285 135.020,281.314 134.867,283.649 132.861 C 284.601 132.044,284.489 132.015,286.109 133.514 M81.380 133.333 C 80.852 133.862,81.869 134.385,82.632 133.977 L 83.073 133.740 82.601 133.479 C 82.082 133.191,81.582 133.132,81.380 133.333 M84.916 133.594 C 85.050 133.809,85.109 133.984,85.046 133.984 C 84.900 133.984,84.375 133.461,84.375 133.315 C 84.375 133.066,84.687 133.227,84.916 133.594 M82.422 135.156 C 82.422 135.371,82.295 135.547,82.140 135.547 C 81.747 135.547,81.553 135.928,81.814 136.189 C 81.933 136.308,82.031 136.652,82.031 136.953 C 82.031 137.277,82.137 137.500,82.290 137.500 C 82.433 137.500,82.756 137.720,83.008 137.988 C 83.870 138.906,85.143 138.383,84.561 137.351 C 84.158 136.637,83.701 136.506,84.014 137.195 C 84.321 137.868,84.017 138.222,83.410 137.897 C 82.558 137.441,82.469 136.031,83.280 135.828 C 83.884 135.676,84.394 135.922,85.458 136.878 C 86.787 138.072,87.357 138.338,87.979 138.055 C 88.622 137.762,88.615 137.500,87.964 137.500 C 87.435 137.500,85.156 136.354,85.156 136.088 C 85.156 136.005,85.073 135.938,84.971 135.938 C 84.869 135.938,84.395 135.674,83.917 135.352 C 82.902 134.666,82.422 134.604,82.422 135.156 M91.339 135.513 C 90.488 136.453,91.080 137.613,93.867 140.469 C 95.244 141.880,95.914 142.724,96.088 143.267 C 96.563 144.752,96.903 144.589,96.903 142.874 C 96.903 141.548,96.235 140.488,94.646 139.288 C 93.183 138.184,92.454 136.672,93.262 136.420 C 93.423 136.369,93.704 136.280,93.886 136.222 C 94.144 136.139,94.046 136.010,93.447 135.642 C 92.522 135.074,91.778 135.029,91.339 135.513 M91.805 141.097 C 93.181 143.825,93.745 144.667,94.498 145.126 C 95.156 145.526,96.186 147.503,97.952 151.758 C 98.327 152.659,98.474 153.346,98.462 154.126 C 98.444 155.219,99.246 156.836,99.806 156.836 C 100.252 156.836,100.023 154.440,99.527 153.917 C 99.266 153.643,98.690 152.503,98.246 151.384 C 97.312 149.031,95.699 145.635,95.469 145.540 C 95.383 145.505,95.313 145.037,95.313 144.501 C 95.313 143.337,94.680 142.304,92.941 140.629 C 90.708 138.479,90.523 138.556,91.805 141.097 M87.906 139.600 C 87.404 140.010,87.195 141.106,87.479 141.846 C 87.735 142.512,87.958 142.526,88.246 141.895 C 88.787 140.707,89.976 141.640,90.711 143.830 C 91.481 146.125,91.971 146.685,93.203 146.677 C 93.821 146.673,94.349 146.303,93.959 146.148 C 93.433 145.940,92.719 145.020,92.251 143.945 C 90.591 140.137,89.088 138.634,87.906 139.600 M75.101 140.380 C 75.026 140.783,74.866 141.173,74.745 141.248 C 74.625 141.322,74.508 141.674,74.484 142.029 C 74.461 142.385,74.301 143.423,74.130 144.336 C 73.778 146.204,73.995 147.632,74.658 147.807 C 74.846 147.857,75.000 148.019,75.000 148.167 C 75.000 148.316,75.078 148.438,75.174 148.438 C 75.270 148.438,75.406 148.666,75.476 148.946 C 75.581 149.365,75.680 149.430,76.034 149.316 C 76.857 149.052,77.388 149.115,77.612 149.503 C 78.179 150.489,78.320 150.457,78.320 149.342 C 78.320 148.750,78.242 148.217,78.146 148.157 C 78.050 148.098,77.921 147.719,77.860 147.316 C 77.601 145.602,77.486 145.108,77.322 145.006 C 77.227 144.947,77.148 144.646,77.148 144.336 C 77.148 144.026,77.061 143.719,76.953 143.652 C 76.846 143.586,76.758 143.322,76.758 143.066 C 76.758 142.811,76.670 142.547,76.563 142.480 C 76.455 142.414,76.367 142.229,76.367 142.069 C 76.367 141.909,76.191 141.414,75.977 140.970 C 75.762 140.525,75.586 140.046,75.586 139.905 C 75.586 139.344,75.230 139.693,75.101 140.380 M84.563 143.702 C 84.406 143.744,84.074 143.878,83.826 143.999 C 83.486 144.165,83.282 144.162,82.998 143.985 C 82.792 143.856,82.568 143.750,82.502 143.750 C 82.383 143.750,82.471 144.930,82.633 145.508 C 82.694 145.726,82.577 145.786,82.178 145.745 C 81.427 145.666,81.463 146.268,82.262 147.179 C 82.816 147.810,82.856 147.932,82.628 148.297 C 81.951 149.382,83.636 149.849,86.133 149.269 C 90.269 148.309,92.188 149.280,92.188 152.333 C 92.188 153.087,92.261 153.493,92.383 153.418 C 92.662 153.245,92.624 150.859,92.334 150.339 C 91.398 148.665,90.728 148.384,87.358 148.253 C 84.207 148.130,83.703 147.894,83.465 146.429 C 83.265 145.199,84.430 144.038,85.362 144.537 C 86.314 145.047,86.432 146.484,85.521 146.484 C 85.079 146.484,85.112 146.841,85.581 147.136 C 86.318 147.601,87.043 146.549,86.817 145.342 C 86.620 144.296,85.469 143.458,84.563 143.702 M87.364 144.371 C 87.644 145.183,87.705 146.043,87.518 146.535 C 87.279 147.165,87.490 147.230,87.988 146.680 C 88.504 146.110,88.410 145.153,87.778 144.548 C 87.426 144.210,87.289 144.152,87.364 144.371 M97.457 145.022 C 97.123 145.886,97.320 147.443,97.913 148.634 C 98.202 149.213,98.438 149.801,98.438 149.941 C 98.438 150.305,98.910 150.255,99.264 149.854 C 100.078 148.931,99.586 146.928,98.054 144.924 L 97.682 144.438 97.457 145.022 M93.801 147.879 C 94.476 150.860,95.619 152.166,96.863 151.379 C 97.272 151.120,96.254 148.577,95.540 148.073 C 94.627 147.427,93.674 147.321,93.801 147.879 M86.670 150.324 C 86.375 150.480,86.133 150.728,86.133 150.876 C 86.133 151.024,85.869 151.333,85.547 151.563 C 84.860 152.052,84.795 152.344,85.374 152.344 C 85.692 152.344,85.764 152.435,85.686 152.734 C 85.556 153.231,85.598 153.226,86.482 152.641 C 87.481 151.980,88.939 151.567,90.283 151.565 C 91.633 151.562,91.681 151.380,90.541 150.595 C 89.555 149.917,87.691 149.787,86.670 150.324 M100.537 152.579 C 99.784 152.779,99.606 153.007,100.067 153.184 C 100.211 153.239,100.482 153.607,100.669 154.001 C 100.985 154.666,101.034 154.696,101.350 154.410 C 101.538 154.240,101.798 154.102,101.929 154.102 C 102.222 154.102,102.008 152.711,101.681 152.493 C 101.433 152.329,101.496 152.324,100.537 152.579 M95.117 153.176 C 93.213 154.091,91.022 157.299,92.580 156.892 C 92.797 156.835,92.969 156.887,92.969 157.008 C 92.969 157.489,93.286 157.169,93.719 156.252 C 93.990 155.680,94.688 154.806,95.428 154.114 C 97.070 152.578,96.973 152.284,95.117 153.176 M96.916 154.980 C 96.073 155.938,95.782 156.839,96.115 157.462 C 96.338 157.879,97.066 157.144,97.069 156.498 C 97.070 156.366,97.290 156.202,97.559 156.135 C 97.996 156.025,98.047 155.913,98.047 155.057 C 98.047 153.878,97.895 153.868,96.916 154.980 M100.977 155.585 C 100.977 155.897,101.688 156.849,101.994 156.946 C 102.880 157.228,103.021 156.213,102.158 155.767 C 101.574 155.465,100.977 155.373,100.977 155.585 M97.768 157.745 C 97.205 158.751,97.225 158.891,97.907 158.720 C 98.387 158.599,98.828 157.881,98.828 157.217 C 98.828 156.543,98.290 156.810,97.768 157.745 M100.781 157.294 C 100.781 158.072,101.548 158.587,102.145 158.209 C 102.383 158.059,102.316 157.921,101.768 157.431 C 100.967 156.716,100.781 156.690,100.781 157.294 M99.177 157.919 C 99.127 158.344,99.019 158.845,98.936 159.033 C 98.732 159.499,99.251 159.488,99.677 159.018 C 100.097 158.553,100.085 158.156,99.634 157.599 L 99.267 157.146 99.177 157.919 M100.631 158.984 C 100.665 159.419,100.784 159.668,100.960 159.668 C 101.404 159.668,101.412 159.276,100.980 158.770 L 100.579 158.301 100.631 158.984 M89.969 163.517 C 89.903 163.763,89.848 164.250,89.846 164.600 C 89.845 165.032,89.751 165.234,89.551 165.234 C 89.358 165.234,89.258 165.427,89.258 165.796 C 89.258 166.106,89.126 166.468,88.965 166.602 C 88.804 166.735,88.672 166.961,88.672 167.102 C 88.672 167.693,88.269 167.538,87.894 166.804 C 87.316 165.670,85.726 165.919,85.748 167.139 C 85.754 167.464,85.767 167.464,86.014 167.139 C 86.850 166.038,87.587 166.967,87.417 168.907 C 87.257 170.747,87.429 170.980,89.092 171.180 C 90.378 171.334,90.578 171.162,91.120 169.440 C 91.552 168.066,92.969 167.389,92.969 168.556 C 92.969 168.758,93.047 168.971,93.144 169.030 C 93.402 169.190,93.601 168.523,93.366 168.288 C 93.255 168.177,93.164 167.928,93.164 167.734 C 93.164 167.541,93.098 167.400,93.018 167.422 C 92.937 167.443,92.666 167.391,92.415 167.305 C 92.072 167.189,91.847 167.256,91.507 167.575 L 91.056 167.999 90.829 167.312 C 90.704 166.932,90.661 166.316,90.733 165.930 C 90.821 165.463,90.791 165.234,90.641 165.234 C 90.496 165.234,90.437 164.884,90.473 164.230 C 90.530 163.180,90.189 162.697,89.969 163.517 M85.591 168.262 C 85.655 168.964,86.559 169.142,86.687 168.477 C 86.741 168.195,86.678 168.138,86.421 168.237 C 86.210 168.318,85.981 168.237,85.811 168.021 C 85.563 167.707,85.543 167.729,85.591 168.262 M91.912 169.178 C 91.831 169.360,91.794 169.667,91.831 169.862 C 91.917 170.309,92.684 170.437,92.840 170.030 C 92.920 169.821,92.841 169.727,92.586 169.727 C 92.354 169.727,92.186 169.562,92.138 169.287 C 92.072 168.912,92.039 168.896,91.912 169.178 M77.373 172.188 C 77.147 172.444,77.219 172.587,77.882 173.206 C 78.390 173.679,78.770 174.277,78.992 174.951 C 79.385 176.148,79.525 176.210,79.844 175.328 C 80.250 174.203,79.893 172.831,79.095 172.460 C 78.938 172.386,78.612 172.225,78.372 172.101 C 77.815 171.813,77.695 171.824,77.373 172.188 M90.332 179.092 C 90.755 179.263,90.369 179.363,88.504 179.564 C 87.750 179.646,87.696 179.626,88.028 179.394 C 88.233 179.250,88.704 179.095,89.074 179.050 C 89.444 179.005,89.790 178.961,89.844 178.951 C 89.897 178.942,90.117 179.005,90.332 179.092 " stroke="none" fill="#5a041e" fill-rule="evenodd"></path></g></svg>