<?xml version="1.0" standalone="no"?>
<!DOCTYPE svg PUBLIC "-//W3C//DTD SVG 20010904//EN"
 "http://www.w3.org/TR/2001/REC-SVG-20010904/DTD/svg10.dtd">
<svg version="1.0" xmlns="http://www.w3.org/2000/svg"
 width="2048.000000pt" height="1152.000000pt" viewBox="0 0 2048.000000 1152.000000"
 preserveAspectRatio="xMidYMid meet">
<metadata>
Created by potrace 1.16, written by Peter Selinger 2001-2019
</metadata>
<g transform="translate(0.000000,1152.000000) scale(0.100000,-0.100000)"
fill="#000000" stroke="none">
<path d="M0 5760 l0 -5760 10240 0 10240 0 0 5760 0 5760 -10240 0 -10240 0 0
-5760z m4380 3526 c63 -15 200 -60 245 -80 17 -8 59 -26 95 -41 36 -15 74 -31
85 -36 35 -15 157 -41 230 -48 43 -4 88 -16 117 -30 114 -58 253 -240 388
-506 42 -82 84 -170 94 -195 10 -25 24 -58 31 -75 20 -46 52 -142 75 -227 18
-70 20 -107 20 -383 0 -167 -4 -324 -10 -347 -5 -24 -19 -83 -30 -133 -21 -93
-73 -271 -92 -315 -6 -14 -14 -34 -18 -45 -97 -250 -223 -522 -333 -717 -15
-27 -38 -68 -52 -93 -14 -25 -36 -64 -49 -87 -13 -24 -38 -70 -56 -103 -18
-33 -40 -73 -50 -90 -10 -16 -29 -50 -42 -75 -14 -25 -35 -63 -48 -85 -76
-133 -267 -502 -325 -628 -18 -38 -18 -38 12 -95 28 -54 95 -178 135 -251 11
-18 17 -35 15 -38 -3 -2 -20 5 -38 16 -100 61 -160 -22 -90 -122 16 -23 62
-73 101 -112 84 -82 125 -137 135 -183 15 -71 49 -3 38 76 -6 47 -39 87 -139
172 -72 61 -85 111 -32 129 17 6 35 8 40 3 4 -4 45 -82 91 -172 47 -91 106
-208 133 -260 27 -53 57 -114 66 -135 61 -144 60 -140 35 -136 -9 2 -46 -39
-47 -51 0 -13 35 -9 56 7 27 21 29 20 43 -27 7 -24 17 -51 22 -60 12 -24 11
-51 -1 -43 -5 3 -10 14 -10 25 0 10 -7 21 -16 24 -15 6 -94 -12 -94 -22 0 -2
11 -17 25 -34 14 -16 25 -36 25 -44 0 -19 29 -18 36 1 4 8 15 15 25 15 10 0
19 5 19 12 0 27 17 -10 29 -62 6 -30 16 -71 21 -90 54 -213 33 -550 -45 -745
-32 -78 -67 -134 -133 -213 -72 -86 -205 -173 -287 -188 -39 -7 -40 -6 -23 13
10 10 23 35 29 54 6 19 21 53 32 76 18 35 20 46 10 62 -6 10 -9 28 -6 40 6 24
-9 28 -26 7 -9 -11 -19 -12 -45 -4 -46 14 -86 -6 -110 -56 -17 -35 -18 -42 -5
-65 17 -31 62 -36 67 -8 2 10 -3 17 -12 17 -24 0 -19 28 10 55 32 29 49 31 62
8 19 -33 -20 -94 -80 -124 -29 -15 -55 -18 -120 -16 -87 2 -101 -3 -198 -71
l-25 -17 18 27 c22 35 22 38 -8 38 -32 0 -80 -24 -123 -61 -18 -16 -42 -29
-54 -29 -17 0 -11 11 37 63 33 34 60 64 62 66 2 3 28 3 58 2 35 -1 62 3 78 13
25 17 61 76 70 117 10 42 41 70 74 67 26 -3 28 0 28 31 0 76 -61 64 -116 -25
-35 -56 -57 -71 -44 -31 22 72 20 74 -27 30 -68 -66 -81 -53 -24 22 46 59 52
82 30 106 -22 24 -56 24 -85 -1 l-24 -20 23 -6 c14 -4 22 -14 22 -28 -1 -26
-13 -41 -72 -89 -42 -34 -48 -43 -48 -77 0 -21 5 -42 10 -45 22 -14 7 -45 -40
-85 -28 -24 -53 -40 -56 -37 -3 2 6 22 21 42 27 40 35 105 12 105 -7 0 -23 -8
-37 -17 l-24 -17 22 36 c31 51 28 94 -12 161 -19 32 -41 73 -47 92 -12 31 -11
38 8 62 16 22 28 28 59 28 38 0 39 -1 39 -35 0 -34 -1 -35 -37 -33 -46 3 -51
-18 -12 -43 33 -22 74 -9 92 28 16 34 7 71 -24 100 -13 13 -24 31 -24 41 0 21
-9 22 -38 1 -19 -13 -26 -13 -38 -3 -13 11 -19 9 -35 -11 -10 -14 -19 -28 -19
-32 0 -5 -9 -8 -19 -8 -13 0 -21 -9 -26 -29 -7 -34 2 -54 55 -126 52 -69 72
-112 65 -136 -12 -38 -65 -88 -100 -95 -19 -3 -39 -12 -46 -20 -6 -8 -22 -14
-35 -14 -36 0 -72 -17 -78 -38 -14 -42 -177 -58 -267 -27 -68 24 -180 84 -226
122 -62 51 -148 161 -187 239 -39 78 -68 179 -86 304 -13 93 -8 401 8 505 19
116 49 255 81 368 6 20 15 52 20 70 35 132 199 590 267 745 17 39 39 90 60
140 9 20 20 45 25 54 5 10 9 25 9 34 0 15 -78 170 -140 279 -13 22 -39 69 -58
105 -19 36 -50 91 -68 123 -19 32 -34 60 -34 63 0 2 -11 21 -23 42 -28 43 -55
92 -122 217 -54 101 -82 151 -115 210 -29 51 -221 434 -249 498 -11 26 -30 66
-40 90 -37 81 -62 151 -125 342 -80 242 -90 280 -112 445 -24 183 -15 470 21
635 13 64 55 203 75 250 33 79 47 110 87 190 89 176 236 345 368 422 34 20
101 77 155 132 104 106 150 134 286 175 96 29 155 41 259 56 192 27 263 39
310 53 64 19 234 20 305 3z m7454 -2708 c202 -66 306 -235 305 -493 0 -172
-46 -300 -141 -394 -90 -90 -205 -131 -363 -131 -158 0 -281 45 -370 134 -74
74 -104 136 -131 271 -17 84 -18 146 -3 234 38 234 177 372 404 401 86 12 229
1 299 -22z m4191 10 c22 -5 57 -15 79 -21 l39 -11 -6 -100 c-4 -55 -10 -103
-14 -107 -5 -5 -44 5 -88 22 -68 27 -93 32 -170 32 -104 0 -164 -22 -225 -83
-90 -90 -121 -273 -64 -382 27 -53 88 -111 144 -137 50 -23 66 -26 180 -25 85
0 142 6 177 16 28 9 54 14 57 11 3 -4 6 -50 6 -104 0 -110 6 -102 -100 -125
-82 -18 -278 -18 -350 0 -214 53 -334 153 -396 331 -23 64 -26 267 -5 340 57
205 237 339 481 359 64 5 208 -4 255 -16z m-6038 -10 c6 -7 13 -33 16 -58 7
-51 17 -115 47 -285 24 -135 37 -216 49 -293 10 -70 28 -87 36 -36 3 22 10 59
15 84 12 65 27 146 40 220 6 36 15 88 20 115 5 28 14 82 21 120 6 39 16 87 21
108 l9 37 169 0 169 0 9 -37 c5 -21 15 -69 21 -108 12 -65 19 -104 41 -225 5
-25 14 -74 20 -110 6 -36 16 -84 21 -107 5 -23 9 -55 9 -71 0 -15 6 -37 14
-48 14 -18 15 -18 20 6 2 14 7 43 11 65 3 22 10 65 15 95 5 30 14 82 19 115 5
33 17 101 25 150 8 50 20 122 27 160 19 122 9 115 155 115 l126 0 -7 -47 c-3
-27 -10 -64 -15 -83 -5 -19 -13 -55 -19 -80 -5 -25 -15 -67 -21 -95 -6 -27
-16 -69 -21 -92 -5 -24 -13 -62 -18 -85 -5 -24 -14 -64 -20 -90 -6 -27 -15
-68 -21 -93 -5 -25 -14 -64 -20 -87 -5 -24 -14 -65 -20 -93 -6 -27 -17 -75
-24 -105 l-13 -55 -175 -3 -175 -2 -11 55 c-13 59 -25 123 -42 225 -6 36 -15
83 -20 105 -5 22 -14 74 -20 115 -7 41 -16 91 -21 110 -5 19 -9 46 -9 60 0 28
-16 58 -25 49 -5 -6 -15 -53 -35 -179 -21 -128 -41 -249 -50 -297 -6 -29 -15
-79 -21 -110 -5 -32 -13 -74 -17 -93 l-7 -35 -176 -3 -177 -2 -17 77 c-15 72
-41 192 -66 303 -6 25 -15 65 -20 90 -6 25 -14 61 -19 80 -4 19 -13 60 -20 90
-13 64 -28 131 -40 180 -25 103 -38 174 -34 182 9 14 260 10 271 -4z m2888
-17 c56 -25 109 -71 133 -116 23 -43 23 -187 0 -236 -21 -44 -75 -93 -125
-114 l-36 -15 25 -28 c35 -36 79 -114 107 -187 13 -33 27 -69 32 -80 4 -11 19
-54 33 -95 13 -41 28 -83 31 -92 7 -17 -4 -18 -133 -18 -100 0 -142 4 -149 13
-5 6 -15 32 -23 57 -33 114 -82 247 -98 270 -26 35 -79 60 -129 60 l-43 0 -2
-197 -3 -198 -135 0 -135 0 -3 480 c-1 264 0 490 3 503 l6 24 297 -4 c283 -4
299 -5 347 -27z m585 -376 l0 -405 205 0 205 0 0 -100 0 -100 -345 0 -345 0 0
505 0 505 140 0 140 0 0 -405z m1142 382 c170 -45 278 -142 328 -297 6 -19 13
-82 16 -140 16 -290 -105 -463 -372 -530 -68 -17 -113 -20 -331 -20 l-253 0 0
498 c0 274 3 502 8 506 13 14 542 -1 604 -17z m1898 -327 c5 -324 6 -347 26
-384 30 -58 64 -79 131 -83 78 -6 120 17 153 83 25 49 25 51 30 389 l5 340
130 0 130 0 0 -365 c0 -397 -2 -415 -57 -497 -75 -112 -193 -162 -378 -162
-162 0 -267 36 -346 121 -91 98 -104 167 -104 570 0 168 3 314 6 322 6 14 25
16 138 14 l131 -3 5 -345z m1260 330 c170 -62 240 -152 240 -308 0 -99 -27
-165 -93 -228 -68 -64 -147 -90 -299 -99 l-108 -7 0 -174 0 -174 -140 0 -140
0 0 498 c0 274 3 502 8 506 12 13 492 0 532 -14z m-10477 3 c5 -8 -59 -174
-76 -201 -6 -9 -56 -12 -188 -12 l-179 0 0 -100 0 -100 150 0 c152 0 160 -2
141 -38 -5 -9 -24 -55 -43 -102 l-33 -85 -108 -3 -107 -3 0 -172 c0 -121 -4
-177 -12 -185 -8 -8 -57 -12 -153 -12 -96 0 -145 4 -153 12 -9 9 -12 136 -12
510 l0 498 384 0 c212 0 387 -3 389 -7z m415 -500 l-3 -508 -144 -3 c-97 -2
-148 1 -157 9 -12 9 -14 96 -14 504 0 270 3 495 7 498 3 4 75 7 160 7 l153 0
-2 -507z m982 494 c0 -6 -12 -44 -26 -82 -14 -39 -30 -82 -36 -97 l-10 -28
-184 0 -184 0 0 -100 0 -100 150 0 c83 0 150 -3 150 -7 0 -16 -70 -197 -81
-210 -8 -9 -41 -13 -115 -13 l-104 0 0 -173 c0 -121 -4 -177 -12 -185 -8 -8
-57 -12 -155 -12 -130 0 -143 2 -153 19 -11 22 -15 983 -3 994 3 4 177 7 385
7 296 0 378 -3 378 -13z m525 -4 c3 -10 22 -61 41 -113 60 -163 72 -194 89
-240 9 -25 25 -70 35 -100 17 -53 43 -124 60 -165 10 -23 54 -149 76 -215 8
-25 19 -54 23 -65 25 -57 32 -85 26 -94 -8 -14 -269 -15 -294 -1 -10 5 -24 31
-31 57 -7 26 -18 54 -23 61 -7 9 -52 12 -181 10 l-171 -3 -19 -60 c-10 -33
-24 -63 -30 -67 -6 -4 -71 -8 -144 -8 -111 0 -134 3 -139 16 -6 16 6 55 57
194 18 47 36 96 40 110 9 26 26 73 80 220 18 47 36 96 40 110 5 14 27 77 50
140 23 63 49 135 57 160 9 25 20 51 26 58 7 9 53 12 167 12 141 0 159 -2 165
-17z m-1375 -1298 c145 -36 215 -72 289 -146 147 -147 183 -393 86 -582 -57
-109 -180 -218 -312 -277 -29 -13 -53 -26 -53 -29 0 -4 33 -23 73 -44 39 -20
110 -58 157 -83 47 -25 117 -62 155 -82 86 -45 147 -99 173 -155 10 -23 24
-83 31 -133 14 -115 14 -114 -6 -114 -13 0 -324 156 -438 220 -16 9 -102 54
-190 100 -358 185 -425 227 -540 344 -83 84 -117 134 -156 233 -20 50 -23 76
-23 193 0 123 3 141 28 205 70 182 200 293 401 345 86 22 248 25 325 5z m2052
-175 l-5 -150 175 0 c96 0 177 -2 180 -5 6 -6 -16 -116 -34 -171 l-13 -39
-153 -3 -152 -3 0 -198 c0 -197 0 -200 24 -228 45 -53 56 -54 630 -51 l528 3
-1 145 c-1 102 3 163 13 204 53 203 183 317 410 357 68 12 387 7 464 -7 l32
-6 -2 -462 -3 -461 -130 0 -130 0 -3 193 c-1 105 -6 192 -11 192 -5 0 -25 -33
-44 -74 -68 -144 -160 -254 -244 -293 -35 -17 -89 -18 -803 -18 l-765 0 -66
32 c-76 38 -127 93 -155 168 -15 42 -19 87 -22 277 l-3 227 -87 3 -87 3 2 55
c1 30 5 79 8 108 l6 52 80 0 79 0 0 70 0 70 54 42 c30 24 81 56 113 72 32 15
65 32 73 37 8 4 22 8 31 8 14 1 15 -16 11 -149z m3723 90 c155 -59 235 -174
235 -339 0 -244 -161 -405 -545 -548 -44 -17 -89 -34 -100 -39 -12 -6 112 -11
330 -14 l350 -5 3 -23 c3 -22 -20 -130 -39 -179 l-9 -23 -439 0 c-506 0 -455
-12 -467 112 l-6 75 83 51 c191 117 243 150 317 203 168 122 242 224 242 336
0 105 -57 175 -158 195 -88 17 -249 -3 -372 -46 -56 -19 -60 -20 -60 -1 0 22
50 165 66 190 15 23 63 44 144 64 74 18 99 19 235 16 105 -2 141 -7 190 -25z
m1188 -4 c158 -58 253 -140 311 -268 62 -135 67 -270 15 -436 -51 -163 -204
-337 -375 -425 -167 -86 -321 -54 -515 106 -112 93 -199 227 -234 361 -19 74
-20 255 0 318 40 135 108 222 227 293 114 68 198 86 378 80 102 -3 137 -9 193
-29z m1082 4 c102 -39 164 -92 206 -178 21 -41 24 -62 24 -163 0 -79 -4 -125
-14 -145 -8 -16 -21 -44 -30 -62 -57 -117 -221 -233 -462 -325 -63 -24 -123
-48 -134 -53 -12 -6 114 -11 330 -14 l350 -5 -2 -53 c-3 -62 -28 -153 -46
-164 -6 -4 -206 -8 -444 -8 -500 0 -453 -12 -453 117 l0 78 118 70 c264 157
415 275 472 371 32 54 35 64 35 139 0 99 -17 134 -83 172 -45 27 -53 28 -167
27 -117 -1 -169 -11 -275 -48 -55 -19 -60 -19 -60 -3 0 21 39 138 58 174 19
37 68 63 152 81 87 19 108 20 240 17 101 -2 137 -7 185 -25z m1041 2 c128 -48
200 -127 230 -251 43 -181 -31 -348 -211 -476 -50 -36 -205 -116 -280 -145
-11 -4 -44 -17 -74 -29 -29 -12 -60 -21 -67 -21 -8 0 -14 -4 -14 -10 0 -6 121
-10 344 -10 236 0 347 -3 351 -11 4 -6 2 -32 -5 -57 -6 -26 -16 -67 -22 -92
-6 -25 -18 -51 -26 -57 -19 -16 -858 -19 -882 -3 -11 7 -15 30 -15 96 l0 88
90 54 c296 178 463 309 508 399 8 15 20 51 27 79 24 93 -19 193 -98 231 -29
14 -60 18 -152 17 -115 -1 -189 -14 -282 -50 -26 -10 -50 -15 -54 -12 -6 7 27
121 51 174 20 44 41 58 120 82 91 28 124 31 280 27 97 -3 143 -9 181 -23z
m-7633 -238 l27 -6 -2 -462 -3 -461 -130 0 -130 0 -3 203 c-1 123 -6 202 -12
202 -6 0 -10 -5 -10 -11 0 -16 -61 -139 -99 -199 -50 -78 -128 -158 -183 -186
-62 -32 -167 -34 -215 -4 -88 53 -143 202 -143 386 0 165 42 298 123 390 69
78 145 120 273 149 61 14 447 13 507 -1z m3566 -110 c8 -67 11 -129 8 -138 -4
-11 -19 -16 -46 -16 -58 0 -141 -40 -182 -88 -87 -102 -129 -238 -156 -502
l-8 -75 -130 0 -130 0 -6 410 c-3 226 -10 434 -14 463 l-8 52 131 0 c92 0 133
-4 138 -12 4 -7 12 -83 18 -170 5 -87 14 -157 19 -155 5 1 17 26 27 54 50 142
133 244 230 281 93 36 93 36 109 -104z"/>
<path d="M4900 8766 c-19 -6 -86 -37 -149 -69 -103 -52 -116 -56 -131 -42 -9
8 -27 15 -39 15 -12 0 -66 11 -120 25 -224 56 -353 51 -500 -21 -61 -29 -96
-57 -177 -138 -96 -96 -162 -181 -150 -194 3 -3 14 2 23 10 36 32 90 47 128
37 35 -10 40 -29 7 -29 -33 0 -177 -69 -210 -99 -54 -53 -102 -145 -147 -286
-75 -234 -75 -475 0 -783 26 -106 74 -259 100 -317 7 -16 27 -65 44 -108 42
-105 122 -266 225 -449 14 -27 38 -69 52 -95 15 -27 35 -60 45 -75 11 -14 19
-29 19 -33 0 -3 13 -25 29 -48 15 -23 30 -46 32 -52 15 -38 85 -145 95 -145
14 0 63 82 139 230 53 104 98 207 155 360 18 47 36 94 40 105 14 35 28 78 51
155 12 41 30 102 40 135 95 300 132 564 109 793 -14 148 -39 251 -81 336 -64
133 -184 250 -341 331 -46 24 -42 31 9 15 103 -33 130 -42 148 -51 45 -20 105
-37 109 -31 6 10 -30 52 -43 52 -7 0 -22 6 -34 14 -27 17 -123 43 -192 50 -27
3 -88 10 -135 16 -47 5 -94 10 -105 11 -11 1 7 5 40 10 33 4 71 10 85 13 14 2
40 5 58 5 21 1 32 6 32 16 0 10 11 15 35 15 50 0 50 0 47 -15 -1 -8 9 -15 25
-18 62 -12 86 3 36 21 -26 9 -27 10 -8 18 11 4 26 13 33 20 39 39 272 -57 403
-167 26 -21 58 -40 73 -43 33 -6 48 -15 41 -26 -5 -8 23 -25 37 -22 17 4 78
-30 78 -43 0 -8 6 -15 14 -15 35 0 154 -150 163 -206 4 -27 10 -34 28 -34 13
0 26 -7 29 -16 10 -25 7 -62 -5 -66 -7 -2 -7 -11 0 -28 l10 -25 0 28 c1 25 4
27 41 27 28 0 40 4 40 14 0 8 4 16 10 18 22 7 -21 274 -61 370 -10 26 -19 57
-19 70 0 13 -14 50 -30 83 -29 59 -36 86 -24 98 10 10 42 -16 37 -30 -3 -7 2
-13 11 -13 23 0 20 24 -9 58 -14 17 -25 36 -25 43 0 19 -33 89 -42 89 -4 0 -8
7 -8 16 0 23 23 11 38 -20 8 -15 21 -30 30 -33 10 -4 29 -19 45 -35 35 -36 35
-26 0 16 -14 17 -32 30 -40 28 -7 -2 -13 5 -13 15 0 23 -91 109 -135 127 -49
21 -106 26 -145 12z"/>
<path d="M3083 8517 c-23 -12 -45 -28 -48 -35 -5 -14 28 -87 46 -97 15 -10 99
37 99 54 0 12 -47 102 -53 100 -1 0 -21 -10 -44 -22z"/>
<path d="M2940 8261 c-121 -25 -200 -128 -200 -259 0 -59 4 -75 33 -122 104
-176 356 -169 454 13 24 44 25 178 1 227 -20 41 -80 101 -123 123 -38 19 -119
28 -165 18z m89 -196 c34 -17 39 -29 33 -78 -3 -30 -9 -38 -31 -43 -14 -3 -32
-7 -38 -10 -22 -6 -42 7 -58 39 -20 40 -19 46 12 79 30 32 43 34 82 13z"/>
<path d="M5487 8083 c7 -112 6 -179 -6 -327 -9 -113 -9 -151 -1 -156 9 -6 9
-13 1 -28 -18 -33 -41 -16 -41 29 0 27 -4 39 -14 39 -19 0 -29 -17 -16 -25 15
-9 -11 -43 -52 -68 -18 -11 -28 -22 -21 -24 7 -3 15 -20 19 -40 6 -31 8 -33
22 -19 14 14 14 17 -3 36 -18 20 -18 20 25 20 43 0 43 0 25 -20 -17 -19 -17
-22 -2 -37 15 -15 13 -18 -19 -35 -42 -22 -44 -22 -44 0 -1 10 -9 1 -21 -22
-13 -23 -17 -41 -11 -45 13 -8 -16 -81 -33 -81 -7 0 -15 5 -17 12 -3 9 -6 9
-12 0 -4 -7 -2 -12 3 -12 6 0 11 -10 11 -23 0 -12 9 -28 20 -35 23 -14 19 -27
-24 -76 -18 -21 -26 -41 -26 -68 0 -21 -7 -55 -15 -75 -8 -19 -15 -43 -15 -52
0 -9 -9 -24 -20 -34 -11 -9 -20 -24 -20 -33 0 -27 -36 -132 -71 -208 -11 -23
-11 -30 -1 -33 8 -3 5 -10 -9 -22 -12 -10 -20 -24 -17 -31 3 -10 10 -7 27 11
41 45 47 54 60 87 8 17 20 32 27 32 8 0 19 11 24 25 5 14 21 30 35 35 18 7 25
17 25 35 0 14 4 25 10 25 5 0 16 14 25 30 9 17 22 30 30 30 8 0 15 7 15 15 0
10 8 15 23 14 55 -5 64 0 76 44 7 23 17 49 21 58 21 40 51 178 70 318 23 168
28 429 10 523 -6 29 -15 78 -21 108 -15 79 -40 160 -48 160 -4 0 -6 -26 -4
-57z"/>
<path d="M4504 4873 c-10 -10 -22 -18 -28 -18 -23 0 -16 -47 15 -102 72 -128
89 -165 89 -194 0 -35 16 -38 31 -5 16 35 6 63 -46 126 -53 64 -68 116 -40
137 26 18 40 16 71 -10 18 -16 25 -30 21 -40 -8 -22 -19 -21 -45 3 -18 17 -22
18 -22 5 0 -21 36 -55 60 -55 23 0 43 34 35 59 -3 10 -14 26 -25 36 -11 10
-20 27 -20 37 0 15 -6 19 -24 16 -13 -1 -30 3 -39 10 -12 10 -18 10 -33 -5z"/>
<path d="M4300 4830 c0 -11 7 -23 15 -26 19 -8 19 -14 -6 -43 -19 -23 -20 -23
-39 -6 -11 10 -26 15 -35 11 -20 -7 -5 -32 41 -66 18 -14 36 -32 39 -40 3 -9
37 -44 75 -79 63 -56 74 -62 107 -59 37 3 38 4 41 46 3 34 -2 50 -25 80 -16
20 -35 50 -43 66 -8 16 -28 37 -45 47 -16 10 -47 34 -67 54 -42 40 -58 44 -58
15z"/>
<path d="M3633 4712 c-37 -79 -115 -309 -137 -406 -24 -102 -6 -134 45 -80 41
44 93 65 149 60 45 -5 51 -3 68 22 11 15 27 44 37 65 9 20 21 37 26 37 14 0
11 28 -13 99 -27 79 -119 264 -133 268 -5 1 -24 -28 -42 -65z"/>
<path d="M4220 4606 c0 -7 -10 -20 -22 -29 -19 -12 -21 -18 -10 -28 6 -7 12
-26 12 -41 0 -17 5 -28 13 -28 8 0 22 -9 33 -21 33 -36 53 -43 75 -23 24 22
24 46 1 67 -26 24 -50 23 -29 -1 25 -28 21 -44 -10 -40 -49 5 -66 90 -21 101
30 8 58 -6 124 -62 66 -57 92 -68 123 -51 30 15 26 30 -7 30 -19 0 -68 25
-137 70 -106 69 -145 84 -145 56z"/>
<path d="M4710 4273 c82 -160 85 -165 127 -186 31 -17 48 -44 113 -192 76
-171 90 -215 90 -272 0 -46 5 -61 31 -94 17 -21 35 -39 40 -39 5 0 9 29 9 65
0 56 -4 68 -28 97 -16 18 -34 49 -41 68 -13 34 -22 58 -40 103 -5 12 -37 78
-70 147 -43 88 -61 138 -61 165 0 30 -10 54 -39 95 -37 54 -171 180 -191 180
-5 0 22 -62 60 -137z"/>
<path d="M4493 4364 c-22 -22 -25 -32 -21 -76 6 -53 28 -81 39 -50 21 56 76
45 107 -22 10 -23 25 -63 33 -89 20 -69 55 -107 104 -113 63 -8 75 8 34 44
-34 30 -41 42 -97 162 -36 77 -71 127 -109 152 -38 24 -59 23 -90 -8z"/>
<path d="M4222 4153 c-8 -14 -8 -31 -2 -54 6 -19 10 -35 10 -36 0 -2 -11 -3
-25 -3 -36 0 -33 -39 5 -80 22 -23 28 -36 20 -44 -31 -31 13 -76 77 -76 21 0
70 7 108 16 39 9 97 18 130 21 51 4 65 1 95 -19 57 -39 81 -91 78 -169 -3 -54
-1 -64 9 -53 19 19 19 134 -1 172 -22 42 -81 89 -125 98 -20 4 -85 8 -146 8
-123 1 -145 9 -171 64 -28 60 3 122 62 122 25 0 38 -7 50 -25 21 -32 12 -75
-17 -75 -31 0 -20 -34 13 -38 55 -7 77 77 35 139 -29 43 -85 59 -122 35 -31
-20 -45 -20 -60 1 -11 15 -13 15 -23 -4z"/>
<path d="M4990 4100 c-19 -35 -7 -126 26 -202 16 -37 34 -68 40 -68 26 0 49
42 48 90 0 47 -28 106 -83 179 l-19 24 -12 -23z"/>
<path d="M4799 3944 c17 -58 63 -163 76 -174 8 -6 31 -10 52 -8 35 3 38 5 36
33 -1 17 -7 40 -13 53 -5 12 -15 34 -22 48 -16 34 -59 64 -103 71 -34 5 -34 5
-26 -23z"/>
<path d="M4479 3843 c-15 -2 -53 -29 -85 -59 -53 -50 -56 -55 -36 -61 13 -3
22 -13 22 -25 0 -11 3 -18 8 -16 4 2 30 15 57 29 68 36 146 53 201 44 42 -6
45 -5 36 12 -33 60 -112 90 -203 76z"/>
<path d="M4861 3678 c-23 -12 -65 -44 -92 -71 -42 -43 -49 -55 -49 -89 0 -31
3 -39 15 -35 8 4 17 2 20 -3 11 -19 22 -10 41 33 10 23 52 75 92 115 70 68 73
72 46 72 -16 -1 -49 -10 -73 -22z"/>
<path d="M4607 3163 c-4 -3 -7 -28 -7 -54 0 -38 -4 -48 -19 -52 -14 -3 -18
-11 -14 -25 5 -20 -26 -72 -44 -74 -4 0 -15 12 -24 28 -21 38 -62 44 -95 13
-45 -42 -24 -167 21 -129 8 7 15 22 15 33 0 16 -3 18 -12 9 -19 -19 -28 -14
-28 16 0 53 51 72 72 27 9 -19 9 -41 0 -87 -12 -62 -6 -91 21 -101 27 -10 122
-17 132 -10 14 11 35 50 35 66 0 19 27 72 45 87 25 20 57 -5 53 -43 -4 -37
-38 -53 -38 -18 0 12 -4 21 -10 21 -15 0 -12 -67 3 -72 21 -9 36 3 54 40 9 20
22 41 27 45 8 6 7 10 -1 14 -7 2 -13 13 -13 23 0 11 -13 25 -30 33 -27 14 -32
14 -55 -5 -14 -11 -27 -19 -29 -17 -1 2 -8 18 -15 36 -10 24 -10 36 -1 54 10
18 10 24 -2 33 -12 9 -14 24 -10 64 4 41 2 52 -10 52 -8 0 -18 -3 -21 -7z"/>
<path d="M11605 6403 c-11 -2 -30 -6 -42 -9 -32 -6 -91 -60 -107 -98 -36 -81
-40 -104 -40 -210 1 -153 35 -240 113 -289 53 -33 162 -32 211 3 44 30 56 45
79 95 52 111 54 249 5 380 -13 35 -53 82 -86 103 -34 20 -98 32 -133 25z"/>
<path d="M12502 6288 l3 -113 90 4 c130 5 165 28 165 109 0 72 -73 112 -206
112 l-55 0 3 -112z"/>
<path d="M14268 6385 c-5 -5 -8 -143 -8 -308 l0 -299 98 5 c117 6 158 18 213
60 82 63 119 184 94 308 -16 86 -26 108 -68 150 -55 56 -112 78 -224 85 -54 4
-101 3 -105 -1z"/>
<path d="M17502 6263 l3 -138 30 -3 c54 -7 134 19 161 51 19 23 24 40 24 86 0
95 -55 141 -167 141 l-54 0 3 -137z"/>
<path d="M9020 6270 c0 -10 -4 -29 -9 -42 -6 -13 -20 -57 -32 -98 -12 -41 -30
-102 -40 -134 -32 -100 -36 -96 96 -96 67 0 115 4 115 10 0 5 -6 29 -14 52 -7
24 -19 63 -26 88 -7 25 -16 56 -20 70 -5 14 -19 58 -31 98 -21 69 -39 94 -39
52z"/>
<path d="M7577 5045 c-27 -7 -66 -25 -87 -39 -130 -86 -169 -285 -86 -444 40
-78 193 -208 319 -272 26 -13 29 -12 63 21 66 63 133 168 163 254 23 64 18
227 -9 299 -57 152 -204 225 -363 181z"/>
<path d="M11450 4741 c-95 -19 -110 -49 -110 -218 0 -131 14 -212 44 -259 13
-18 25 -24 55 -24 79 0 143 106 230 382 17 54 31 105 31 113 0 12 -18 15 -107
14 -60 -1 -124 -4 -143 -8z"/>
<path d="M14495 4984 c-50 -8 -134 -55 -166 -93 -51 -62 -69 -127 -69 -253 0
-103 4 -130 33 -233 30 -107 113 -224 196 -277 51 -32 74 -34 124 -13 66 27
149 119 194 215 42 88 57 166 57 305 1 129 -1 144 -23 189 -31 63 -82 113
-138 137 -45 19 -152 31 -208 23z m168 -312 c31 -30 57 -61 57 -67 0 -17 -137
-145 -154 -145 -19 0 -146 125 -146 143 0 8 31 44 70 81 81 78 78 78 173 -12z"/>
<path d="M8771 4740 c-47 -11 -83 -40 -97 -81 -27 -75 -5 -336 34 -388 27 -37
74 -40 117 -7 34 26 97 141 133 246 29 81 72 220 72 231 0 11 -211 10 -259 -1z"/>
</g>
</svg>
