<svg id="svg" version="1.1" xmlns="http://www.w3.org/2000/svg" xmlns:xlink="http://www.w3.org/1999/xlink" width="400" height="225" viewBox="0, 0, 400,225"><g id="svgg"><path id="path0" d="M0.000 112.500 L 0.000 225.000 200.000 225.000 L 400.000 225.000 400.000 112.500 L 400.000 0.000 200.000 0.000 L 0.000 0.000 0.000 112.500 M85.547 43.634 C 87.447 44.095,91.075 45.433,93.848 46.695 C 94.509 46.996,96.901 47.494,98.340 47.630 C 102.083 47.984,106.825 53.775,110.037 61.914 C 110.228 62.397,110.503 63.057,110.649 63.379 C 111.064 64.296,111.862 66.806,112.196 68.246 C 112.551 69.775,112.640 80.636,112.309 82.077 C 112.204 82.535,111.939 83.701,111.720 84.668 C 111.501 85.635,111.055 87.305,110.728 88.379 C 110.155 90.258,110.064 90.521,109.615 91.602 C 109.503 91.870,108.962 93.232,108.414 94.629 C 107.530 96.878,104.494 103.166,103.061 105.713 C 102.774 106.223,102.319 107.036,102.051 107.520 C 101.782 108.003,101.355 108.772,101.101 109.229 C 100.848 109.685,100.353 110.586,100.003 111.230 C 99.653 111.875,99.212 112.666,99.024 112.988 C 98.835 113.311,98.463 113.970,98.196 114.453 C 97.930 114.937,97.510 115.684,97.264 116.113 C 95.774 118.718,92.044 125.921,90.912 128.380 C 90.521 129.230,90.588 129.386,93.793 135.130 C 94.258 135.964,94.155 136.060,93.333 135.558 C 91.392 134.375,90.215 135.989,91.585 137.953 C 91.899 138.402,92.785 139.385,93.555 140.137 C 95.197 141.741,95.989 142.818,96.184 143.712 C 96.485 145.093,97.146 143.773,96.933 142.216 C 96.808 141.302,95.914 140.216,94.107 138.781 C 92.830 137.767,92.602 136.690,93.591 136.345 C 94.383 136.069,94.240 135.884,96.160 139.653 C 97.062 141.423,98.229 143.710,98.754 144.735 C 99.278 145.760,99.856 146.947,100.038 147.372 C 101.235 150.166,101.220 150.105,100.719 150.019 C 100.544 149.988,99.822 150.789,99.811 151.025 C 99.800 151.276,100.492 151.186,100.890 150.885 C 101.435 150.473,101.474 150.498,101.746 151.416 C 101.881 151.873,102.071 152.399,102.167 152.585 C 102.404 153.040,102.392 153.568,102.148 153.418 C 102.041 153.352,101.953 153.136,101.953 152.939 C 101.953 152.435,101.454 152.302,100.565 152.568 C 99.665 152.838,99.672 152.814,100.293 153.551 C 100.562 153.870,100.781 154.257,100.781 154.410 C 100.781 154.779,101.349 154.767,101.492 154.395 C 101.554 154.233,101.771 154.102,101.974 154.102 C 102.177 154.102,102.344 154.008,102.344 153.895 C 102.344 153.451,102.688 153.931,102.804 154.536 C 102.872 154.888,103.015 155.571,103.123 156.055 C 104.134 160.570,104.143 164.626,103.152 169.238 C 102.194 173.697,97.885 178.537,94.277 179.206 L 93.534 179.344 94.033 178.610 C 94.307 178.206,94.531 177.734,94.531 177.561 C 94.530 177.388,94.728 176.873,94.969 176.417 C 95.327 175.742,95.365 175.520,95.177 175.219 C 95.050 175.016,94.995 174.664,95.055 174.437 C 95.181 173.953,94.643 173.842,94.461 174.314 C 94.373 174.545,94.241 174.564,93.821 174.404 C 92.754 173.998,91.607 174.663,91.325 175.851 C 91.150 176.590,91.657 177.391,92.247 177.307 C 92.741 177.236,92.966 176.562,92.495 176.562 C 92.023 176.563,92.129 176.012,92.704 175.479 C 93.944 174.330,94.517 175.656,93.370 177.023 C 92.707 177.814,91.714 178.124,90.001 178.075 C 88.305 178.025,88.031 178.122,86.133 179.445 L 85.645 179.785 85.986 179.255 C 86.431 178.565,86.421 178.516,85.830 178.516 C 85.211 178.516,84.281 178.982,83.440 179.715 C 82.111 180.872,81.870 180.382,83.115 179.053 C 83.743 178.381,84.284 177.795,84.317 177.750 C 84.350 177.705,84.856 177.687,85.442 177.711 C 86.970 177.773,87.939 176.930,88.348 175.183 C 88.541 174.360,89.150 173.800,89.778 173.867 C 90.289 173.921,90.332 173.875,90.332 173.263 C 90.332 171.768,89.147 172.020,88.063 173.747 C 87.380 174.835,86.962 175.135,87.200 174.365 C 87.638 172.951,87.596 172.903,86.687 173.779 C 85.360 175.058,85.095 174.814,86.216 173.345 C 87.582 171.556,86.730 169.942,85.129 171.286 L 84.668 171.673 85.107 171.797 C 85.910 172.023,85.657 172.729,84.375 173.844 C 83.201 174.865,82.753 176.066,83.398 176.465 C 83.834 176.734,83.541 177.351,82.609 178.132 C 81.461 179.093,81.224 179.055,81.924 178.023 C 82.836 176.678,82.525 175.555,81.449 176.309 L 80.974 176.641 81.429 175.905 C 82.025 174.941,81.914 173.809,81.109 172.633 C 79.709 170.586,79.890 169.238,81.564 169.238 C 82.303 169.238,82.324 169.258,82.324 169.922 C 82.324 170.589,82.307 170.604,81.592 170.562 C 80.715 170.511,80.598 170.913,81.346 171.404 C 82.864 172.398,84.063 170.191,82.704 168.904 C 82.445 168.658,82.232 168.303,82.230 168.115 C 82.226 167.692,82.049 167.685,81.480 168.083 C 81.130 168.329,80.979 168.344,80.753 168.157 C 80.418 167.879,79.973 168.157,79.780 168.768 C 79.714 168.973,79.498 169.141,79.299 169.141 C 78.351 169.141,78.605 170.438,79.892 172.168 C 81.605 174.471,81.317 176.276,79.172 176.678 C 78.819 176.744,78.428 176.921,78.303 177.071 C 78.179 177.221,77.874 177.344,77.626 177.344 C 76.912 177.344,76.216 177.679,76.087 178.084 C 75.828 178.901,72.627 179.222,70.877 178.607 C 69.993 178.296,67.361 176.991,67.188 176.778 C 67.134 176.712,66.777 176.425,66.395 176.140 C 60.528 171.773,59.291 161.084,63.111 147.754 C 64.160 144.096,67.123 135.756,68.473 132.666 C 68.814 131.885,69.237 130.898,69.645 129.932 C 69.815 129.529,70.035 129.047,70.134 128.860 C 70.479 128.204,69.905 126.834,67.574 122.754 C 67.328 122.324,66.820 121.401,66.445 120.703 C 66.070 120.005,65.468 118.924,65.108 118.300 C 64.748 117.677,64.453 117.131,64.453 117.088 C 64.453 117.045,64.177 116.544,63.840 115.975 C 62.987 114.537,62.698 114.021,61.623 112.012 C 61.106 111.045,60.463 109.858,60.195 109.375 C 58.649 106.587,55.451 100.292,54.515 98.193 C 54.288 97.683,53.930 96.885,53.721 96.420 C 51.715 91.960,49.634 85.034,49.104 81.055 C 47.528 69.216,52.302 56.244,59.863 51.819 C 60.524 51.433,61.845 50.306,62.891 49.238 C 65.533 46.538,67.937 45.520,73.535 44.727 C 77.283 44.196,78.674 43.958,79.590 43.692 C 80.839 43.328,84.155 43.296,85.547 43.634 M82.935 48.023 C 82.570 48.166,82.932 48.828,83.374 48.828 C 83.617 48.828,85.938 48.016,85.938 47.931 C 85.938 47.793,83.317 47.872,82.935 48.023 M95.703 53.781 C 95.327 53.909,94.016 54.518,92.790 55.133 C 90.780 56.143,90.529 56.224,90.236 55.958 C 90.057 55.796,89.714 55.664,89.473 55.664 C 89.233 55.664,88.180 55.447,87.134 55.182 C 81.004 53.628,77.812 54.376,73.904 58.281 C 72.028 60.156,70.740 61.821,70.981 62.062 C 71.042 62.122,71.246 62.035,71.434 61.867 C 72.150 61.231,73.174 60.950,73.966 61.172 C 74.603 61.350,74.652 61.401,74.316 61.535 C 74.102 61.620,73.190 61.982,72.291 62.339 C 69.084 63.613,67.482 66.376,66.219 72.812 C 65.425 76.860,66.831 85.777,69.042 90.723 C 69.187 91.045,69.583 92.012,69.923 92.871 C 70.519 94.378,72.517 98.485,73.437 100.098 C 73.901 100.910,74.445 101.885,75.315 103.467 C 75.596 103.977,75.979 104.614,76.167 104.883 C 76.354 105.151,76.541 105.461,76.583 105.571 C 76.864 106.300,79.551 110.533,79.683 110.452 C 80.032 110.236,82.436 105.815,83.402 103.613 C 84.402 101.333,84.519 101.046,85.352 98.828 C 85.694 97.915,86.045 96.992,86.132 96.777 C 86.407 96.092,86.681 95.254,87.120 93.750 C 87.355 92.944,87.715 91.758,87.919 91.113 C 89.775 85.253,90.480 80.136,90.050 75.663 C 89.587 70.849,88.708 68.627,86.133 65.768 C 85.321 64.867,82.976 63.126,82.178 62.833 C 81.990 62.764,81.836 62.626,81.836 62.527 C 81.836 62.228,83.369 62.645,85.131 63.422 C 86.041 63.824,86.865 64.047,86.987 63.925 C 87.156 63.755,86.499 62.891,86.201 62.891 C 86.049 62.891,85.729 62.765,85.491 62.612 C 84.969 62.276,83.079 61.786,81.738 61.639 C 81.201 61.581,80.015 61.443,79.102 61.334 C 78.188 61.225,77.266 61.124,77.051 61.110 C 76.836 61.095,77.188 61.012,77.832 60.924 C 78.477 60.837,79.224 60.723,79.492 60.671 C 79.761 60.619,80.266 60.569,80.615 60.561 C 81.077 60.551,81.250 60.456,81.250 60.215 C 81.250 59.957,81.302 59.935,81.484 60.117 C 81.767 60.400,82.299 60.432,82.129 60.156 C 82.024 59.987,82.231 59.927,82.764 59.974 C 82.844 59.981,82.886 60.105,82.857 60.250 C 82.825 60.404,83.028 60.555,83.345 60.614 C 84.548 60.835,85.027 60.545,84.033 60.195 C 83.534 60.020,83.524 59.995,83.887 59.848 C 84.102 59.761,84.388 59.581,84.523 59.447 C 85.289 58.691,89.845 60.575,92.408 62.708 C 92.906 63.122,93.541 63.502,93.821 63.553 C 94.469 63.670,94.760 63.850,94.633 64.056 C 94.536 64.212,95.080 64.542,95.348 64.489 C 95.690 64.420,96.875 65.077,96.875 65.335 C 96.875 65.494,97.000 65.625,97.152 65.625 C 97.839 65.625,100.156 68.549,100.332 69.639 C 100.420 70.176,100.531 70.313,100.884 70.313 C 101.491 70.313,101.909 71.727,101.357 71.911 C 101.216 71.958,101.213 72.134,101.344 72.464 L 101.538 72.949 101.550 72.412 C 101.562 71.918,101.625 71.875,102.344 71.875 C 102.888 71.875,103.125 71.791,103.125 71.598 C 103.125 71.446,103.211 71.292,103.316 71.257 C 103.755 71.107,102.903 65.891,102.135 64.026 C 101.927 63.523,101.757 62.908,101.757 62.659 C 101.757 62.410,101.493 61.680,101.172 61.035 C 100.597 59.883,100.470 59.361,100.705 59.126 C 100.904 58.926,101.530 59.428,101.424 59.703 C 101.368 59.851,101.459 59.961,101.639 59.961 C 102.096 59.961,102.024 59.489,101.465 58.825 C 101.196 58.506,100.977 58.113,100.977 57.953 C 100.977 57.793,100.845 57.410,100.685 57.102 C 100.524 56.795,100.392 56.433,100.392 56.299 C 100.390 55.908,100.726 56.017,100.838 56.444 C 100.894 56.659,101.098 56.895,101.291 56.969 C 101.818 57.171,102.539 57.848,102.539 58.141 C 102.539 58.282,102.627 58.398,102.734 58.398 C 103.020 58.398,102.990 58.333,102.324 57.498 C 101.991 57.080,101.596 56.764,101.445 56.796 C 101.286 56.829,101.172 56.697,101.172 56.477 C 101.172 55.057,97.407 53.201,95.703 53.781 M60.213 58.653 C 59.073 59.248,59.018 60.269,60.079 61.150 C 60.418 61.431,62.109 60.618,62.109 60.174 C 62.109 59.935,61.187 58.185,61.076 58.214 C 61.053 58.219,60.665 58.417,60.213 58.653 M57.422 63.654 C 55.090 64.144,53.516 66.153,53.516 68.641 C 53.516 74.948,62.927 75.338,63.426 69.052 C 63.701 65.589,60.767 62.951,57.422 63.654 M59.886 65.356 C 60.419 65.609,60.509 65.728,60.332 65.942 C 60.027 66.309,59.190 66.280,58.756 65.888 C 57.903 65.116,58.645 64.767,59.886 65.356 M56.836 66.113 C 56.836 66.700,56.205 67.383,55.664 67.383 C 55.130 67.383,55.174 66.945,55.779 66.226 C 56.396 65.493,56.836 65.446,56.836 66.113 M107.165 67.139 C 107.348 70.213,107.292 72.329,107.031 72.168 C 106.920 72.099,106.826 72.284,106.813 72.596 C 106.759 73.880,106.703 74.336,106.557 74.658 C 106.462 74.871,106.485 75.000,106.620 75.000 C 106.741 75.000,106.836 75.336,106.836 75.765 C 106.836 76.186,106.936 76.563,107.059 76.604 C 107.226 76.660,107.226 76.785,107.056 77.102 C 106.706 77.757,106.250 77.440,106.250 76.542 C 106.250 76.010,106.165 75.781,105.969 75.781 C 105.607 75.781,105.402 76.108,105.663 76.269 C 105.948 76.445,105.443 77.108,104.653 77.592 C 104.296 77.811,104.111 78.027,104.242 78.072 C 104.373 78.117,104.538 78.462,104.609 78.840 C 104.725 79.461,104.766 79.497,105.041 79.222 C 105.316 78.947,105.311 78.881,104.986 78.522 C 104.630 78.129,104.635 78.125,105.469 78.125 C 106.302 78.125,106.307 78.129,105.952 78.522 C 105.620 78.888,105.617 78.943,105.910 79.236 C 106.203 79.529,106.176 79.581,105.556 79.913 C 104.730 80.356,104.690 80.357,104.679 79.932 C 104.674 79.732,104.504 79.906,104.270 80.348 C 104.028 80.807,103.946 81.155,104.063 81.227 C 104.326 81.392,103.744 82.813,103.413 82.813 C 103.273 82.813,103.122 82.707,103.079 82.578 C 103.019 82.395,102.969 82.395,102.856 82.578 C 102.777 82.707,102.804 82.813,102.918 82.813 C 103.032 82.813,103.125 83.011,103.125 83.254 C 103.125 83.497,103.303 83.806,103.520 83.942 C 103.965 84.220,103.884 84.469,103.038 85.431 C 102.686 85.831,102.539 86.222,102.539 86.755 C 102.539 87.172,102.407 87.828,102.246 88.214 C 102.085 88.599,101.953 89.060,101.953 89.238 C 101.953 89.416,101.777 89.712,101.563 89.896 C 101.348 90.080,101.172 90.373,101.172 90.548 C 101.172 91.070,100.466 93.129,99.785 94.593 C 99.585 95.023,99.582 95.175,99.769 95.290 C 99.935 95.393,99.858 95.518,99.515 95.701 C 99.183 95.879,99.023 96.129,99.023 96.474 C 99.023 96.754,98.893 97.170,98.733 97.399 C 98.464 97.782,98.471 97.806,98.817 97.716 C 99.226 97.609,99.483 97.145,99.299 96.847 C 99.236 96.744,99.389 96.449,99.640 96.192 C 100.490 95.324,100.712 95.022,100.966 94.385 C 101.105 94.036,101.343 93.750,101.493 93.750 C 101.644 93.750,101.852 93.529,101.954 93.258 C 102.057 92.988,102.363 92.682,102.633 92.579 C 102.979 92.448,103.125 92.247,103.125 91.899 C 103.125 91.628,103.211 91.406,103.315 91.406 C 103.420 91.406,103.642 91.143,103.809 90.820 C 103.975 90.498,104.241 90.234,104.400 90.234 C 104.558 90.234,104.688 90.110,104.688 89.959 C 104.688 89.760,104.918 89.692,105.518 89.715 L 106.348 89.747 107.092 87.500 C 109.135 81.330,109.364 72.453,107.627 66.748 C 107.300 65.675,107.088 65.854,107.165 67.139 M59.166 67.473 C 60.127 67.970,60.156 69.636,59.207 69.842 C 58.923 69.904,58.582 69.988,58.447 70.030 C 58.023 70.160,57.637 69.903,57.329 69.287 C 56.667 67.959,57.849 66.792,59.166 67.473 M62.069 68.556 C 62.151 69.527,61.647 70.179,61.230 69.640 C 60.886 69.194,60.857 68.680,61.146 68.139 C 61.474 67.526,62.002 67.765,62.069 68.556 M56.354 69.990 C 56.854 70.704,56.649 71.430,56.016 71.187 C 55.660 71.051,55.002 69.813,55.154 69.566 C 55.333 69.278,56.027 69.523,56.354 69.990 M60.146 71.375 C 60.336 71.603,60.270 71.712,59.789 71.960 C 59.094 72.320,58.203 72.363,58.203 72.037 C 58.203 71.271,59.650 70.777,60.146 71.375 M101.956 75.146 C 101.965 75.591,102.344 75.878,102.536 75.586 C 102.824 75.147,102.776 75.000,102.344 75.000 C 102.129 75.000,101.954 75.066,101.956 75.146 M56.876 76.911 L 56.233 77.637 57.043 78.395 L 57.853 79.153 58.656 78.350 L 59.459 77.547 58.793 76.859 C 57.958 75.998,57.679 76.005,56.876 76.911 M231.140 96.528 C 239.771 99.361,239.088 113.804,230.215 116.112 C 221.783 118.304,215.357 111.433,217.665 102.693 C 219.104 97.245,225.045 94.527,231.140 96.528 M312.891 96.308 C 313.374 96.419,314.111 96.609,314.529 96.732 L 315.288 96.955 315.170 98.901 C 315.023 101.321,315.059 101.290,313.178 100.557 C 307.676 98.413,302.886 101.860,303.747 107.346 C 304.368 111.310,309.080 113.388,313.997 111.867 C 315.269 111.473,315.234 111.423,315.234 113.684 C 315.234 115.843,315.358 115.688,313.281 116.134 C 304.906 117.932,298.397 113.665,298.354 106.348 C 298.309 98.757,304.595 94.416,312.891 96.308 M195.068 96.533 C 195.174 96.667,195.312 97.173,195.374 97.656 C 195.502 98.661,195.706 99.899,196.289 103.223 C 196.752 105.863,197.014 107.432,197.242 108.943 C 197.449 110.319,197.784 110.652,197.947 109.645 C 198.015 109.228,198.145 108.491,198.237 108.008 C 198.477 106.736,198.762 105.164,199.015 103.711 C 199.136 103.013,199.314 102.002,199.409 101.465 C 199.504 100.928,199.687 99.873,199.817 99.121 C 199.946 98.369,200.131 97.424,200.229 97.021 L 200.406 96.289 203.711 96.289 L 207.016 96.289 207.193 97.021 C 207.290 97.424,207.476 98.369,207.605 99.121 C 207.822 100.383,207.960 101.146,208.401 103.516 C 208.491 103.999,208.665 104.966,208.788 105.664 C 208.910 106.362,209.093 107.302,209.193 107.753 C 209.293 108.203,209.375 108.823,209.375 109.131 C 209.375 109.439,209.500 109.861,209.652 110.070 C 209.962 110.494,209.982 110.449,210.250 108.691 C 210.315 108.262,210.456 107.383,210.563 106.738 C 211.781 99.361,212.248 96.733,212.383 96.516 C 212.477 96.363,213.321 96.289,214.975 96.289 L 217.427 96.289 217.294 97.217 C 217.221 97.727,217.084 98.452,216.990 98.828 C 216.897 99.204,216.733 99.907,216.627 100.391 C 216.363 101.591,216.083 102.848,215.834 103.955 C 215.719 104.465,215.543 105.256,215.443 105.713 C 215.343 106.169,215.168 106.960,215.053 107.471 C 214.938 107.981,214.756 108.794,214.648 109.277 C 214.541 109.761,214.370 110.530,214.267 110.986 C 214.165 111.443,213.986 112.256,213.869 112.793 C 213.752 113.330,213.540 114.253,213.398 114.844 L 213.139 115.918 209.727 115.971 L 206.314 116.024 206.087 114.946 C 205.841 113.780,205.611 112.541,205.269 110.547 C 205.150 109.849,204.977 108.926,204.885 108.496 C 204.793 108.066,204.613 107.056,204.484 106.250 C 204.356 105.444,204.174 104.478,204.080 104.102 C 203.986 103.726,203.907 103.198,203.904 102.930 C 203.900 102.390,203.601 101.802,203.423 101.981 C 203.315 102.088,203.148 102.939,202.735 105.469 C 202.639 106.060,202.375 107.598,202.148 108.887 C 201.605 111.985,201.369 113.362,201.175 114.589 C 200.937 116.084,201.119 116.016,197.367 116.016 L 193.976 116.016 193.856 115.381 C 193.789 115.032,193.653 114.395,193.554 113.965 C 193.454 113.535,193.188 112.349,192.963 111.328 C 192.739 110.308,192.466 109.077,192.357 108.594 C 192.249 108.110,192.073 107.319,191.966 106.836 C 191.859 106.353,191.696 105.649,191.604 105.273 C 191.511 104.897,191.331 104.062,191.203 103.418 C 191.075 102.773,190.903 101.982,190.820 101.660 C 190.738 101.338,190.559 100.547,190.423 99.902 C 190.287 99.258,190.059 98.258,189.916 97.680 C 189.774 97.102,189.704 96.553,189.762 96.459 C 189.935 96.179,194.841 96.248,195.068 96.533 M251.465 96.846 C 255.461 98.663,255.557 104.316,251.620 105.961 L 250.911 106.258 251.414 106.791 C 252.088 107.506,252.949 109.018,253.496 110.449 C 253.743 111.094,254.020 111.797,254.112 112.012 C 254.205 112.227,254.497 113.062,254.762 113.867 C 255.026 114.673,255.303 115.486,255.377 115.674 C 255.500 115.989,255.301 116.016,252.779 116.016 C 249.754 116.016,249.832 116.047,249.423 114.648 C 247.845 109.258,247.118 108.204,244.975 108.203 L 244.149 108.203 244.096 112.061 L 244.043 115.918 241.406 115.918 L 238.770 115.918 238.715 106.543 C 238.686 101.387,238.711 96.963,238.772 96.713 L 238.882 96.259 244.685 96.330 C 250.224 96.398,250.533 96.422,251.465 96.846 M262.891 104.199 L 262.891 112.109 266.895 112.109 L 270.898 112.109 270.898 114.063 L 270.898 116.016 264.160 116.016 L 257.422 116.016 257.422 106.152 L 257.422 96.289 260.156 96.289 L 262.891 96.289 262.891 104.199 M285.190 96.737 C 290.437 98.116,293.000 102.799,291.737 108.704 C 290.564 114.194,287.199 116.007,278.174 116.013 L 273.242 116.016 273.242 106.283 C 273.242 100.929,273.308 96.482,273.389 96.401 C 273.661 96.124,283.977 96.418,285.190 96.737 M322.266 103.125 C 322.387 111.513,322.576 112.075,325.339 112.255 C 328.442 112.457,328.780 111.582,328.906 103.027 L 329.004 96.387 331.543 96.387 L 334.082 96.387 334.082 103.516 C 334.082 111.263,334.040 111.626,332.971 113.217 C 329.789 117.954,319.774 117.387,317.636 112.349 C 316.902 110.620,316.332 98.118,316.918 96.592 C 317.022 96.322,317.393 96.286,319.603 96.332 L 322.168 96.387 322.266 103.125 M346.875 96.686 C 350.193 97.889,351.563 99.645,351.563 102.696 C 351.563 106.691,349.078 108.762,343.896 109.086 L 341.797 109.217 341.797 112.616 L 341.797 116.016 339.063 116.016 L 336.328 116.016 336.328 106.283 C 336.328 100.929,336.394 96.482,336.475 96.399 C 336.720 96.146,346.101 96.406,346.875 96.686 M142.253 96.631 C 142.338 96.770,141.093 100.028,140.760 100.539 C 140.644 100.717,139.672 100.781,137.098 100.781 L 133.594 100.781 133.594 102.734 L 133.594 104.688 136.523 104.688 C 139.491 104.688,139.639 104.727,139.276 105.423 C 139.179 105.609,138.803 106.509,138.442 107.422 L 137.785 109.082 135.689 109.137 L 133.594 109.193 133.594 112.565 C 133.594 116.713,133.851 116.406,130.371 116.406 C 128.490 116.406,127.543 116.332,127.383 116.172 C 127.207 115.996,127.148 113.516,127.148 106.211 L 127.148 96.484 134.656 96.484 C 138.786 96.484,142.205 96.550,142.253 96.631 M150.344 106.396 L 150.293 116.309 147.488 116.363 C 145.585 116.400,144.595 116.345,144.411 116.193 C 144.123 115.953,143.987 96.899,144.271 96.615 C 144.342 96.543,145.750 96.484,147.398 96.484 L 150.394 96.484 150.344 106.396 M169.531 96.729 C 169.531 96.864,169.304 97.589,169.026 98.341 C 168.748 99.092,168.431 99.949,168.323 100.244 L 168.126 100.781 164.532 100.781 L 160.938 100.781 160.938 102.734 L 160.938 104.688 163.867 104.688 C 165.479 104.688,166.796 104.753,166.796 104.834 C 166.794 105.128,165.420 108.663,165.209 108.917 C 165.052 109.106,164.423 109.180,162.964 109.180 L 160.938 109.180 160.938 112.559 C 160.938 114.926,160.867 116.008,160.703 116.172 C 160.260 116.615,154.940 116.488,154.694 116.028 C 154.469 115.608,154.400 96.837,154.622 96.615 C 154.885 96.352,169.531 96.464,169.531 96.729 M179.778 96.826 C 179.851 97.014,180.217 98.003,180.592 99.023 C 181.760 102.201,181.983 102.805,182.326 103.711 C 182.509 104.194,182.816 105.073,183.008 105.664 C 183.347 106.708,183.852 108.093,184.184 108.887 C 184.372 109.336,185.239 111.792,185.667 113.086 C 185.826 113.569,186.032 114.141,186.123 114.355 C 187.010 116.447,187.055 116.406,183.862 116.406 C 180.792 116.406,180.607 116.339,180.271 115.096 C 179.867 113.602,180.023 113.657,176.291 113.716 L 172.949 113.770 172.581 114.941 C 172.107 116.447,172.218 116.400,169.183 116.403 C 166.035 116.407,165.955 116.319,166.995 113.965 C 167.090 113.750,167.298 113.179,167.458 112.695 C 167.617 112.212,168.025 111.069,168.364 110.156 C 168.703 109.243,169.052 108.276,169.141 108.008 C 169.229 107.739,169.580 106.772,169.922 105.859 C 170.263 104.946,170.616 103.979,170.706 103.711 C 170.795 103.442,171.234 102.212,171.680 100.977 C 172.126 99.741,172.629 98.335,172.797 97.852 C 173.288 96.438,173.161 96.484,176.566 96.484 C 179.318 96.484,179.660 96.521,179.778 96.826 M226.660 99.936 C 226.445 99.979,226.073 100.057,225.834 100.108 C 225.219 100.239,224.072 101.295,223.753 102.023 C 223.056 103.611,222.972 104.055,222.975 106.137 C 222.982 110.297,224.326 112.207,227.246 112.207 C 231.000 112.207,232.825 107.272,230.897 102.333 C 230.263 100.707,228.307 99.600,226.660 99.936 M244.183 102.197 L 244.238 104.395 245.996 104.325 C 248.537 104.224,249.219 103.772,249.219 102.188 C 249.219 100.779,247.786 100.000,245.194 100.000 L 244.128 100.000 244.183 102.197 M341.840 102.686 L 341.895 105.371 342.480 105.438 C 344.605 105.683,346.094 104.573,346.094 102.746 C 346.094 100.902,345.025 100.000,342.842 100.000 L 341.786 100.000 341.840 102.686 M278.662 100.303 C 278.582 100.387,278.516 103.078,278.516 106.283 L 278.516 112.109 280.097 112.109 C 284.774 112.109,287.382 109.133,286.452 104.857 C 285.970 102.640,285.228 101.616,283.522 100.814 C 282.587 100.374,278.959 99.993,278.662 100.303 M176.172 102.530 C 176.172 102.740,176.089 103.113,175.987 103.360 C 175.886 103.607,175.610 104.468,175.374 105.273 C 175.139 106.079,174.782 107.258,174.582 107.894 C 173.967 109.848,173.884 109.766,176.465 109.766 C 177.778 109.766,178.711 109.687,178.711 109.577 C 178.711 109.473,178.592 109.012,178.446 108.552 C 178.300 108.091,178.071 107.319,177.935 106.836 C 177.800 106.353,177.617 105.737,177.530 105.469 C 177.442 105.200,177.176 104.343,176.939 103.564 C 176.525 102.205,176.172 101.728,176.172 102.530 M152.930 122.160 C 156.694 123.110,158.946 124.675,160.224 127.226 C 163.001 132.772,160.397 139.021,154.150 141.801 C 152.859 142.375,152.851 142.344,154.541 143.216 C 155.320 143.617,156.704 144.348,157.617 144.840 C 158.530 145.332,159.893 146.054,160.645 146.445 C 163.646 148.005,164.844 150.179,164.844 154.066 C 164.844 154.589,161.774 153.185,155.957 149.999 C 155.420 149.705,153.662 148.782,152.051 147.949 C 145.289 144.453,143.938 143.590,141.693 141.327 C 137.594 137.197,136.884 131.238,139.941 126.624 C 142.321 123.032,148.276 120.985,152.930 122.160 M193.010 125.586 L 192.916 128.516 196.328 128.516 C 198.204 128.516,199.783 128.559,199.837 128.613 C 199.952 128.728,199.526 130.876,199.174 131.952 L 198.925 132.715 195.947 132.769 L 192.969 132.823 192.969 136.709 C 192.969 142.665,191.930 142.223,205.733 142.147 L 216.056 142.090 216.027 139.251 C 215.960 132.616,218.434 129.343,224.299 128.307 C 225.628 128.073,231.853 128.166,233.352 128.443 L 233.988 128.561 233.937 137.571 L 233.887 146.582 231.348 146.582 L 228.809 146.582 228.756 142.822 C 228.696 138.599,228.640 138.480,227.673 140.516 C 226.343 143.318,224.560 145.460,222.914 146.232 C 222.217 146.559,221.185 146.582,207.324 146.582 L 192.480 146.582 191.319 146.114 C 188.296 144.896,187.641 143.361,187.544 137.263 L 187.474 132.827 185.778 132.771 L 184.082 132.715 184.122 131.641 C 184.144 131.050,184.216 130.105,184.282 129.541 L 184.403 128.516 185.952 128.516 L 187.500 128.516 187.500 127.290 C 187.500 125.643,188.648 124.428,191.309 123.259 C 191.631 123.117,192.026 122.929,192.188 122.840 C 193.071 122.354,193.109 122.481,193.010 125.586 M265.723 123.835 C 268.756 124.975,270.315 127.221,270.310 130.444 C 270.304 135.206,267.164 138.368,259.668 141.159 C 258.809 141.479,257.930 141.819,257.715 141.915 C 257.472 142.024,259.902 142.127,264.160 142.188 L 270.996 142.285 271.059 142.732 C 271.120 143.161,270.660 145.278,270.300 146.224 L 270.127 146.680 261.523 146.680 L 252.920 146.680 252.730 146.179 C 252.625 145.904,252.484 145.085,252.417 144.359 L 252.294 143.040 253.833 142.097 C 259.699 138.499,261.017 137.574,262.751 135.839 C 265.430 133.160,265.598 129.630,263.116 128.171 C 261.580 127.268,257.710 127.456,254.492 128.591 C 253.077 129.090,253.070 129.073,253.823 126.830 C 254.610 124.486,254.839 124.284,257.422 123.658 C 259.751 123.093,263.989 123.183,265.723 123.835 M288.872 123.891 C 294.866 126.105,297.282 131.278,295.296 137.650 C 293.476 143.491,286.684 148.114,282.285 146.506 C 272.896 143.074,269.747 130.882,276.855 125.488 C 279.702 123.328,285.325 122.580,288.872 123.891 M310.059 123.835 C 313.363 125.072,314.554 126.865,314.532 130.566 C 314.504 135.320,311.815 138.134,304.676 140.884 C 303.447 141.357,302.266 141.822,302.051 141.917 C 301.810 142.024,304.279 142.127,308.496 142.188 L 315.332 142.285 315.289 143.317 C 315.238 144.532,314.750 146.299,314.404 146.519 C 314.270 146.604,310.362 146.675,305.720 146.677 C 295.955 146.680,296.873 146.917,296.879 144.398 L 296.882 142.871 299.174 141.516 C 306.739 137.040,309.085 134.680,309.079 131.551 C 309.072 127.558,305.051 126.397,298.828 128.591 C 297.438 129.081,297.436 129.076,298.056 127.132 C 298.931 124.388,299.659 123.875,303.418 123.356 C 305.074 123.127,308.905 123.403,310.059 123.835 M330.397 123.793 C 336.579 126.109,336.774 133.703,330.762 137.995 C 329.130 139.160,323.397 141.802,322.510 141.798 C 322.375 141.797,322.266 141.885,322.266 141.992 C 322.266 142.119,324.638 142.188,328.992 142.188 C 336.368 142.188,336.097 142.138,335.777 143.424 C 335.665 143.872,335.468 144.678,335.338 145.215 C 335.208 145.752,334.965 146.301,334.799 146.436 C 334.428 146.734,318.051 146.788,317.583 146.492 C 317.366 146.355,317.294 145.889,317.290 144.601 L 317.285 142.892 319.043 141.834 C 326.437 137.383,328.798 135.275,329.496 132.498 C 330.607 128.084,325.504 126.188,319.099 128.634 C 317.905 129.090,317.846 128.992,318.349 127.404 C 319.207 124.695,319.401 124.470,321.387 123.868 C 323.815 123.133,328.531 123.094,330.397 123.793 M66.192 124.352 C 66.444 124.907,66.327 125.194,65.987 124.854 C 65.828 124.695,65.568 124.771,65.010 125.140 C 64.592 125.417,64.186 125.576,64.107 125.494 C 64.029 125.412,64.128 125.245,64.328 125.124 C 65.199 124.593,65.642 124.153,65.549 123.912 C 65.365 123.431,65.957 123.837,66.192 124.352 M67.181 126.025 C 67.178 126.160,67.046 126.440,66.888 126.649 C 66.404 127.289,66.532 127.532,67.326 127.484 C 68.347 127.424,68.381 127.907,67.395 128.467 C 66.431 129.015,65.998 129.036,66.565 128.508 C 67.134 127.977,67.110 127.935,66.309 128.065 C 65.533 128.191,65.447 127.993,65.944 127.233 C 66.286 126.712,66.163 126.337,65.778 126.722 C 65.651 126.849,65.433 126.953,65.293 126.953 C 64.967 126.953,64.958 126.564,65.283 126.558 C 65.417 126.556,65.747 126.382,66.016 126.172 C 66.570 125.739,67.191 125.661,67.181 126.025 M147.984 126.466 C 141.963 128.120,142.376 135.804,148.706 139.902 C 151.347 141.612,151.258 141.588,152.070 140.806 C 155.179 137.814,156.386 133.469,155.072 129.996 C 153.949 127.028,151.101 125.609,147.984 126.466 M80.014 127.484 C 79.837 127.772,80.046 128.317,80.547 128.874 C 80.772 129.125,80.957 129.559,80.957 129.838 C 80.957 130.660,82.112 131.256,82.653 130.715 C 83.138 130.230,82.644 128.779,82.069 129.000 C 81.874 129.075,81.491 128.796,80.959 128.192 C 80.465 127.630,80.095 127.353,80.014 127.484 M283.105 127.661 C 280.140 128.099,278.516 130.452,278.516 134.309 C 278.516 136.428,278.587 136.943,279.158 138.965 C 280.272 142.908,283.553 145.695,285.687 144.513 C 290.249 141.986,292.107 132.549,288.711 129.154 C 287.539 127.981,285.183 127.354,283.105 127.661 M181.301 128.435 L 181.840 128.562 181.789 137.572 L 181.738 146.582 179.199 146.582 L 176.660 146.582 176.607 142.627 C 176.575 140.212,176.480 138.672,176.363 138.672 C 176.258 138.672,176.172 138.765,176.172 138.879 C 176.172 138.994,175.891 139.675,175.547 140.393 C 171.019 149.852,163.671 148.961,163.672 138.953 C 163.673 133.045,166.196 129.609,171.413 128.412 C 172.589 128.142,180.132 128.160,181.301 128.435 M250.958 130.590 C 251.288 133.428,251.247 133.594,250.207 133.594 C 246.562 133.594,244.396 137.374,243.606 145.117 L 243.457 146.582 240.918 146.582 L 238.379 146.582 238.260 138.574 C 238.195 134.170,238.073 130.105,237.989 129.541 L 237.836 128.516 240.391 128.516 C 243.464 128.516,243.190 128.195,243.433 132.078 C 243.640 135.362,243.769 135.643,244.336 134.033 C 245.310 131.270,246.937 129.283,248.828 128.553 C 250.636 127.855,250.642 127.860,250.958 130.590 M84.882 128.855 C 84.667 129.070,84.772 129.586,85.124 130.044 C 85.441 130.457,85.498 130.470,85.735 130.184 C 86.139 129.697,85.319 128.418,84.882 128.855 M87.970 129.851 C 87.788 130.064,87.519 130.194,87.374 130.138 C 86.893 129.953,87.082 131.042,87.730 132.196 C 89.118 134.668,89.453 135.402,89.453 135.965 C 89.453 136.689,89.858 136.629,90.128 135.865 C 90.348 135.244,90.020 134.526,88.958 133.303 C 87.859 132.038,87.877 130.664,88.991 130.664 C 89.450 130.664,90.307 131.560,90.176 131.903 C 90.013 132.326,89.813 132.311,89.305 131.838 C 88.712 131.286,88.583 131.683,89.154 132.300 C 89.723 132.913,90.336 132.961,90.629 132.414 C 90.887 131.933,90.747 131.421,90.229 130.953 C 90.017 130.761,89.844 130.435,89.844 130.229 C 89.844 129.949,89.728 129.870,89.383 129.915 C 89.129 129.949,88.782 129.860,88.612 129.719 C 88.351 129.503,88.251 129.523,87.970 129.851 M83.984 130.670 C 83.984 130.888,84.116 131.118,84.277 131.179 C 84.656 131.325,84.640 131.443,84.169 132.009 C 83.807 132.444,83.757 132.454,83.428 132.156 C 83.234 131.980,82.928 131.836,82.748 131.836 C 82.163 131.836,82.404 132.363,83.296 133.034 C 83.777 133.395,84.217 133.828,84.273 133.994 C 84.560 134.833,87.095 136.743,87.841 136.682 C 88.863 136.597,89.013 135.365,88.140 134.222 C 87.835 133.823,87.457 133.240,87.299 132.927 C 87.141 132.614,86.748 132.199,86.426 132.005 C 86.104 131.811,85.515 131.342,85.119 130.963 C 84.299 130.179,83.984 130.098,83.984 130.670 M70.958 132.964 C 70.302 134.344,68.437 139.805,68.256 140.877 C 68.198 141.222,68.103 141.658,68.046 141.846 C 67.735 142.871,68.419 143.250,69.155 142.461 C 69.966 141.594,70.976 141.189,72.065 141.295 C 73.132 141.400,73.363 141.210,74.116 139.600 C 74.304 139.197,74.536 138.867,74.632 138.867 C 75.121 138.867,74.340 136.467,72.950 133.701 C 71.761 131.337,71.736 131.328,70.958 132.964 M224.948 132.271 C 221.847 132.530,221.484 132.983,221.484 136.596 C 221.484 143.760,224.390 144.349,226.904 137.695 C 227.488 136.149,228.516 132.862,228.516 132.539 C 228.516 132.182,227.205 132.083,224.948 132.271 M171.313 132.422 C 169.268 132.905,168.749 134.775,169.419 139.239 C 170.143 144.061,172.857 142.923,174.968 136.914 C 175.527 135.323,176.367 132.617,176.367 132.408 C 176.367 132.189,172.253 132.200,171.313 132.422 M286.377 133.754 C 287.777 135.090,287.782 135.038,286.129 136.597 C 284.453 138.178,284.527 138.178,282.937 136.626 C 281.341 135.069,281.340 135.120,283.000 133.517 C 284.582 131.990,284.523 131.986,286.377 133.754 M81.313 133.516 C 81.149 133.943,81.620 134.212,82.310 134.085 C 83.082 133.944,83.175 133.808,82.726 133.480 C 82.219 133.110,81.462 133.129,81.313 133.516 M82.397 134.863 C 82.384 134.917,82.362 135.045,82.349 135.148 C 82.335 135.251,82.148 135.464,81.934 135.623 C 81.620 135.854,81.591 135.960,81.787 136.159 C 81.921 136.295,82.031 136.652,82.031 136.953 C 82.031 137.281,82.136 137.500,82.294 137.500 C 82.438 137.500,82.723 137.684,82.927 137.909 C 83.567 138.617,83.973 138.743,84.391 138.364 C 85.007 137.807,84.672 136.719,83.884 136.719 C 83.557 136.719,83.555 136.743,83.856 137.076 C 84.343 137.614,84.260 137.926,83.647 137.855 C 82.695 137.744,82.361 136.101,83.243 135.870 C 83.832 135.716,84.373 135.991,85.655 137.093 C 86.946 138.205,87.463 138.419,88.068 138.096 C 88.645 137.787,88.575 137.500,87.921 137.500 C 87.565 137.500,86.609 137.010,85.254 136.133 C 83.408 134.938,82.482 134.526,82.397 134.863 M91.998 141.553 C 93.587 144.671,93.646 144.758,94.472 145.185 C 95.088 145.503,95.405 146.040,96.680 148.926 C 98.157 152.269,98.438 153.117,98.438 154.246 C 98.438 155.292,99.262 156.836,99.821 156.836 C 100.302 156.836,100.007 154.318,99.450 153.669 C 99.147 153.316,98.786 152.720,98.649 152.344 C 98.402 151.672,98.223 151.212,97.867 150.342 C 97.769 150.100,97.153 148.801,96.500 147.455 C 95.668 145.740,95.311 144.775,95.308 144.232 C 95.301 143.198,94.249 141.691,92.415 140.088 C 90.477 138.393,90.445 138.505,91.998 141.553 M87.761 139.761 C 87.319 140.202,87.269 140.383,87.352 141.246 C 87.451 142.278,87.885 142.835,88.112 142.222 C 88.715 140.591,90.047 141.655,90.838 144.400 C 91.227 145.749,91.910 146.489,92.871 146.603 C 94.098 146.749,94.332 146.446,93.535 145.741 C 92.862 145.146,92.711 144.892,91.622 142.516 C 90.306 139.646,88.888 138.634,87.761 139.761 M75.697 141.384 C 75.616 141.516,75.603 141.838,75.669 142.101 C 75.737 142.373,75.703 142.578,75.590 142.578 C 75.480 142.578,75.391 142.702,75.391 142.853 C 75.391 143.026,75.527 143.092,75.759 143.031 C 75.962 142.978,76.187 143.030,76.259 143.147 C 76.445 143.448,76.758 143.410,76.758 143.087 C 76.758 142.938,76.622 142.763,76.456 142.699 C 76.290 142.636,76.171 142.472,76.193 142.337 C 76.264 141.895,75.861 141.120,75.697 141.384 M82.454 143.885 C 82.308 144.159,82.300 144.495,82.428 144.944 C 82.532 145.307,82.617 145.625,82.617 145.653 C 82.617 145.681,82.397 145.703,82.129 145.703 C 81.430 145.703,81.482 146.469,82.235 147.275 C 82.649 147.718,82.768 147.974,82.626 148.116 C 81.505 149.237,83.551 149.908,86.231 149.298 C 90.474 148.332,92.295 149.336,92.142 152.558 C 92.092 153.607,92.127 153.799,92.331 153.595 C 92.702 153.224,92.688 150.974,92.310 150.244 C 91.485 148.649,90.305 148.185,87.012 148.160 C 84.608 148.143,84.184 147.984,83.674 146.909 C 82.887 145.249,84.878 143.524,85.857 145.018 C 86.273 145.653,86.086 146.484,85.529 146.484 C 84.917 146.484,85.138 147.154,85.774 147.228 C 86.856 147.354,87.280 145.718,86.475 144.524 C 85.882 143.645,84.964 143.406,83.946 143.865 C 83.226 144.190,83.184 144.189,82.932 143.844 C 82.678 143.497,82.661 143.499,82.454 143.885 M76.259 144.158 C 76.187 144.274,76.226 144.468,76.345 144.587 C 76.505 144.747,76.563 144.691,76.563 144.375 C 76.563 143.903,76.461 143.831,76.259 144.158 M87.305 144.533 C 87.431 144.768,87.504 145.435,87.468 146.015 C 87.398 147.134,87.481 147.256,87.974 146.764 C 88.488 146.250,88.549 145.571,88.144 144.878 C 87.708 144.131,86.916 143.805,87.305 144.533 M97.485 144.877 C 96.946 145.885,97.969 150.188,98.749 150.194 C 100.287 150.206,99.918 147.403,98.057 144.935 L 97.704 144.467 97.485 144.877 M93.733 147.974 C 94.546 150.733,95.164 151.614,96.227 151.526 C 97.229 151.444,97.219 150.811,96.184 148.828 C 95.567 147.647,93.416 146.897,93.733 147.974 M87.475 149.942 C 86.653 150.069,84.570 152.134,85.120 152.278 C 85.376 152.345,85.547 152.543,85.547 152.773 C 85.547 152.985,85.613 153.128,85.693 153.091 C 85.774 153.055,86.279 152.796,86.816 152.516 C 88.143 151.824,89.661 151.491,90.744 151.653 C 91.562 151.776,91.616 151.759,91.439 151.428 C 90.809 150.251,89.255 149.668,87.475 149.942 M94.951 153.166 C 93.520 153.859,92.188 155.369,92.188 156.297 C 92.188 156.899,92.252 157.048,92.474 156.963 C 92.632 156.903,92.813 156.937,92.876 157.040 C 93.094 157.393,93.301 157.225,93.669 156.396 C 93.871 155.940,94.685 154.929,95.476 154.150 C 97.066 152.586,96.877 152.232,94.951 153.166 M97.079 154.736 C 96.084 155.705,95.659 156.936,96.086 157.611 C 96.291 157.935,97.070 157.217,97.070 156.704 C 97.070 156.556,97.290 156.352,97.559 156.250 C 97.990 156.086,98.047 155.950,98.047 155.083 C 98.047 153.929,97.945 153.892,97.079 154.736 M100.977 155.592 C 100.977 156.062,101.850 157.046,102.220 156.993 C 102.902 156.896,102.871 156.135,102.170 155.773 C 101.568 155.461,100.977 155.372,100.977 155.592 M98.331 156.800 C 98.160 156.922,97.266 158.527,97.266 158.710 C 97.266 159.023,98.252 158.705,98.513 158.308 C 99.014 157.543,98.876 156.408,98.331 156.800 M100.781 157.239 C 100.781 157.905,101.153 158.398,101.656 158.398 C 102.411 158.398,102.463 157.995,101.786 157.390 C 101.050 156.732,100.781 156.692,100.781 157.239 M99.131 157.471 C 98.896 158.230,98.883 159.375,99.109 159.375 C 99.468 159.375,100.001 158.718,99.994 158.285 C 99.982 157.597,99.293 156.946,99.131 157.471 M100.507 158.542 C 100.091 158.958,100.715 159.908,101.266 159.696 C 101.505 159.605,101.519 159.492,101.340 159.099 C 101.113 158.602,100.714 158.335,100.507 158.542 M89.974 163.216 C 89.902 163.288,89.844 163.761,89.844 164.268 C 89.844 165.014,89.772 165.208,89.466 165.288 C 89.196 165.358,89.118 165.502,89.193 165.791 C 89.444 166.750,88.333 167.498,87.879 166.676 C 87.470 165.934,86.654 165.825,86.015 166.425 C 85.141 167.246,85.538 169.682,86.426 168.945 C 86.587 168.812,86.719 168.520,86.719 168.296 C 86.719 167.981,86.667 167.943,86.484 168.125 C 86.110 168.499,85.938 168.400,85.938 167.813 C 85.938 167.183,86.251 166.797,86.762 166.797 C 87.365 166.797,87.575 167.586,87.334 168.952 C 87.115 170.196,87.233 170.754,87.757 170.955 C 88.288 171.159,90.141 171.299,90.332 171.149 C 90.613 170.929,91.016 170.168,91.016 169.857 C 91.016 169.488,91.553 168.448,91.886 168.171 C 92.375 167.766,93.003 168.267,92.931 169.006 C 92.861 169.729,92.188 170.041,92.188 169.350 C 92.188 169.128,92.100 168.945,91.992 168.945 C 91.707 168.945,91.753 170.254,92.041 170.360 C 92.470 170.518,92.761 170.300,93.103 169.564 C 93.287 169.170,93.529 168.775,93.642 168.686 C 93.782 168.576,93.770 168.493,93.604 168.426 C 93.469 168.371,93.359 168.165,93.359 167.967 C 93.359 167.303,92.290 166.953,91.693 167.422 C 91.417 167.640,91.166 167.786,91.137 167.747 C 90.772 167.264,90.619 166.393,90.829 166.000 C 91.022 165.639,91.012 165.519,90.772 165.344 C 90.551 165.182,90.503 164.876,90.577 164.108 C 90.671 163.122,90.428 162.762,89.974 163.216 M77.377 172.183 C 77.157 172.433,77.234 172.593,77.903 173.261 C 78.372 173.730,78.816 174.433,79.008 175.011 C 79.370 176.103,79.527 176.190,79.851 175.479 C 80.420 174.230,79.836 172.691,78.595 172.173 C 77.734 171.813,77.704 171.813,77.377 172.183 M80.008 177.441 C 79.847 177.603,79.511 177.724,79.262 177.712 C 78.863 177.692,78.856 177.678,79.199 177.595 C 79.414 177.543,79.673 177.422,79.775 177.325 C 80.095 177.021,80.317 177.133,80.008 177.441 M90.557 179.164 C 90.672 179.279,90.564 179.307,88.712 179.635 C 87.482 179.853,87.216 179.647,88.214 179.249 C 88.896 178.977,90.319 178.926,90.557 179.164 " stroke="none" fill="#000000" fill-rule="evenodd"></path></g></svg>