<svg height="512pt" viewBox="0 0 512 512" width="512pt" xmlns="http://www.w3.org/2000/svg"><path d="m263.628906 139.1875c0-18.277344-8.242187-34.617188-21.203125-45.535156-4.054687-46.925782-40.503906-83.652344-84.878906-83.652344-42.042969 0-76.972656 32.96875-83.976563 76.339844-19.09375 9.910156-32.148437 29.847656-32.148437 52.847656 0 11.039062 3.019531 21.375 8.257813 30.238281-5.273438 10.082031-8.257813 21.546875-8.257813 33.714844 0 40.246094 32.628906 72.875 72.875 72.875 13.558594 0 26.246094-3.714844 37.117187-10.164063 10.566407 6.460938 22.761719 10.164063 35.757813 10.164063 40.25 0 72.878906-35.34375 72.878906-78.945313 0-9.757812-1.652343-19.089843-4.640625-27.714843 5.214844-8.847657 8.21875-19.15625 8.21875-30.167969zm0 0" fill="#50d670"/><g fill="#ff5d5d"><path d="m216 190c0 11.046875-8.953125 20-20 20s-20-8.953125-20-20 8.953125-20 20-20 20 8.953125 20 20zm0 0"/><path d="m137.488281 210c0 11.046875-8.953125 20-20 20-11.042969 0-20-8.953125-20-20s8.957031-20 20-20c11.046875 0 20 8.953125 20 20zm0 0"/><path d="m131.414062 128c0 11.046875-8.953124 20-20 20-11.042968 0-20-8.953125-20-20s8.957032-20 20-20c11.046876 0 20 8.953125 20 20zm0 0"/><path d="m191.414062 81c0 11.046875-8.953124 20-20 20-11.042968 0-20-8.953125-20-20s8.957032-20 20-20c11.046876 0 20 8.953125 20 20zm0 0"/></g><path d="m285.226562 465.5625c0-46.296875-37.53125-83.832031-83.832031-83.832031-7.070312 0-13.933593.886719-20.496093 2.535156-17.167969-23.898437-45.214844-39.449219-76.90625-39.351563-52.136719.164063-93.992188 43.238282-93.992188 95.371094 0 34.085938 27.628906 61.714844 61.714844 61.714844h177.074218c20.125 0 36.4375-16.3125 36.4375-36.4375" fill="#fff"/><path d="m502 446.65625c0-36.777344-28.949219-67.511719-65.714844-68.628906-7.84375-.238282-15.398437.863281-22.460937 3.082031.132812-1.875.226562-3.757813.226562-5.664063 0-43.703124-35.429687-79.128906-79.128906-79.128906-31.257813 0-58.273437 18.128906-71.132813 44.441406-.882812-.035156-1.769531-.066406-2.660156-.066406-35.179687 0-64.308594 25.882813-69.394531 59.640625-10.601563-8.808593-24.328125-13.988281-39.273437-13.609375-32.1875.808594-57.589844 27.738282-57.589844 59.933594v.171875c0 30.472656 24.699218 55.171875 55.171875 55.171875h296.617187c30.5625 0 55.339844-24.777344 55.339844-55.34375zm0 0" fill="#50d670"/><path d="m285.226562 465.5625c0-46.296875-37.53125-83.832031-83.832031-83.832031-7.070312 0-13.933593.886719-20.496093 2.535156-17.167969-23.898437-45.214844-39.449219-76.90625-39.351563-52.136719.164063-93.992188 43.238282-93.992188 95.371094 0 34.085938 27.628906 61.714844 61.714844 61.714844h177.074218c20.125 0 36.4375-16.3125 36.4375-36.4375" fill="#d8fb93"/><path d="m490.171875 392.070312c-14.179687-14.882812-33.207031-23.421874-53.582031-24.039062-4.300782-.128906-8.574219.085938-12.792969.652344-3.46875-46-42.003906-82.367188-88.875-82.367188-32.203125 0-61.210937 16.871094-77.132813 44.441406-28.054687 1.171876-53.535156 17.070313-66.992187 41.59375-1.945313.21875-3.886719.476563-5.8125.820313-1.15625-1.410156-2.347656-2.78125-3.570313-4.121094v-83.261719c1.914063.144532 3.832032.222657 5.757813.222657 45.699219 0 82.878906-39.898438 82.878906-88.945313 0-9.097656-1.285156-18.050781-3.816406-26.683594 4.851563-9.648437 7.394531-20.34375 7.394531-31.199218 0-19.152344-7.847656-37.300782-21.660156-50.410156-2.917969-23.609376-13.417969-45.371094-29.816406-61.644532-17.636719-17.492187-40.582032-27.128906-64.605469-27.128906-44.921875 0-83.3125 33.332031-92.964844 79.9375-20.574219 12.613281-33.160156 34.878906-33.160156 59.25 0 10.59375 2.421875 21.03125 7.046875 30.492188-4.621094 10.484374-7.046875 21.945312-7.046875 33.460937 0 45.699219 37.179687 82.875 82.875 82.875 2.382813 0 4.757813-.105469 7.117187-.308594v50.636719c-5.621093-.941406-11.347656-1.429688-17.132812-1.429688-.105469 0-.214844 0-.320312 0-57.324219.179688-103.960938 47.449219-103.960938 105.371094 0 39.542969 32.171875 71.714844 71.714844 71.714844h177.074218c25.605469 0 46.441407-20.832031 46.441407-46.4375 0-47.246094-35.101563-86.4375-80.59375-92.890625 11.28125-13.683594 28.277343-21.980469 46.492187-21.980469.742188 0 1.476563.027344 2.285156.058594 3.933594.148438 7.625-2.046875 9.359376-5.601562 11.703124-23.953126 35.515624-38.832032 62.148437-38.832032 38.117187 0 69.128906 31.011719 69.128906 69.128906 0 1.472657-.066406 3.046876-.199219 4.957032-.234374 3.300781 1.179688 6.503906 3.777344 8.554687 2.59375 2.050781 6.035156 2.683594 9.195313 1.691407 6.175781-1.9375 12.621093-2.824219 19.160156-2.625 30.886719.9375 56.015625 27.242187 56.015625 58.632812 0 25.003906-20.339844 45.34375-45.34375 45.34375h-81.429688c-5.519531 0-10 4.476562-10 10s4.480469 10 10 10h81.429688c36.03125 0 65.34375-29.3125 65.34375-65.34375 0-20.421875-7.753906-39.808594-21.828125-54.585938zm-438.75-188.929687c0-10.265625 2.394531-20.046875 7.117187-29.082031 1.605469-3.066406 1.511719-6.746094-.25-9.722656-4.492187-7.597657-6.867187-16.292969-6.867187-25.148438 0-18.558594 10.253906-35.410156 26.753906-43.972656 2.808594-1.457032 4.761719-4.160156 5.265625-7.28125 6.355469-39.363282 37.523438-67.933594 74.105469-67.933594 39.039063 0 71.246094 32.03125 74.914063 74.511719.226562 2.640625 1.492187 5.082031 3.519531 6.789062 11.214843 9.445313 17.648437 23.253907 17.648437 37.886719 0 8.828125-2.363281 17.503906-6.832031 25.09375-1.488281 2.523438-1.796875 5.578125-.835937 8.347656 2.710937 7.835938 4.089843 16.058594 4.089843 24.4375 0 38.019532-28.207031 68.949219-62.878906 68.949219-10.675781 0-21.234375-3.007813-30.539063-8.695313-1.601562-.980468-3.410156-1.46875-5.21875-1.46875-1.761718 0-3.527343.464844-5.101562 1.398438-9.667969 5.734375-20.738281 8.765625-32.015625 8.765625-34.667969 0-62.875-28.207031-62.875-62.875zm89.992187 78.304687c3.390626-1.171874 6.710938-2.558593 9.929688-4.171874 3.265625 1.683593 6.632812 3.125 10.070312 4.328124v70.40625c-6.28125-4.113281-12.988281-7.539062-20-10.21875zm133.816407 184.117188c0 14.578125-11.859375 26.4375-26.441407 26.4375h-177.074218c-28.515625 0-51.714844-23.199219-51.714844-51.714844 0-46.929687 37.691406-85.226562 84.023438-85.371094h.257812c27.066406 0 52.65625 13.140626 68.496094 35.1875 2.394531 3.332032 6.578125 4.863282 10.558594 3.863282 5.894531-1.480469 11.972656-2.234375 18.0625-2.234375 40.707031 0 73.832031 33.121093 73.832031 73.832031zm0 0"/><path d="m325.230469 492c-2.640625 0-5.210938 1.070312-7.070313 2.929688-1.859375 1.859374-2.929687 4.441406-2.929687 7.070312s1.070312 5.210938 2.929687 7.070312c1.859375 1.859376 4.429688 2.929688 7.070313 2.929688 2.628906 0 5.207031-1.070312 7.070312-2.929688 1.859375-1.859374 2.929688-4.441406 2.929688-7.070312s-1.070313-5.210938-2.929688-7.070312c-1.863281-1.859376-4.441406-2.929688-7.070312-2.929688zm0 0"/><path d="m359.117188 440.929688c-3.902344-3.90625-10.234376-3.90625-14.140626 0l-5.046874 5.046874c-3.90625 3.90625-3.90625 10.238282 0 14.144532 1.953124 1.953125 4.511718 2.929687 7.070312 2.929687s5.117188-.980469 7.070312-2.929687l5.046876-5.050782c3.90625-3.90625 3.90625-10.238281 0-14.140624zm0 0"/><path d="m350.296875 359.796875 2.5-2.5c3.90625-3.90625 3.90625-10.238281 0-14.144531-3.90625-3.902344-10.234375-3.902344-14.144531 0l-2.5 2.5c-3.902344 3.90625-3.902344 10.238281 0 14.144531 1.953125 1.953125 4.511718 2.929687 7.074218 2.929687 2.558594 0 5.117188-.976562 7.070313-2.929687zm0 0"/><path d="m318.570312 398.929688-2.503906-2.503907c-3.90625-3.90625-10.238281-3.90625-14.144531 0-3.902344 3.902344-3.902344 10.234375 0 14.140625l2.507813 2.503906c1.953124 1.953126 4.511718 2.929688 7.070312 2.929688s5.117188-.976562 7.070312-2.929688c3.90625-3.90625 3.90625-10.234374 0-14.140624zm0 0"/><path d="m215.316406 468.175781c2.558594 0 5.117188-.976562 7.070313-2.929687l2.375-2.375c3.90625-3.902344 3.90625-10.234375 0-14.140625s-10.234375-3.90625-14.140625 0l-2.378906 2.375c-3.902344 3.90625-3.902344 10.238281 0 14.140625 1.957031 1.953125 4.515624 2.929687 7.074218 2.929687zm0 0"/><path d="m130.800781 381.199219c-3.90625-3.90625-10.234375-3.90625-14.140625 0-3.90625 3.902343-3.90625 10.234375 0 14.140625l3.1875 3.1875c1.953125 1.953125 4.511719 2.929687 7.070313 2.929687 2.558593 0 5.117187-.976562 7.070312-2.929687 3.90625-3.902344 3.90625-10.234375 0-14.140625zm0 0"/><path d="m59.183594 414.777344-4.507813 4.507812c-3.90625 3.90625-3.90625 10.238282 0 14.140625 1.953125 1.953125 4.511719 2.929688 7.070313 2.929688s5.117187-.976563 7.070312-2.929688l4.507813-4.507812c3.90625-3.90625 3.90625-10.234375 0-14.140625-3.902344-3.90625-10.238281-3.90625-14.140625 0zm0 0"/><path d="m124.558594 445.738281c-3.902344-3.90625-10.234375-3.90625-14.140625 0s-3.90625 10.238281 0 14.140625l5.804687 5.804688c1.953125 1.953125 4.511719 2.929687 7.070313 2.929687 2.558593 0 5.121093-.976562 7.070312-2.929687 3.90625-3.90625 3.90625-10.238282 0-14.140625zm0 0"/><path d="m439.433594 445.066406c2.558594 0 5.117187-.972656 7.070312-2.925781 3.902344-3.90625 3.902344-10.238281 0-14.144531l-4.691406-4.691406c-3.90625-3.90625-10.238281-3.90625-14.144531 0-3.902344 3.90625-3.902344 10.238281 0 14.144531l4.691406 4.691406c1.953125 1.953125 4.511719 2.925781 7.074219 2.925781zm0 0"/><path d="m166 190c0 16.542969 13.457031 30 30 30s30-13.457031 30-30-13.457031-30-30-30-30 13.457031-30 30zm40 0c0 5.515625-4.484375 10-10 10s-10-4.484375-10-10 4.484375-10 10-10 10 4.484375 10 10zm0 0"/><path d="m117.488281 180c-16.542969 0-30 13.457031-30 30s13.457031 30 30 30 30-13.457031 30-30-13.457031-30-30-30zm0 40c-5.511719 0-10-4.484375-10-10s4.488281-10 10-10c5.515625 0 10 4.484375 10 10s-4.484375 10-10 10zm0 0"/><path d="m111.414062 158c16.542969 0 30-13.457031 30-30s-13.457031-30-30-30c-16.542968 0-30 13.457031-30 30s13.457032 30 30 30zm0-40c5.515626 0 10 4.484375 10 10s-4.484374 10-10 10c-5.511718 0-10-4.484375-10-10s4.488282-10 10-10zm0 0"/><path d="m171.414062 111c16.542969 0 30-13.457031 30-30s-13.457031-30-30-30c-16.542968 0-30 13.457031-30 30s13.457032 30 30 30zm0-40c5.515626 0 10 4.484375 10 10s-4.484374 10-10 10c-5.511718 0-10-4.484375-10-10s4.488282-10 10-10zm0 0"/></svg>