<?xml version="1.0" encoding="iso-8859-1"?>
<!-- Generator: Adobe Illustrator 22.1.0, SVG Export Plug-In . SVG Version: 6.00 Build 0)  -->
<svg xmlns="http://www.w3.org/2000/svg" xmlns:xlink="http://www.w3.org/1999/xlink" version="1.1" id="Layer_32" x="0px" y="0px" viewBox="0 0 64 64" style="enable-background:new 0 0 64 64;" xml:space="preserve" width="512" height="512">
<g>
	<g>
		<rect x="8" y="30" style="fill:#80322A;" width="5" height="6"/>
	</g>
	<g>
		<rect x="51" y="30" style="fill:#80322A;" width="5" height="6"/>
	</g>
	<g>
		<rect x="12" y="54" style="fill:#565656;" width="40" height="4"/>
	</g>
	<g>
		<rect x="24" y="54" style="fill:#62380F;" width="16" height="4"/>
	</g>
	<g>
		<rect x="24" y="54" style="fill:#834A14;" width="13" height="4"/>
	</g>
	<g>
		<path style="fill:#737373;" d="M10,62H6c-1.105,0-2-0.895-2-2v-6h8v6C12,61.105,11.105,62,10,62z"/>
	</g>
	<g>
		<path style="fill:#999999;" d="M9,60v-6H4v6c0,1.105,0.895,2,2,2h1C8.105,62,9,61.105,9,60z"/>
	</g>
	<g>
		<path style="fill:#737373;" d="M58,62h-4c-1.105,0-2-0.895-2-2v-6h8v6C60,61.105,59.105,62,58,62z"/>
	</g>
	<g>
		<path style="fill:#999999;" d="M57,60v-6h-5v6c0,1.105,0.895,2,2,2h1C56.105,62,57,61.105,57,60z"/>
	</g>
	<g>
		<path style="fill:#AA4238;" d="M54,40L54,40c4.418,0,8,3.582,8,8v4c0,1.105-0.895,2-2,2H4c-1.105,0-2-0.895-2-2v-4    c0-4.418,3.582-8,8-8h0h0l3.432-13.728C13.766,24.937,14.966,24,16.342,24h31.315c1.377,0,2.577,0.937,2.91,2.272L54,40z"/>
	</g>
	<g>
		<path style="fill:#E3584B;" d="M59,52v-4c0-4.418-3.582-8-8-8l-3.432-13.728C47.234,24.937,46.034,24,44.658,24H16.342    c-1.377,0-2.577,0.937-2.91,2.272L10,40c-4.418,0-8,3.582-8,8v4c0,1.105,0.895,2,2,2h53C58.105,54,59,53.105,59,52z"/>
	</g>
	<g>
		<rect x="8" y="46" style="fill:#FFC24F;" width="6" height="4"/>
	</g>
	<g>
		<rect x="8" y="46" style="fill:#FFCE72;" width="3" height="4"/>
	</g>
	<g>
		<rect x="50" y="46" style="fill:#FFC24F;" width="6" height="4"/>
	</g>
	<g>
		<rect x="50" y="46" style="fill:#FFCE72;" width="3" height="4"/>
	</g>
	<g>
		<polygon style="fill:#69ADDA;" points="14,40 50,40 47,28 17,28   "/>
	</g>
	<g>
		<polygon style="fill:#8EC1E3;" points="17,28 14,40 46,40 43,28   "/>
	</g>
	<g>
		<path style="fill:#737373;" d="M42,54H22v-6c0-5.523,4.477-10,10-10h0c5.523,0,10,4.477,10,10V54z"/>
	</g>
	<g>
		<path style="fill:#999999;" d="M30.5,38.125C25.691,38.85,22,42.988,22,48v6h17v-6C39,42.988,35.309,38.85,30.5,38.125z"/>
	</g>
	<g>
		<rect x="29" y="18" style="fill:#6B6D6E;" width="6" height="6"/>
	</g>
	<g>
		<rect x="29" y="18" style="fill:#A1A3A4;" width="3" height="6"/>
	</g>
	<g>
		<path style="fill:#BF923B;" d="M49,18H15c-1.105,0-2-0.895-2-2V4c0-1.105,0.895-2,2-2h34c1.105,0,2,0.895,2,2v12    C51,17.105,50.105,18,49,18z"/>
	</g>
	<g>
		<path style="fill:#FFC24F;" d="M48,16V4c0-1.105-0.895-2-2-2H15c-1.105,0-2,0.895-2,2v12c0,1.105,0.895,2,2,2h31    C47.105,18,48,17.105,48,16z"/>
	</g>
	<g>
		<path d="M42,55H22c-0.552,0-1-0.448-1-1v-6c0-6.065,4.935-11,11-11s11,4.935,11,11v6C43,54.552,42.552,55,42,55z M23,53h18v-5    c0-4.962-4.038-9-9-9s-9,4.038-9,9V53z"/>
	</g>
	<g>
		<path d="M52,59H12c-0.552,0-1-0.448-1-1v-4c0-0.552,0.448-1,1-1h40c0.552,0,1,0.448,1,1v4C53,58.552,52.552,59,52,59z M13,57h38    v-2H13V57z"/>
	</g>
	<g>
		<path d="M60,55H4c-1.654,0-3-1.346-3-3v-4c0-4.697,3.616-8.564,8.21-8.966l3.251-13.004c0.445-1.784,2.041-3.03,3.88-3.03h31.315    c1.839,0,3.435,1.246,3.88,3.03l3.251,13.004C59.384,39.436,63,43.303,63,48v4C63,53.654,61.654,55,60,55z M16.342,25    c-0.919,0-1.717,0.623-1.94,1.515L10.97,40.243C10.859,40.688,10.459,41,10,41c-3.86,0-7,3.14-7,7v4c0,0.551,0.449,1,1,1h56    c0.551,0,1-0.449,1-1v-4c0-3.86-3.14-7-7-7c-0.459,0-0.859-0.312-0.97-0.757l-3.432-13.728C49.375,25.623,48.577,25,47.658,25    H16.342z"/>
	</g>
	<g>
		<path d="M50,41H38v-2h10.719l-2.5-10H17.781l-2.5,10H26v2H14c-0.308,0-0.599-0.142-0.788-0.385s-0.257-0.559-0.182-0.858l3-12    C16.141,27.312,16.541,27,17,27h30c0.459,0,0.859,0.312,0.97,0.757l3,12c0.075,0.299,0.007,0.615-0.182,0.858S50.308,41,50,41z"/>
	</g>
	<g>
		<path d="M11,37H8c-0.552,0-1-0.448-1-1v-6c0-0.552,0.448-1,1-1h5v2H9v4h2V37z"/>
	</g>
	<g>
		<path d="M56,37h-3v-2h2v-4h-3v-2h4c0.552,0,1,0.448,1,1v6C57,36.552,56.552,37,56,37z"/>
	</g>
	<g>
		<path d="M10,63H6c-1.654,0-3-1.346-3-3v-6c0-0.552,0.448-1,1-1h8c0.552,0,1,0.448,1,1v6C13,61.654,11.654,63,10,63z M5,55v5    c0,0.551,0.449,1,1,1h4c0.551,0,1-0.449,1-1v-5H5z"/>
	</g>
	<g>
		<path d="M58,63h-4c-1.654,0-3-1.346-3-3v-6c0-0.552,0.448-1,1-1h8c0.552,0,1,0.448,1,1v6C61,61.654,59.654,63,58,63z M53,55v5    c0,0.551,0.449,1,1,1h4c0.551,0,1-0.449,1-1v-5H53z"/>
	</g>
	<g>
		<rect x="25" y="40" width="2" height="14"/>
	</g>
	<g>
		<rect x="29" y="38" width="2" height="16"/>
	</g>
	<g>
		<rect x="33" y="38" width="2" height="16"/>
	</g>
	<g>
		<rect x="37" y="40" width="2" height="14"/>
	</g>
	<g>
		<rect x="23" y="54" width="2" height="4"/>
	</g>
	<g>
		<rect x="39" y="54" width="2" height="4"/>
	</g>
	<g>
		<path d="M14,51H8c-0.552,0-1-0.448-1-1v-4c0-0.552,0.448-1,1-1h6c0.552,0,1,0.448,1,1v4C15,50.552,14.552,51,14,51z M9,49h4v-2H9    V49z"/>
	</g>
	<g>
		<path d="M56,51h-6c-0.552,0-1-0.448-1-1v-4c0-0.552,0.448-1,1-1h6c0.552,0,1,0.448,1,1v4C57,50.552,56.552,51,56,51z M51,49h4v-2    h-4V49z"/>
	</g>
	<g>
		<rect x="18.757" y="33" transform="matrix(0.7071 -0.7071 0.7071 0.7071 -17.3051 26.2218)" width="8.485" height="2"/>
	</g>
	<g>
		<rect x="36.757" y="33" transform="matrix(0.7071 -0.7071 0.7071 0.7071 -12.033 38.9497)" width="8.485" height="2"/>
	</g>
	<g>
		<path d="M18,15h-2V6c0-0.552,0.448-1,1-1h3c1.654,0,3,1.346,3,3s-1.346,3-3,3h-2V15z M18,9h2c0.551,0,1-0.449,1-1s-0.449-1-1-1h-2    V9z"/>
	</g>
	<g>
		<path d="M23,15h-2c0-2.206-1.794-4-4-4V9C20.309,9,23,11.691,23,15z"/>
	</g>
	<g>
		<path d="M31,15h-5c-0.552,0-1-0.448-1-1V6c0-0.552,0.448-1,1-1h5v2h-4v6h4V15z"/>
	</g>
	<g>
		<rect x="26" y="9" width="5" height="2"/>
	</g>
	<g>
		<path d="M39,15c-0.338,0-0.662-0.172-0.848-0.47L35,9.487V15h-2V6c0-0.446,0.295-0.838,0.724-0.961    c0.428-0.122,0.888,0.053,1.124,0.432L38,10.513V5h2v9c0,0.446-0.295,0.838-0.724,0.961C39.185,14.987,39.092,15,39,15z"/>
	</g>
	<g>
		<rect x="42" y="5" width="6" height="2"/>
	</g>
	<g>
		<rect x="44" y="6" width="2" height="9"/>
	</g>
	<g>
		<path d="M49,19H15c-1.654,0-3-1.346-3-3V4c0-1.654,1.346-3,3-3h34c1.654,0,3,1.346,3,3v12C52,17.654,50.654,19,49,19z M15,3    c-0.551,0-1,0.449-1,1v12c0,0.551,0.449,1,1,1h34c0.551,0,1-0.449,1-1V4c0-0.551-0.449-1-1-1H15z"/>
	</g>
	<g>
		<rect x="28" y="18" width="2" height="6"/>
	</g>
	<g>
		<rect x="34" y="18" width="2" height="6"/>
	</g>
</g>
</svg>
