<svg height="512" viewBox="0 0 512 512" width="512" xmlns="http://www.w3.org/2000/svg"><g id="flat"><path d="m392 144a8 8 0 0 1 -8-8v-48a16 16 0 0 0 -32 0v48a8 8 0 0 1 -16 0v-48a32 32 0 0 1 64 0v48a8 8 0 0 1 -8 8z" fill="#c38325"/><path d="m478 186.706a8 8 0 0 0 -6-2.706h-321.223l-6.886-41.315a8 8 0 1 0 -15.782 2.63l7.946 47.679 15.973 191.67a8 8 0 0 0 7.972 7.336h288a8 8 0 0 0 7.938-7.008l24-192a8 8 0 0 0 -1.938-6.286zm-37.063 189.294h-273.576l-14.667-176h310.243z" fill="#b9b9b9"/><path d="m136 152h-48a8 8 0 0 1 0-16h48a8 8 0 0 1 0 16z" fill="#d32b39"/><path d="m192 256h224v128h-224z" fill="#eaeae8"/><path d="m192 256h160v128h-160z" fill="#92d1f7"/><path d="m352 265.06v25.6l-49.6 66.14a8 8 0 0 1 -12.8-9.6l60.01-80.02a7.882 7.882 0 0 1 2.39-2.12z" fill="#92d1f7"/><circle cx="384" cy="290" fill="#fbfdff" r="10"/><circle cx="384" cy="326" fill="#fbfdff" r="10"/><path d="m80 256h-32a8 8 0 0 1 0-16h32a8 8 0 0 1 0 16z" fill="#5ebef7"/><path d="m112 208h-24a8 8 0 0 1 0-16h24a8 8 0 0 1 0 16z" fill="#92d1f7"/><path d="m112 304h-40a8 8 0 0 1 0-16h40a8 8 0 0 1 0 16z" fill="#5ebef7"/><path d="m40 304h-16a8 8 0 0 1 0-16h16a8 8 0 0 1 0 16z" fill="#92d1f7"/><path d="m248 352h-40l72-96h40z" fill="#5ebef7"/><path d="m352 265.06v25.6l-49.6 66.14a8 8 0 0 1 -11.2 1.6c-3.53-2.65-10.978 2.034-8.328-1.5l66.738-89.72a7.882 7.882 0 0 1 2.39-2.12z" fill="#5ebef7"/><path d="m192 352h160v32h-160z" fill="#eaeae8"/><path d="m352 256h8v128h-8z" fill="#cbcbcb"/><path d="m288 256h-80v-88l-16-16 16-16h80z" fill="#d32b39"/><path d="m224 104 8 32h32l8-32z" fill="#961b20"/><path d="m312 112h112v144h-112z" fill="#ea9d2d"/><path d="m288 136h56v80l-56 16v-32l24-8v-24h-24z" fill="#961b20"/><path d="m408 448h-244a36 36 0 0 1 0-72h276a8 8 0 0 1 0 16h-276a20 20 0 0 0 0 40h244a8 8 0 0 1 0 16z" fill="#b9b9b9"/><circle cx="216" cy="437" fill="#eaeae8" r="19"/><circle cx="424" cy="437" fill="#eaeae8" r="19"/><circle cx="216" cy="437" fill="#41b2ff" r="19"/><path d="m216 464a27 27 0 1 1 27-27 27.03 27.03 0 0 1 -27 27zm0-38a11 11 0 1 0 11 11 11.013 11.013 0 0 0 -11-11z" fill="#0a71cd"/><circle cx="424" cy="437" fill="#41b2ff" r="19"/><path d="m424 464a27 27 0 1 1 27-27 27.03 27.03 0 0 1 -27 27zm0-38a11 11 0 1 0 11 11 11.013 11.013 0 0 0 -11-11z" fill="#0a71cd"/></g></svg>